<svg width="238" height="231" viewBox="0 0 238 231" fill="none" xmlns="http://www.w3.org/2000/svg">
<path d="M148.348 116.422L173.072 103.699C174.913 104.66 190.836 114.069 200.437 119.062C212.44 127.464 221.241 157.87 227.323 175.473C246.046 224.682 233.564 220.601 229.003 225.642L129.144 224.682V151.228C129.144 131.833 141.947 119.942 148.348 116.422Z" fill="white"/>
<rect x="127.224" y="91.6971" width="17.7633" height="64.332" rx="8.88166" fill="white"/>
<path d="M76.3343 93.4975V193.716V220.642C76.3343 223.404 78.5729 225.642 81.3343 225.642H94.1385C96.9 225.642 99.1385 223.404 99.1385 220.642V153.269C99.1385 152.274 99.9446 151.468 100.939 151.468C101.933 151.468 102.739 152.274 102.739 153.269V220.642C102.739 223.404 104.978 225.642 107.739 225.642H121.744C124.505 225.642 126.744 223.404 126.744 220.642V93.4975C126.744 92.9009 127.227 92.4173 127.824 92.4173C128.42 92.4173 128.904 92.9009 128.904 93.4975V146.547C128.904 150.591 132.182 153.869 136.225 153.869C140.269 153.869 143.547 150.6 143.547 146.556V88.0965C143.547 62.9025 141.186 61.5305 122.869 61.4558C120.859 61.4476 119.034 62.655 118.252 64.5066L101.299 104.66C84.2927 62.7263 98.2607 96.533 85.0568 64.5543C84.2842 62.6832 82.4418 61.4481 80.4175 61.4553C61.0896 61.5239 60.0112 62.8408 60.0112 88.0965V146.787C60.0112 150.698 63.1816 153.869 67.0926 153.869C71.0035 153.869 74.1739 150.698 74.1739 146.787V93.4975C74.1739 92.9009 74.6575 92.4173 75.2541 92.4173C75.8507 92.4173 76.3343 92.9009 76.3343 93.4975Z" fill="white"/>
<path d="M101.299 69.1329L97.4663 71.3825C94.2754 73.2554 90.2569 70.9545 90.2569 67.2546C90.2569 63.5894 94.2078 61.2842 97.3986 63.0877L101.299 65.2922L105.199 63.0877C108.39 61.2842 112.341 63.5894 112.341 67.2546C112.341 70.9545 108.322 73.2554 105.132 71.3825L101.299 69.1329Z" fill="white"/>
<path d="M76.3343 93.4975V193.716V220.642C76.3343 223.404 78.5729 225.642 81.3343 225.642H94.1385C96.9 225.642 99.1385 223.404 99.1385 220.642V153.269C99.1385 152.274 99.9446 151.468 100.939 151.468C101.933 151.468 102.739 152.274 102.739 153.269V220.642C102.739 223.404 104.978 225.642 107.739 225.642H121.744C124.505 225.642 126.744 223.404 126.744 220.642V93.4975C126.744 92.9009 127.227 92.4173 127.824 92.4173C128.42 92.4173 128.904 92.9009 128.904 93.4975V146.547C128.904 150.591 132.182 153.869 136.225 153.869C140.269 153.869 143.547 150.6 143.547 146.556V88.0965C143.547 62.9025 141.186 61.5305 122.869 61.4558C120.859 61.4476 119.034 62.655 118.252 64.5066L101.299 104.66C84.2927 62.7263 98.2607 96.533 85.0568 64.5543C84.2842 62.6832 82.4418 61.4481 80.4175 61.4553C61.0896 61.5239 60.0112 62.8408 60.0112 88.0965V146.787C60.0112 150.698 63.1816 153.869 67.0926 153.869C71.0035 153.869 74.1739 150.698 74.1739 146.787V93.4975C74.1739 92.9009 74.6575 92.4173 75.2541 92.4173C75.8507 92.4173 76.3343 92.9009 76.3343 93.4975Z" stroke="white"/>
<path d="M101.299 69.1329L97.4663 71.3825C94.2754 73.2554 90.2569 70.9545 90.2569 67.2546C90.2569 63.5894 94.2078 61.2842 97.3986 63.0877L101.299 65.2922L105.199 63.0877C108.39 61.2842 112.341 63.5894 112.341 67.2546C112.341 70.9545 108.322 73.2554 105.132 71.3825L101.299 69.1329Z" stroke="white"/>
<circle cx="101.779" cy="30.0056" r="30.0056" fill="white"/>
<path d="M116.495 43.9282C116.985 43.9282 117.387 43.5303 117.338 43.043C117.213 41.8015 116.828 40.5808 116.194 39.427C115.41 38 114.261 36.7033 112.812 35.6111C111.363 34.5189 109.643 33.6525 107.75 33.0614C105.857 32.4703 103.828 32.166 101.779 32.166C99.7301 32.166 97.7011 32.4703 95.8081 33.0614C93.9151 33.6525 92.195 34.5189 90.7461 35.6111C89.2973 36.7033 88.148 38 87.3638 39.427C86.7299 40.5808 86.3447 41.8015 86.2204 43.043C86.1716 43.5303 86.5731 43.9282 87.0628 43.9282V43.9282C87.5525 43.9282 87.9443 43.53 87.9993 43.0434C88.1198 41.9775 88.4573 40.9302 89.0022 39.9386C89.6972 38.6737 90.7158 37.5244 92 36.5563C93.2842 35.5882 94.8088 34.8203 96.4867 34.2964C98.1646 33.7725 99.9629 33.5028 101.779 33.5028C103.595 33.5028 105.394 33.7725 107.071 34.2964C108.749 34.8203 110.274 35.5882 111.558 36.5563C112.842 37.5244 113.861 38.6737 114.556 39.9386C115.101 40.9302 115.438 41.9775 115.559 43.0434C115.614 43.53 116.006 43.9282 116.495 43.9282V43.9282Z" fill="white"/>
<circle cx="109.941" cy="21.364" r="2.64049" fill="white"/>
<circle cx="93.6175" cy="21.364" r="2.64049" fill="white"/>
<circle cx="173.552" cy="30.0056" r="30.0056" fill="white"/>
<path d="M188.269 35.0465C188.758 35.0465 189.16 35.4445 189.111 35.9317C188.987 37.1733 188.602 38.394 187.968 39.5477C187.183 40.9748 186.034 42.2715 184.585 43.3637C183.136 44.4559 181.416 45.3223 179.523 45.9134C177.63 46.5045 175.601 46.8087 173.552 46.8087C171.503 46.8087 169.474 46.5045 167.581 45.9134C165.688 45.3223 163.968 44.4559 162.519 43.3637C161.071 42.2715 159.921 40.9748 159.137 39.5477C158.503 38.394 158.118 37.1733 157.994 35.9317C157.945 35.4445 158.346 35.0465 158.836 35.0465V35.0465C159.326 35.0465 159.718 35.4447 159.773 35.9313C159.893 36.9972 160.231 38.0446 160.775 39.0362C161.47 40.3011 162.489 41.4503 163.773 42.4184C165.058 43.3865 166.582 44.1544 168.26 44.6784C169.938 45.2023 171.736 45.472 173.552 45.472C175.369 45.472 177.167 45.2023 178.845 44.6784C180.523 44.1544 182.047 43.3865 183.331 42.4184C184.616 41.4503 185.634 40.3011 186.329 39.0362C186.874 38.0446 187.212 36.9972 187.332 35.9313C187.387 35.4447 187.779 35.0465 188.269 35.0465V35.0465Z" fill="white"/>
<path d="M183.741 17.7634C182.831 17.7634 182.04 18.2742 181.639 19.0244C181.237 18.2742 180.447 17.7634 179.536 17.7634C178.22 17.7634 177.153 18.8304 177.153 20.1463C177.153 23.3704 181.639 25.6132 181.639 25.6132C181.639 25.6132 186.124 23.3704 186.124 20.1463C186.124 18.8304 185.057 17.7634 183.741 17.7634Z" fill="white"/>
<path d="M167.418 17.7633C166.508 17.7633 165.717 18.2741 165.316 19.0244C164.914 18.2741 164.124 17.7633 163.213 17.7633C161.897 17.7633 160.83 18.8303 160.83 20.1463C160.83 23.3703 165.316 25.6131 165.316 25.6131C165.316 25.6131 169.801 23.3703 169.801 20.1463C169.801 18.8303 168.734 17.7633 167.418 17.7633Z" fill="white"/>
<path d="M180.533 62.1064C194.936 62.1063 207.179 62.1064 207.179 78.6695V109.395C207.179 120.503 206.314 120.341 190.375 111.316C181.159 106.097 186.774 109.395 174.772 101.474C174.772 97.4175 175.589 92.4006 178.133 91.3918L190.375 95.7126C191.421 96.0818 193.063 96.5505 193.758 95.818C193.806 95.7675 193.849 95.7114 193.887 95.6491L193.903 95.6235C193.966 95.5215 194.028 95.4208 194.095 95.3214C194.13 95.2694 194.168 95.2083 194.208 95.1388C195.152 93.4915 197.336 87.1156 197.456 84.1318C197.502 82.9964 196.519 83.2203 196.144 84.2929C195.742 85.4435 195.329 86.8362 194.95 88.1401C194.895 88.3264 194.842 88.5109 194.789 88.6926C194.482 89.7497 194.203 90.7129 193.976 91.3918C193.237 93.1752 193.614 94.4655 190.375 93.5522C188.371 92.987 183.446 90.5242 179.888 88.9881C179.522 88.8298 179.125 88.738 178.73 88.7915C175.75 89.1948 174.228 92.5352 173.552 94.3376C173.152 92.7373 173.552 88.7513 168.771 88.7513C165.891 89.1354 160.049 92.112 157.249 93.5522C153.648 93.0721 153.888 93.0722 151.488 85.1507C151.008 85.2307 150.048 84.4305 151.248 89.2314C151.728 91.9519 151.488 94.7525 157.729 95.4726C162.77 93.5522 166.611 90.9118 168.771 92.112C170.903 92.8227 170.931 93.0658 171.855 101.15L171.892 101.474C164.11 105.78 148.811 114.152 146.48 115.073C136.672 120.144 139.486 90.1916 139.966 74.1086C140.166 67.3874 146.207 63.5467 155.809 61.9316C168.171 62.019 168.171 62.019 168.171 62.019L180.533 62.1064Z" fill="white"/>
<circle cx="71.2934" cy="217.241" r="5.52103" fill="white"/>
<circle cx="60.2513" cy="222.522" r="5.52103" fill="white"/>
<circle cx="38.1671" cy="222.522" r="5.52103" fill="white"/>
<circle cx="49.2091" cy="225.402" r="5.52103" fill="white"/>
<circle cx="18.9635" cy="210.999" r="18.9635" fill="white"/>
</svg>
