<svg width="255" height="165" viewBox="0 0 255 165" fill="none" xmlns="http://www.w3.org/2000/svg">
<path d="M43.6377 152.478C43.9209 152.478 44.0624 152.601 44.0624 152.849V155.026C44.0624 155.114 44.027 155.203 43.9563 155.291C43.8855 155.38 43.7705 155.424 43.6112 155.424H33.525C33.2418 155.424 33.1003 155.3 33.1003 155.052V152.849C33.1003 152.601 33.233 152.478 33.4984 152.478H36.4712C36.6305 152.478 36.7101 152.424 36.7101 152.318V139.976C36.7101 139.746 36.6039 139.657 36.3916 139.71L33.578 140.639C33.2418 140.728 33.0737 140.586 33.0737 140.215V138.675C33.0737 138.516 33.1003 138.41 33.1534 138.357C33.2064 138.286 33.2949 138.215 33.4188 138.144L37.6922 135.995C37.9045 135.888 38.0726 135.818 38.1965 135.782C38.338 135.747 38.5062 135.729 38.7008 135.729H40.2934C40.5234 135.729 40.6384 135.871 40.6384 136.154V152.239C40.6384 152.398 40.718 152.478 40.8773 152.478H43.6377ZM59.806 135.729C60.0714 135.729 60.2307 135.764 60.2838 135.835C60.3369 135.906 60.3546 136.048 60.3369 136.26L60.2307 138.49C60.213 138.649 60.1688 138.764 60.098 138.835C60.0449 138.888 59.9122 138.914 59.6998 138.914H51.1C50.8346 138.914 50.7019 139.029 50.7019 139.259L50.3303 143.453C50.3126 143.595 50.3391 143.701 50.4099 143.772C50.4984 143.825 50.5868 143.825 50.6753 143.772C51.3654 143.506 52.0024 143.285 52.5864 143.108C53.1703 142.913 53.8693 142.816 54.6833 142.816C55.9573 142.816 57.1164 143.046 58.1604 143.506C59.2044 143.948 60.0361 144.63 60.6554 145.55C61.2924 146.452 61.6109 147.603 61.6109 149C61.6109 150.398 61.2747 151.602 60.6023 152.61C59.9299 153.601 59.0009 154.362 57.8153 154.893C56.6474 155.424 55.2937 155.689 53.7543 155.689C52.1617 155.689 50.7107 155.424 49.4013 154.893C48.0918 154.344 47.0566 153.592 46.2958 152.637C46.1896 152.495 46.1277 152.363 46.11 152.239C46.0923 152.115 46.163 151.991 46.3223 151.867L48.1537 150.54C48.3661 150.381 48.5696 150.416 48.7642 150.646C49.2066 151.071 49.6401 151.46 50.0648 151.814C50.4895 152.15 50.9584 152.416 51.4716 152.61C51.9848 152.805 52.5952 152.902 53.303 152.902C54.2409 152.902 55.0372 152.743 55.6919 152.424C56.3643 152.088 56.8686 151.637 57.2048 151.071C57.5587 150.487 57.7357 149.832 57.7357 149.107C57.7357 148.381 57.5676 147.762 57.2314 147.249C56.9129 146.718 56.4616 146.32 55.8777 146.054C55.2937 145.771 54.6213 145.63 53.8604 145.63C53.1349 145.63 52.4714 145.753 51.8697 146.001C51.2681 146.249 50.6576 146.532 50.0383 146.85C49.8967 146.921 49.7994 146.957 49.7463 146.957C49.6932 146.939 49.5871 146.895 49.4278 146.824L47.4106 145.709C47.2336 145.603 47.1363 145.506 47.1186 145.417C47.1186 145.329 47.1274 145.169 47.1451 144.939L47.8883 136.26C47.906 136.048 47.9591 135.906 48.0476 135.835C48.1537 135.764 48.3749 135.729 48.7111 135.729H59.806ZM71.4834 149.186C71.4834 149.522 71.2799 149.691 70.8729 149.691H64.715C64.538 149.691 64.4142 149.655 64.3434 149.584C64.2726 149.514 64.2372 149.399 64.2372 149.239V147.567C64.2372 147.284 64.3522 147.142 64.5823 147.142H71.1383C71.3684 147.142 71.4834 147.257 71.4834 147.488V149.186ZM84.5924 152.478C84.8755 152.478 85.0171 152.601 85.0171 152.849V155.026C85.0171 155.114 84.9817 155.203 84.9109 155.291C84.8401 155.38 84.7251 155.424 84.5658 155.424H74.4796C74.1965 155.424 74.0549 155.3 74.0549 155.052V152.849C74.0549 152.601 74.1876 152.478 74.4531 152.478H77.4258C77.5851 152.478 77.6647 152.424 77.6647 152.318V139.976C77.6647 139.746 77.5586 139.657 77.3462 139.71L74.5327 140.639C74.1965 140.728 74.0284 140.586 74.0284 140.215V138.675C74.0284 138.516 74.0549 138.41 74.108 138.357C74.1611 138.286 74.2496 138.215 74.3734 138.144L78.6468 135.995C78.8591 135.888 79.0273 135.818 79.1511 135.782C79.2927 135.747 79.4608 135.729 79.6554 135.729H81.248C81.478 135.729 81.593 135.871 81.593 136.154V152.239C81.593 152.398 81.6727 152.478 81.8319 152.478H84.5924ZM100.654 135.729C100.867 135.729 101.026 135.782 101.132 135.888C101.238 135.977 101.283 136.083 101.265 136.207L101.212 137.507C101.212 137.649 101.15 137.852 101.026 138.118C100.902 138.366 100.778 138.596 100.654 138.808C99.9821 139.799 99.345 140.87 98.7434 142.02C98.1418 143.17 97.5844 144.347 97.0712 145.55C96.5757 146.735 96.1334 147.903 95.7441 149.054C95.3548 150.186 95.0274 151.239 94.762 152.212C94.5143 153.185 94.355 154.035 94.2842 154.76C94.2488 155.203 94.0807 155.424 93.7799 155.424H90.2763C89.9047 155.424 89.7719 155.229 89.8781 154.84C90.1435 153.849 90.4709 152.796 90.8602 151.681C91.2495 150.566 91.7184 149.363 92.267 148.071C92.8332 146.78 93.5056 145.408 94.2842 143.957C95.0805 142.506 96.0006 140.958 97.0447 139.312C97.1154 139.188 97.142 139.091 97.1243 139.02C97.1066 138.95 97.0093 138.914 96.8323 138.914H87.4096C87.0911 138.914 86.9407 138.755 86.9584 138.436L87.1973 136.074C87.2327 135.844 87.4185 135.729 87.7547 135.729H100.654ZM107.298 154.866C107.298 155.238 107.077 155.424 106.635 155.424H103.954C103.6 155.424 103.423 155.265 103.423 154.946V151.947C103.423 151.646 103.547 151.495 103.795 151.495H106.927C107.174 151.495 107.298 151.628 107.298 151.894V154.866ZM117.897 135.437C119.029 135.437 120.073 135.676 121.029 136.154C121.984 136.614 122.816 137.286 123.524 138.171C124.249 139.056 124.807 140.126 125.196 141.383C125.585 142.639 125.78 144.055 125.78 145.63C125.78 147.718 125.435 149.514 124.745 151.018C124.073 152.504 123.144 153.654 121.958 154.468C120.772 155.265 119.41 155.663 117.87 155.663C116.349 155.663 114.986 155.265 113.783 154.468C112.579 153.654 111.633 152.504 110.943 151.018C110.27 149.531 109.934 147.744 109.934 145.656C109.934 144.063 110.129 142.648 110.518 141.409C110.925 140.153 111.482 139.082 112.19 138.198C112.916 137.295 113.756 136.614 114.712 136.154C115.685 135.676 116.747 135.437 117.897 135.437ZM117.87 152.849C118.72 152.849 119.436 152.61 120.02 152.132C120.604 151.637 121.047 150.867 121.347 149.823C121.648 148.762 121.799 147.372 121.799 145.656C121.799 143.887 121.639 142.462 121.321 141.383C121.02 140.286 120.578 139.489 119.994 138.994C119.41 138.481 118.702 138.224 117.87 138.224C117.039 138.224 116.331 138.481 115.747 138.994C115.163 139.489 114.712 140.286 114.393 141.383C114.075 142.48 113.915 143.904 113.915 145.656C113.915 147.355 114.075 148.735 114.393 149.797C114.712 150.858 115.163 151.637 115.747 152.132C116.331 152.61 117.039 152.849 117.87 152.849ZM141.816 135.729C142.029 135.729 142.188 135.782 142.294 135.888C142.4 135.977 142.445 136.083 142.427 136.207L142.374 137.507C142.374 137.649 142.312 137.852 142.188 138.118C142.064 138.366 141.94 138.596 141.816 138.808C141.144 139.799 140.507 140.87 139.905 142.02C139.304 143.17 138.746 144.347 138.233 145.55C137.738 146.735 137.295 147.903 136.906 149.054C136.517 150.186 136.189 151.239 135.924 152.212C135.676 153.185 135.517 154.035 135.446 154.76C135.411 155.203 135.243 155.424 134.942 155.424H131.438C131.067 155.424 130.934 155.229 131.04 154.84C131.306 153.849 131.633 152.796 132.022 151.681C132.411 150.566 132.88 149.363 133.429 148.071C133.995 146.78 134.668 145.408 135.446 143.957C136.242 142.506 137.163 140.958 138.207 139.312C138.277 139.188 138.304 139.091 138.286 139.02C138.269 138.95 138.171 138.914 137.994 138.914H128.572C128.253 138.914 128.103 138.755 128.12 138.436L128.359 136.074C128.395 135.844 128.58 135.729 128.917 135.729H141.816ZM148.46 154.866C148.46 155.238 148.239 155.424 147.797 155.424H145.116C144.762 155.424 144.585 155.265 144.585 154.946V151.947C144.585 151.646 144.709 151.495 144.957 151.495H148.089C148.336 151.495 148.46 151.628 148.46 151.894V154.866ZM157.042 146.983C157.856 146.258 158.519 145.63 159.032 145.099C159.563 144.568 159.979 144.09 160.28 143.665C160.598 143.241 160.82 142.843 160.943 142.471C161.067 142.082 161.129 141.675 161.129 141.25C161.129 140.631 160.97 140.109 160.651 139.684C160.351 139.259 159.952 138.932 159.457 138.702C158.979 138.472 158.44 138.357 157.838 138.357C157.36 138.357 156.882 138.445 156.405 138.622C155.927 138.799 155.458 139.091 154.998 139.498C154.555 139.887 154.14 140.418 153.75 141.091C153.697 141.197 153.609 141.259 153.485 141.277C153.379 141.294 153.246 141.259 153.087 141.17L151.123 140.135C150.963 140.047 150.875 139.932 150.857 139.79C150.839 139.649 150.884 139.507 150.99 139.365C151.857 138.021 152.892 137.039 154.095 136.419C155.316 135.782 156.652 135.464 158.103 135.464C159.413 135.464 160.581 135.694 161.607 136.154C162.633 136.596 163.447 137.251 164.049 138.118C164.651 138.985 164.951 140.038 164.951 141.277C164.951 142.02 164.819 142.719 164.553 143.373C164.306 144.028 163.89 144.692 163.306 145.364C162.722 146.037 161.943 146.78 160.97 147.594L155.9 151.867C155.794 151.938 155.741 152.009 155.741 152.079C155.759 152.15 155.865 152.186 156.06 152.186H164.686C164.987 152.186 165.137 152.309 165.137 152.557V154.999C165.137 155.123 165.102 155.229 165.031 155.318C164.96 155.388 164.836 155.424 164.659 155.424H151.361C151.149 155.424 150.999 155.388 150.91 155.318C150.839 155.247 150.804 155.114 150.804 154.919V153.194C150.804 153.088 150.822 152.991 150.857 152.902C150.91 152.796 151.008 152.663 151.149 152.504C151.308 152.327 151.547 152.106 151.866 151.841L157.042 146.983ZM175.726 135.437C176.858 135.437 177.902 135.676 178.858 136.154C179.813 136.614 180.645 137.286 181.353 138.171C182.078 139.056 182.636 140.126 183.025 141.383C183.414 142.639 183.609 144.055 183.609 145.63C183.609 147.718 183.264 149.514 182.574 151.018C181.901 152.504 180.973 153.654 179.787 154.468C178.601 155.265 177.239 155.663 175.699 155.663C174.178 155.663 172.815 155.265 171.612 154.468C170.408 153.654 169.462 152.504 168.772 151.018C168.099 149.531 167.763 147.744 167.763 145.656C167.763 144.063 167.958 142.648 168.347 141.409C168.754 140.153 169.311 139.082 170.019 138.198C170.745 137.295 171.585 136.614 172.541 136.154C173.514 135.676 174.576 135.437 175.726 135.437ZM175.699 152.849C176.549 152.849 177.265 152.61 177.849 152.132C178.433 151.637 178.876 150.867 179.176 149.823C179.477 148.762 179.628 147.372 179.628 145.656C179.628 143.887 179.468 142.462 179.15 141.383C178.849 140.286 178.407 139.489 177.823 138.994C177.239 138.481 176.531 138.224 175.699 138.224C174.868 138.224 174.16 138.481 173.576 138.994C172.992 139.489 172.541 140.286 172.222 141.383C171.904 142.48 171.744 143.904 171.744 145.656C171.744 147.355 171.904 148.735 172.222 149.797C172.541 150.858 172.992 151.637 173.576 152.132C174.16 152.61 174.868 152.849 175.699 152.849ZM192.32 146.983C193.134 146.258 193.797 145.63 194.31 145.099C194.841 144.568 195.257 144.09 195.558 143.665C195.876 143.241 196.098 142.843 196.221 142.471C196.345 142.082 196.407 141.675 196.407 141.25C196.407 140.631 196.248 140.109 195.929 139.684C195.629 139.259 195.231 138.932 194.735 138.702C194.257 138.472 193.718 138.357 193.116 138.357C192.638 138.357 192.16 138.445 191.683 138.622C191.205 138.799 190.736 139.091 190.276 139.498C189.833 139.887 189.418 140.418 189.028 141.091C188.975 141.197 188.887 141.259 188.763 141.277C188.657 141.294 188.524 141.259 188.365 141.17L186.401 140.135C186.241 140.047 186.153 139.932 186.135 139.79C186.118 139.649 186.162 139.507 186.268 139.365C187.135 138.021 188.17 137.039 189.373 136.419C190.594 135.782 191.93 135.464 193.381 135.464C194.691 135.464 195.859 135.694 196.885 136.154C197.911 136.596 198.725 137.251 199.327 138.118C199.929 138.985 200.229 140.038 200.229 141.277C200.229 142.02 200.097 142.719 199.831 143.373C199.584 144.028 199.168 144.692 198.584 145.364C198 146.037 197.221 146.78 196.248 147.594L191.178 151.867C191.072 151.938 191.019 152.009 191.019 152.079C191.037 152.15 191.143 152.186 191.338 152.186H199.964C200.265 152.186 200.415 152.309 200.415 152.557V154.999C200.415 155.123 200.38 155.229 200.309 155.318C200.238 155.388 200.114 155.424 199.937 155.424H186.64C186.427 155.424 186.277 155.388 186.188 155.318C186.118 155.247 186.082 155.114 186.082 154.919V153.194C186.082 153.088 186.1 152.991 186.135 152.902C186.188 152.796 186.286 152.663 186.427 152.504C186.586 152.327 186.825 152.106 187.144 151.841L192.32 146.983ZM208.987 146.983C209.801 146.258 210.464 145.63 210.977 145.099C211.508 144.568 211.924 144.09 212.225 143.665C212.543 143.241 212.765 142.843 212.888 142.471C213.012 142.082 213.074 141.675 213.074 141.25C213.074 140.631 212.915 140.109 212.596 139.684C212.296 139.259 211.897 138.932 211.402 138.702C210.924 138.472 210.385 138.357 209.783 138.357C209.305 138.357 208.827 138.445 208.35 138.622C207.872 138.799 207.403 139.091 206.943 139.498C206.5 139.887 206.085 140.418 205.695 141.091C205.642 141.197 205.554 141.259 205.43 141.277C205.324 141.294 205.191 141.259 205.032 141.17L203.068 140.135C202.908 140.047 202.82 139.932 202.802 139.79C202.784 139.649 202.829 139.507 202.935 139.365C203.802 138.021 204.837 137.039 206.04 136.419C207.261 135.782 208.597 135.464 210.048 135.464C211.358 135.464 212.526 135.694 213.552 136.154C214.578 136.596 215.392 137.251 215.994 138.118C216.596 138.985 216.896 140.038 216.896 141.277C216.896 142.02 216.764 142.719 216.498 143.373C216.251 144.028 215.835 144.692 215.251 145.364C214.667 146.037 213.888 146.78 212.915 147.594L207.845 151.867C207.739 151.938 207.686 152.009 207.686 152.079C207.704 152.15 207.81 152.186 208.005 152.186H216.631C216.932 152.186 217.082 152.309 217.082 152.557V154.999C217.082 155.123 217.047 155.229 216.976 155.318C216.905 155.388 216.781 155.424 216.604 155.424H203.306C203.094 155.424 202.944 155.388 202.855 155.318C202.784 155.247 202.749 155.114 202.749 154.919V153.194C202.749 153.088 202.767 152.991 202.802 152.902C202.855 152.796 202.953 152.663 203.094 152.504C203.253 152.327 203.492 152.106 203.811 151.841L208.987 146.983Z" fill="white"/>
<path d="M53.606 58.7766C53.8524 59.2284 53.914 59.6392 53.7908 60.0089C53.7086 60.3375 53.4006 60.5019 52.8665 60.5019H42.1452C41.1593 60.5019 40.502 60.1322 40.1734 59.3928L31.4854 41.2157C31.1568 40.7228 30.7255 40.8049 30.1915 41.4622L25.3237 47.5623C25.0772 47.8498 24.954 48.2811 24.954 48.8562V58.8998C24.954 59.9678 24.3378 60.5019 23.1055 60.5019H13.9862C13.4111 60.5019 13.0208 60.3992 12.8154 60.1938C12.61 59.9473 12.5073 59.5776 12.5073 59.0847V16.0759C12.5073 15.2133 12.8565 14.782 13.5548 14.782H23.9065C24.6048 14.782 24.954 15.1722 24.954 15.9527V32.8974C24.954 33.3493 25.0362 33.5752 25.2005 33.5752C25.3648 33.5752 25.5702 33.4314 25.8166 33.1439L38.8178 15.9527C39.1054 15.5419 39.3929 15.2544 39.6805 15.0901C40.0091 14.8847 40.5226 14.782 41.2209 14.782H49.6008C50.217 14.782 50.6483 14.9463 50.8948 15.2749C51.1413 15.6035 51.0797 15.9732 50.7099 16.384L39.8037 29.4468C39.434 29.9809 39.3929 30.5765 39.6805 31.2337L53.606 58.7766ZM59.2617 16.0759C59.2617 15.2133 59.6109 14.782 60.3092 14.782H92.535C93.1922 14.782 93.5208 15.1722 93.5208 15.9527V22.3609C93.5208 23.3468 93.0279 23.8397 92.042 23.8397H73.0023C72.1397 23.8397 71.7084 24.2094 71.7084 24.9488V31.9115C71.7084 32.692 72.037 33.0823 72.6943 33.0823H84.7096C85.4901 33.0823 85.8803 33.452 85.8803 34.1914V41.0309C85.8803 41.2773 85.7982 41.5033 85.6338 41.7086C85.5106 41.873 85.2641 41.9551 84.8944 41.9551H72.6326C72.0165 41.9551 71.7084 42.2427 71.7084 42.8178V50.6431C71.7084 51.1771 71.9343 51.4441 72.3862 51.4441H92.9047C93.7262 51.4441 94.137 51.7933 94.137 52.4916V59.2695C94.137 59.5981 94.0343 59.8857 93.8289 60.1322C93.6235 60.3786 93.2949 60.5019 92.843 60.5019H60.7405C59.7547 60.5019 59.2617 60.0295 59.2617 59.0847V16.0759ZM139.246 14.782C139.698 14.782 140.026 14.9463 140.232 15.2749C140.437 15.6035 140.478 15.9732 140.355 16.384L125.813 59.0847C125.526 60.0295 124.828 60.5019 123.719 60.5019H114.784C113.634 60.5019 112.936 60.0295 112.689 59.0847L98.209 16.384C98.0447 15.9732 98.0653 15.6035 98.2706 15.2749C98.476 14.9463 98.8047 14.782 99.2565 14.782H109.731C110.471 14.782 110.943 15.1722 111.149 15.9527L120.268 44.9744C120.514 45.6316 120.74 45.6111 120.946 44.9127L129.695 15.9527C129.86 15.1722 130.332 14.782 131.113 14.782H139.246ZM157.31 14.782C158.008 14.782 158.357 15.1722 158.357 15.9527V58.8382C158.357 59.4544 158.193 59.8857 157.864 60.1322C157.577 60.3786 157.125 60.5019 156.509 60.5019H147.39C146.814 60.5019 146.424 60.3992 146.219 60.1938C146.013 59.9473 145.911 59.5776 145.911 59.0847V16.0759C145.911 15.2133 146.26 14.782 146.958 14.782H157.31ZM204.277 14.782C204.893 14.782 205.201 15.1106 205.201 15.7678V59.4544C205.201 59.783 205.078 60.05 204.832 60.2554C204.585 60.4197 204.277 60.5019 203.907 60.5019H196.452C196.164 60.5019 195.897 60.4608 195.651 60.3786C195.445 60.2965 195.178 60.05 194.85 59.6392L176.611 34.4994C176.447 34.253 176.303 34.1503 176.18 34.1914C176.056 34.2324 175.995 34.3557 175.995 34.5611V59.2695C176.036 60.0911 175.584 60.5019 174.639 60.5019H167.184C166.28 60.5019 165.828 60.1116 165.828 59.3311V16.0759C165.828 15.2133 166.239 14.782 167.06 14.782H175.872C176.365 14.782 176.734 14.8436 176.981 14.9668C177.227 15.0901 177.494 15.3571 177.782 15.7678L194.172 38.8743C194.459 39.244 194.685 39.4083 194.85 39.3672C195.055 39.3261 195.158 39.0797 195.158 38.6278V15.9527C195.158 15.1722 195.569 14.782 196.39 14.782H204.277ZM212.519 34.0065C212.191 34.0065 211.944 33.8833 211.78 33.6368C211.657 33.3493 211.636 33.0617 211.718 32.7742L214.368 26.6125C214.573 26.0784 214.635 25.6882 214.553 25.4417C214.512 25.1953 214.286 25.031 213.875 24.9488L212.827 24.8256C212.376 24.7434 212.047 24.6202 211.842 24.4559C211.636 24.2915 211.533 23.9835 211.533 23.5316V15.9527C211.533 15.1722 211.862 14.782 212.519 14.782H220.961C221.577 14.782 221.885 15.1106 221.885 15.7678V23.0387C221.885 23.3673 221.824 23.6343 221.7 23.8397L215.785 32.8974C215.539 33.2671 215.189 33.5547 214.738 33.76C214.327 33.9244 213.916 34.0065 213.505 34.0065H212.519ZM244.569 36.7793C243.912 35.9988 243.049 35.3005 241.981 34.6843C240.913 34.027 239.558 33.6984 237.915 33.6984C236.641 33.6984 235.553 33.9449 234.649 34.4378C233.745 34.8897 233.293 35.5675 233.293 36.4712C233.293 36.8409 233.458 37.2311 233.786 37.6419C234.115 38.0116 234.916 38.3402 236.189 38.6278L242.967 40.1682C246.623 40.9487 249.191 42.2632 250.669 44.1117C252.148 45.9602 252.888 48.0347 252.888 50.335C252.888 52.5943 252.251 54.5455 250.978 56.1887C249.704 57.7907 247.917 59.0231 245.617 59.8857C243.358 60.7073 240.729 61.118 237.73 61.118C233.91 61.118 230.706 60.4608 228.118 59.1463C225.53 57.8318 223.722 56.2503 222.695 54.4018C222.531 54.0731 222.449 53.7651 222.449 53.4775C222.449 53.1489 222.572 52.9024 222.819 52.7381L227.625 50.2734C228.118 50.068 228.487 49.9859 228.734 50.027C228.98 50.068 229.186 50.1913 229.35 50.3967C229.884 51.0539 230.48 51.6906 231.137 52.3068C231.794 52.8819 232.657 53.3748 233.725 53.7856C234.793 54.1553 236.148 54.3196 237.791 54.2785C238.777 54.2375 239.681 54.1142 240.503 53.9088C241.324 53.7034 241.961 53.3954 242.413 52.9846C242.906 52.5738 243.152 52.0603 243.152 51.4441C243.152 50.9101 242.926 50.4377 242.474 50.027C242.023 49.6162 241.098 49.267 239.702 48.9795L233.417 47.7471C230.295 47.131 227.892 46.0424 226.207 44.4814C224.564 42.9204 223.722 40.8255 223.681 38.1965C223.681 36.1015 224.236 34.2324 225.345 32.5893C226.454 30.9051 228.077 29.5906 230.213 28.6458C232.39 27.701 234.998 27.2286 238.038 27.2286C241.283 27.2286 244.056 27.8243 246.356 29.0155C248.698 30.1657 250.341 31.5213 251.286 33.0823C251.491 33.3698 251.635 33.6779 251.717 34.0065C251.84 34.3351 251.696 34.5816 251.286 34.7459L246.233 37.2106C245.863 37.3749 245.555 37.416 245.309 37.3338C245.062 37.2517 244.816 37.0668 244.569 36.7793ZM13.121 100.502C12.9219 100.502 12.756 100.436 12.6233 100.303C12.5127 100.17 12.4574 100.015 12.4574 99.8383V76.6797C12.4574 76.4364 12.5238 76.2484 12.6565 76.1157C12.7892 75.9609 12.9662 75.8835 13.1874 75.8835H22.6764C25.9942 75.8835 28.5269 76.4364 30.2743 77.5424C32.0438 78.6262 32.9285 80.2298 32.9285 82.3533C32.9285 83.5477 32.6078 84.5652 31.9664 85.4057C31.347 86.2241 30.219 86.9982 28.5822 87.7282C28.5379 87.7503 28.5158 87.7945 28.5158 87.8609C28.5158 87.9051 28.5379 87.9383 28.5822 87.9604C30.3738 88.5797 31.6456 89.3539 32.3977 90.2829C33.1497 91.1898 33.5257 92.3731 33.5257 93.833C33.5257 96.0891 32.6631 97.7702 30.9378 98.8761C29.2125 99.9599 26.6136 100.502 23.1409 100.502H13.121ZM22.975 96.0228C24.1694 96.0228 25.0652 95.7463 25.6625 95.1933C26.2597 94.6182 26.5583 93.9325 26.5583 93.1362C26.5583 92.5612 26.4145 92.0635 26.1269 91.6432C25.8394 91.223 25.4413 90.9022 24.9325 90.681C24.4238 90.4599 23.8376 90.3493 23.1741 90.3493H19.8562C19.3917 90.3493 19.1595 90.5704 19.1595 91.0128V95.3592C19.1595 95.8016 19.3254 96.0228 19.6572 96.0228H22.975ZM23.1741 85.7706C23.6164 85.7706 24.0256 85.7153 24.4017 85.6047C24.7777 85.472 25.1095 85.2951 25.397 85.0739C25.6846 84.8527 25.9058 84.5873 26.0606 84.2776C26.2154 83.9458 26.2928 83.5587 26.2928 83.1164C26.2928 82.2537 25.9721 81.5791 25.3307 81.0925C24.6892 80.6059 23.8819 80.3625 22.9086 80.3625H19.8562C19.3917 80.3625 19.1595 80.5616 19.1595 80.9598V85.0739C19.1595 85.5384 19.3254 85.7706 19.6572 85.7706H23.1741ZM45.5179 98.9757C44.8765 99.5065 44.1466 99.9489 43.3282 100.303C42.5098 100.657 41.5697 100.834 40.508 100.834C38.8269 100.834 37.5109 100.38 36.5598 99.4733C35.6308 98.5443 35.1663 97.3831 35.1663 95.9896C35.1663 94.7067 35.5644 93.5897 36.3607 92.6386C37.157 91.6875 38.2961 90.9465 39.7781 90.4156C41.26 89.8848 43.0185 89.6083 45.0534 89.5862L45.7502 89.553C45.8387 89.553 45.9382 89.5309 46.0488 89.4866C46.1815 89.4203 46.2479 89.2875 46.2479 89.0885V88.4581C46.2479 87.7282 46.0488 87.1641 45.6506 86.766C45.2525 86.3678 44.6663 86.1688 43.8922 86.1688C43.3171 86.1688 42.7531 86.3015 42.2001 86.5669C41.6692 86.8102 41.2269 87.2637 40.8729 87.9272C40.7845 88.0821 40.696 88.1927 40.6075 88.259C40.519 88.3033 40.3421 88.3033 40.0767 88.259L36.1948 87.4627C36.0621 87.4185 35.9625 87.3411 35.8962 87.2305C35.8298 87.1199 35.863 86.8766 35.9957 86.5006C36.5487 85.1292 37.5219 84.1338 38.9154 83.5145C40.3089 82.8952 42.0563 82.5855 44.1576 82.5855C46.1041 82.5855 47.6303 82.8178 48.7362 83.2823C49.8643 83.7468 50.6606 84.3882 51.1251 85.2066C51.6117 86.025 51.855 86.9872 51.855 88.0931V99.6724C51.855 99.9821 51.8108 100.203 51.7223 100.336C51.6338 100.447 51.4458 100.502 51.1583 100.502H47.1769C46.9114 100.502 46.7234 100.402 46.6128 100.203C46.5022 99.9821 46.4248 99.7388 46.3806 99.4733L46.3474 98.9757C46.281 98.5554 46.0045 98.5554 45.5179 98.9757ZM46.2479 92.8708C46.2479 92.4727 46.082 92.2847 45.7502 92.3068L45.2193 92.34C44.8212 92.34 44.3677 92.4063 43.859 92.539C43.3724 92.6496 42.8968 92.8266 42.4323 93.0699C41.99 93.2911 41.625 93.5786 41.3374 93.9325C41.0499 94.2864 40.9061 94.7067 40.9061 95.1933C40.9061 95.7684 41.1052 96.2218 41.5033 96.5536C41.9015 96.8854 42.4434 97.0513 43.1291 97.0513C43.6378 97.0513 44.0691 96.9739 44.423 96.8191C44.7991 96.6642 45.0977 96.4873 45.3189 96.2882C45.5843 96.067 45.8055 95.8458 45.9824 95.6246C46.1594 95.3813 46.2479 95.1159 46.2479 94.8283V92.8708ZM63.4462 82.5855C64.9503 82.5855 66.2332 82.862 67.2949 83.415C68.3566 83.9458 69.2082 84.6204 69.8496 85.4389C70.4911 86.2573 70.9224 87.0867 71.1436 87.9272C71.2984 88.436 71.1215 88.7014 70.6128 88.7235L66.5982 88.9889C66.3106 89.0332 66.1337 88.9005 66.0673 88.5908C65.9346 88.2369 65.7798 87.8941 65.6028 87.5623C65.448 87.2084 65.2047 86.9208 64.8729 86.6996C64.5632 86.4784 64.143 86.3678 63.6121 86.3678C62.9707 86.3678 62.4066 86.5559 61.92 86.9319C61.4334 87.3079 61.0574 87.8941 60.7919 88.6903C60.5265 89.4645 60.3938 90.4709 60.3938 91.7096C60.3938 92.9704 60.5376 94.0099 60.8251 94.8283C61.1127 95.6246 61.5219 96.2108 62.0527 96.5868C62.5836 96.9407 63.2029 97.1177 63.9107 97.1177C64.8397 97.1177 65.5475 96.8633 66.0341 96.3546C66.5429 95.8458 67.0295 95.1933 67.494 94.397C67.5382 94.3086 67.6046 94.2533 67.6931 94.2311C67.7815 94.1869 67.9253 94.1869 68.1244 94.2311L70.9114 94.8283C71.1989 94.8947 71.2874 95.127 71.1768 95.5251C71.0441 95.9675 70.8008 96.4983 70.4469 97.1177C70.093 97.7149 69.6063 98.301 68.987 98.8761C68.3898 99.4291 67.6267 99.8936 66.6977 100.27C65.7908 100.646 64.707 100.834 63.4462 100.834C61.6988 100.834 60.1394 100.458 58.7681 99.7056C57.4188 98.9314 56.3571 97.8697 55.5829 96.5204C54.8088 95.1491 54.4217 93.5676 54.4217 91.7759C54.4217 89.9401 54.8088 88.3364 55.5829 86.9651C56.3792 85.5937 57.452 84.5209 58.8012 83.7468C60.1726 82.9726 61.7209 82.5855 63.4462 82.5855ZM74.2867 100.502C73.778 100.502 73.5236 100.247 73.5236 99.7388V76.5802C73.5236 76.1157 73.7117 75.8835 74.0877 75.8835H78.7658C79.1419 75.8835 79.3299 76.0936 79.3299 76.5139V84.908C79.3299 85.0407 79.363 85.1181 79.4294 85.1402C79.4958 85.1624 79.5953 85.1292 79.728 85.0407C80.3916 84.4214 81.022 83.9348 81.6192 83.5809C82.2164 83.227 82.8025 82.9726 83.3776 82.8178C83.9748 82.6629 84.5831 82.5855 85.2024 82.5855C86.8614 82.5855 88.1443 83.0611 89.0511 84.0122C89.958 84.9412 90.4115 86.2683 90.4115 87.9936V99.606C90.4115 100.203 90.1018 100.502 89.4825 100.502H85.2024C84.937 100.502 84.749 100.447 84.6384 100.336C84.5499 100.225 84.5057 100.026 84.5057 99.7388V88.7235C84.5057 88.1042 84.3177 87.6286 83.9417 87.2968C83.5878 86.9651 83.0901 86.7992 82.4486 86.7992C82.0505 86.7992 81.6745 86.8655 81.3206 86.9982C80.9667 87.131 80.6349 87.3411 80.3252 87.6286C80.0377 87.8941 79.7391 88.2369 79.4294 88.6572V99.6392C79.4294 100.214 79.0976 100.502 78.434 100.502H74.2867ZM98.7587 93.3353C98.7587 94.0874 98.9246 94.7288 99.2564 95.2597C99.6103 95.7905 100.075 96.1997 100.65 96.4873C101.247 96.7527 101.911 96.8854 102.641 96.8854C103.304 96.8854 103.946 96.7416 104.565 96.4541C105.184 96.1444 105.848 95.6136 106.556 94.8615C106.644 94.7731 106.722 94.7288 106.788 94.7288C106.854 94.7067 106.987 94.7288 107.186 94.7952L109.907 95.9232C110.261 96.0781 110.305 96.3214 110.039 96.6532C109.265 97.737 108.48 98.5886 107.684 99.2079C106.91 99.8051 106.047 100.225 105.096 100.469C104.145 100.712 103.061 100.834 101.844 100.834C100.119 100.834 98.5596 100.458 97.1661 99.7056C95.7726 98.9535 94.6777 97.9139 93.8815 96.5868C93.0852 95.2597 92.687 93.7224 92.687 91.975C92.687 90.0949 93.0962 88.447 93.9146 87.0314C94.7552 85.6158 95.8611 84.5209 97.2325 83.7468C98.626 82.9726 100.13 82.5855 101.745 82.5855C103.47 82.5855 104.985 82.9615 106.29 83.7136C107.617 84.4435 108.657 85.5052 109.409 86.8987C110.183 88.2922 110.57 89.9843 110.57 91.975C110.57 92.2404 110.537 92.4395 110.471 92.5722C110.426 92.7049 110.272 92.7823 110.006 92.8045H99.2232C99.0905 92.8045 98.9799 92.8487 98.8914 92.9372C98.8029 93.0257 98.7587 93.1584 98.7587 93.3353ZM104.266 89.6857C104.488 89.6857 104.631 89.6636 104.698 89.6193C104.786 89.553 104.83 89.4203 104.83 89.2212C104.83 88.8009 104.731 88.3586 104.532 87.8941C104.333 87.4074 104.023 86.9872 103.603 86.6333C103.182 86.2794 102.652 86.1024 102.01 86.1024C101.413 86.1024 100.871 86.2462 100.384 86.5337C99.8978 86.7992 99.5218 87.1973 99.2564 87.7282C98.9909 88.259 98.8582 88.9005 98.8582 89.6525L104.266 89.6857ZM118.861 99.606C118.861 99.9378 118.773 100.17 118.596 100.303C118.441 100.436 118.198 100.502 117.866 100.502H113.719C113.166 100.502 112.889 100.247 112.889 99.7388L113.022 76.5802C113.022 76.1157 113.221 75.8835 113.619 75.8835H118.297C118.673 75.8835 118.861 76.0936 118.861 76.5139V99.606ZM130.387 100.834C128.595 100.834 127.014 100.447 125.643 99.6724C124.293 98.8982 123.232 97.8365 122.457 96.4873C121.705 95.1159 121.329 93.5565 121.329 91.8091C121.329 89.9511 121.728 88.3364 122.524 86.9651C123.32 85.5716 124.404 84.4988 125.775 83.7468C127.147 82.9726 128.695 82.5855 130.42 82.5855C132.234 82.5855 133.816 82.9836 135.165 83.7799C136.536 84.5762 137.598 85.6711 138.35 87.0646C139.124 88.436 139.511 90.0175 139.511 91.8091C139.511 93.5565 139.124 95.1159 138.35 96.4873C137.576 97.8365 136.503 98.8982 135.132 99.6724C133.782 100.447 132.201 100.834 130.387 100.834ZM130.42 96.9849C131.128 96.9849 131.714 96.7969 132.179 96.4209C132.643 96.0449 132.986 95.4587 133.207 94.6625C133.428 93.8662 133.539 92.8708 133.539 91.6764C133.539 90.4599 133.417 89.4534 133.174 88.6572C132.953 87.8609 132.61 87.2747 132.146 86.8987C131.703 86.5006 131.128 86.3015 130.42 86.3015C129.735 86.3015 129.148 86.5006 128.662 86.8987C128.197 87.2747 127.854 87.8609 127.633 88.6572C127.412 89.4534 127.301 90.4599 127.301 91.6764C127.301 92.8929 127.412 93.8994 127.633 94.6956C127.854 95.4698 128.197 96.0449 128.662 96.4209C129.148 96.7969 129.735 96.9849 130.42 96.9849ZM142.75 100.502C142.44 100.502 142.23 100.447 142.119 100.336C142.009 100.203 141.953 100.004 141.953 99.7388V83.614C141.953 83.1495 142.141 82.9173 142.517 82.9173H147.096C147.45 82.9173 147.627 83.1164 147.627 83.5145V85.4389C147.627 85.5937 147.682 85.6932 147.793 85.7375C147.926 85.7596 148.047 85.6932 148.158 85.5384C148.556 84.9633 149.031 84.4546 149.584 84.0122C150.137 83.5698 150.724 83.227 151.343 82.9836C151.962 82.7182 152.526 82.5855 153.035 82.5855C153.853 82.5855 154.263 82.7956 154.263 83.2159V87.6618C154.263 88.0821 154.064 88.248 153.665 88.1595C153.223 88.0489 152.747 87.9715 152.239 87.9272C151.752 87.8609 151.365 87.8277 151.077 87.8277C150.679 87.8277 150.292 87.9051 149.916 88.0599C149.54 88.1927 149.186 88.3807 148.855 88.624C148.545 88.8673 148.302 89.1438 148.125 89.4534C147.948 89.7631 147.859 90.0728 147.859 90.3824V99.6392C147.859 100.214 147.527 100.502 146.864 100.502H142.75ZM184.638 83.7136C184.638 85.3283 184.251 86.7107 183.477 87.8609C182.725 89.0111 181.675 89.8958 180.325 90.5152C178.976 91.1124 177.395 91.411 175.581 91.411H170.836C170.593 91.411 170.471 91.5216 170.471 91.7428V99.6392C170.471 100.214 170.14 100.502 169.476 100.502H164.532C164.245 100.502 164.046 100.447 163.935 100.336C163.825 100.203 163.769 100.004 163.769 99.7388V76.5802C163.769 76.1157 163.957 75.8835 164.333 75.8835H174.818C176.631 75.8835 178.279 76.171 179.761 76.7461C181.243 77.2991 182.427 78.1617 183.311 79.334C184.196 80.4842 184.638 81.9441 184.638 83.7136ZM177.804 83.614C177.804 82.9726 177.649 82.4307 177.339 81.9883C177.052 81.5459 176.654 81.2141 176.145 80.9929C175.636 80.7496 175.061 80.628 174.42 80.628H171.168C170.704 80.628 170.471 80.8492 170.471 81.2915V85.9697C170.471 86.4121 170.637 86.6333 170.969 86.6333H174.619C175.592 86.6333 176.366 86.3568 176.941 85.8038C177.516 85.2508 177.804 84.5209 177.804 83.614ZM195.89 98.9757C195.249 99.5065 194.519 99.9489 193.7 100.303C192.882 100.657 191.942 100.834 190.88 100.834C189.199 100.834 187.883 100.38 186.932 99.4733C186.003 98.5443 185.538 97.3831 185.538 95.9896C185.538 94.7067 185.937 93.5897 186.733 92.6386C187.529 91.6875 188.668 90.9465 190.15 90.4156C191.632 89.8848 193.391 89.6083 195.426 89.5862L196.122 89.553C196.211 89.553 196.31 89.5309 196.421 89.4866C196.554 89.4203 196.62 89.2875 196.62 89.0885V88.4581C196.62 87.7282 196.421 87.1641 196.023 86.766C195.625 86.3678 195.039 86.1688 194.264 86.1688C193.689 86.1688 193.125 86.3015 192.572 86.5669C192.041 86.8102 191.599 87.2637 191.245 87.9272C191.157 88.0821 191.068 88.1927 190.98 88.259C190.891 88.3033 190.714 88.3033 190.449 88.259L186.567 87.4627C186.434 87.4185 186.335 87.3411 186.268 87.2305C186.202 87.1199 186.235 86.8766 186.368 86.5006C186.921 85.1292 187.894 84.1338 189.288 83.5145C190.681 82.8952 192.428 82.5855 194.53 82.5855C196.476 82.5855 198.002 82.8178 199.108 83.2823C200.236 83.7468 201.033 84.3882 201.497 85.2066C201.984 86.025 202.227 86.9872 202.227 88.0931V99.6724C202.227 99.9821 202.183 100.203 202.094 100.336C202.006 100.447 201.818 100.502 201.53 100.502H197.549C197.284 100.502 197.096 100.402 196.985 100.203C196.874 99.9821 196.797 99.7388 196.753 99.4733L196.72 98.9757C196.653 98.5554 196.377 98.5554 195.89 98.9757ZM196.62 92.8708C196.62 92.4727 196.454 92.2847 196.122 92.3068L195.592 92.34C195.193 92.34 194.74 92.4063 194.231 92.539C193.745 92.6496 193.269 92.8266 192.805 93.0699C192.362 93.2911 191.997 93.5786 191.71 93.9325C191.422 94.2864 191.278 94.7067 191.278 95.1933C191.278 95.7684 191.477 96.2218 191.876 96.5536C192.274 96.8854 192.816 97.0513 193.501 97.0513C194.01 97.0513 194.441 96.9739 194.795 96.8191C195.171 96.6642 195.47 96.4873 195.691 96.2882C195.956 96.067 196.178 95.8458 196.355 95.6246C196.532 95.3813 196.62 95.1159 196.62 94.8283V92.8708ZM206.32 100.502C206.01 100.502 205.8 100.447 205.69 100.336C205.579 100.203 205.524 100.004 205.524 99.7388V83.614C205.524 83.1495 205.712 82.9173 206.088 82.9173H210.666C211.02 82.9173 211.197 83.1164 211.197 83.5145V85.4389C211.197 85.5937 211.253 85.6932 211.363 85.7375C211.496 85.7596 211.618 85.6932 211.728 85.5384C212.126 84.9633 212.602 84.4546 213.155 84.0122C213.708 83.5698 214.294 83.227 214.913 82.9836C215.533 82.7182 216.097 82.5855 216.605 82.5855C217.424 82.5855 217.833 82.7956 217.833 83.2159V87.6618C217.833 88.0821 217.634 88.248 217.236 88.1595C216.793 88.0489 216.318 87.9715 215.809 87.9272C215.322 87.8609 214.935 87.8277 214.648 87.8277C214.25 87.8277 213.863 87.9051 213.487 88.0599C213.111 88.1927 212.757 88.3807 212.425 88.624C212.115 88.8673 211.872 89.1438 211.695 89.4534C211.518 89.7631 211.43 90.0728 211.43 90.3824V99.6392C211.43 100.214 211.098 100.502 210.434 100.502H206.32ZM228.497 86.9319C228.231 86.9319 228.099 87.0646 228.099 87.33V94.4966C228.099 95.1601 228.276 95.6468 228.629 95.9564C229.005 96.2661 229.592 96.4209 230.388 96.4209H231.98C232.135 96.4209 232.257 96.4873 232.345 96.62C232.456 96.7306 232.511 96.8633 232.511 97.0181L232.478 99.407C232.478 99.8715 232.191 100.159 231.616 100.27C231.195 100.336 230.742 100.391 230.255 100.436C229.769 100.458 229.282 100.48 228.795 100.502C228.331 100.502 227.866 100.502 227.402 100.502C225.854 100.502 224.593 100.137 223.62 99.407C222.668 98.6549 222.193 97.5711 222.193 96.1555V87.4959C222.193 87.1199 222.038 86.9319 221.728 86.9319H219.937C219.45 86.9319 219.207 86.7107 219.207 86.2683V83.4813C219.207 83.1053 219.428 82.9173 219.87 82.9173H221.994C222.215 82.9173 222.337 82.7956 222.359 82.5523L222.856 77.5756C222.901 77.1553 223.089 76.9452 223.42 76.9452H227.667C228.065 76.9452 228.265 77.1664 228.265 77.6087V82.5523C228.265 82.7735 228.375 82.8841 228.596 82.8841H231.881C232.323 82.8841 232.545 83.0721 232.545 83.4481V86.2683C232.545 86.7107 232.29 86.9319 231.781 86.9319H228.497ZM236.866 105.976C236.18 105.976 235.693 105.932 235.406 105.844C235.118 105.777 234.975 105.6 234.975 105.313V102.327C234.975 102.172 235.041 102.028 235.174 101.895C235.306 101.785 235.55 101.729 235.904 101.729H238.193C238.591 101.729 238.956 101.652 239.288 101.497C239.62 101.342 239.885 101.154 240.084 100.933C240.283 100.712 240.416 100.469 240.482 100.203C240.571 99.9378 240.571 99.6835 240.482 99.4402L234.046 83.8131C233.979 83.5698 234.001 83.3597 234.112 83.1827C234.223 83.0058 234.399 82.9173 234.643 82.9173H239.553C239.752 82.9173 239.918 82.9836 240.051 83.1164C240.206 83.227 240.316 83.3597 240.383 83.5145L243.601 92.4063C243.667 92.6054 243.756 92.716 243.866 92.7381C243.977 92.7381 244.077 92.6275 244.165 92.4063L247.383 83.5145C247.472 83.3597 247.582 83.227 247.715 83.1164C247.848 82.9836 248.003 82.9173 248.18 82.9173H251.497C251.741 82.9173 251.907 83.0058 251.995 83.1827C252.106 83.3597 252.117 83.5587 252.028 83.7799L245.393 99.971C244.862 101.254 244.331 102.282 243.8 103.057C243.269 103.853 242.683 104.461 242.042 104.881C241.4 105.302 240.659 105.589 239.819 105.744C238.978 105.899 237.994 105.976 236.866 105.976Z" fill="white"/>
<line y1="117.574" x2="255" y2="117.574" stroke="white" stroke-width="2.84387"/>
</svg>
