<svg width="398" height="218" viewBox="0 0 398 218" fill="none" xmlns="http://www.w3.org/2000/svg">
<path d="M1.55 73.95C1.55 73.65 1.63333 73.4 1.8 73.2C1.96667 73 2.25 72.9 2.65 72.9H32C32.3667 72.9 32.6333 73 32.8 73.2C33 73.4 33.1 73.65 33.1 73.95V79.25C33.1 79.8167 32.7667 80.1 32.1 80.1H23C22.6 80.1 22.4 80.2667 22.4 80.6V109C22.4 109.667 22.1167 110 21.55 110H13.15C12.5833 110 12.3 109.683 12.3 109.05V80.8C12.3 80.3333 12.1333 80.1 11.8 80.1H2.6C1.9 80.1 1.55 79.8167 1.55 79.25V73.95ZM47.718 73.95C47.718 73.25 48.0013 72.9 48.568 72.9H74.718C75.2513 72.9 75.518 73.2167 75.518 73.85V79.05C75.518 79.85 75.118 80.25 74.318 80.25H58.868C58.168 80.25 57.818 80.55 57.818 81.15V86.8C57.818 87.4333 58.0846 87.75 58.618 87.75H68.368C69.0013 87.75 69.318 88.05 69.318 88.65V94.2C69.318 94.4 69.2513 94.5833 69.118 94.75C69.018 94.8833 68.818 94.95 68.518 94.95H58.568C58.068 94.95 57.818 95.1833 57.818 95.65V102C57.818 102.433 58.0013 102.65 58.368 102.65H75.018C75.6846 102.65 76.018 102.933 76.018 103.5V109C76.018 109.267 75.9346 109.5 75.768 109.7C75.6013 109.9 75.3346 110 74.968 110H48.918C48.118 110 47.718 109.617 47.718 108.85V73.95ZM90.0723 110C89.7389 110 89.4889 109.85 89.3223 109.55C89.1889 109.217 89.2056 108.817 89.3723 108.35L101.672 73.95C101.806 73.5833 101.972 73.3167 102.172 73.15C102.372 72.9833 102.672 72.9 103.072 72.9H111.772C112.606 72.9 113.172 73.3167 113.472 74.15L125.622 108.45C125.722 108.75 125.722 109.083 125.622 109.45C125.522 109.817 125.289 110 124.922 110H116.322C115.789 110 115.439 109.733 115.272 109.2L113.072 102.7C113.006 102.567 112.922 102.45 112.822 102.35C112.756 102.217 112.589 102.15 112.322 102.15H100.972C100.606 102.15 100.372 102.333 100.272 102.7L97.9223 109.3C97.8556 109.5 97.7389 109.667 97.5723 109.8C97.4056 109.933 97.1556 110 96.8223 110H90.0723ZM110.072 94.55C110.539 94.55 110.689 94.2333 110.522 93.6L106.922 83.55C106.856 83.3833 106.756 83.3 106.622 83.3C106.489 83.3 106.389 83.3833 106.322 83.55L102.672 93.6C102.439 94.2333 102.589 94.55 103.122 94.55H110.072ZM141.28 110C140.513 110 140.13 109.567 140.13 108.7V73.95C140.13 73.25 140.447 72.9 141.08 72.9H153.33C153.73 72.9 154.013 72.95 154.18 73.05C154.347 73.15 154.497 73.3833 154.63 73.75L160.93 92.05C161.03 92.3167 161.147 92.45 161.28 92.45C161.413 92.4167 161.53 92.2833 161.63 92.05L167.48 74.2C167.747 73.3333 168.163 72.9 168.73 72.9H181.38C181.947 72.9 182.23 73.2167 182.23 73.85V108.7C182.23 109.567 181.747 110 180.78 110H173.33C172.863 110 172.547 109.917 172.38 109.75C172.213 109.55 172.13 109.25 172.13 108.85V85.25C172.13 85.0167 172.063 84.9 171.93 84.9C171.797 84.9 171.68 85.0333 171.58 85.3L163.68 109.15C163.447 109.717 163.063 110 162.53 110H157.83C157.23 110 156.83 109.717 156.63 109.15L148.73 85.65C148.63 85.3167 148.513 85.1667 148.38 85.2C148.28 85.2333 148.23 85.4 148.23 85.7V109C148.23 109.4 148.163 109.667 148.03 109.8C147.897 109.933 147.613 110 147.18 110H141.28Z" fill="white"/>
<path d="M137.95 163.5C134.517 163.5 131.5 162.717 128.9 161.15C126.333 159.55 124.35 157.333 122.95 154.5C121.55 151.633 120.85 148.333 120.85 144.6C120.85 140.7 121.583 137.317 123.05 134.45C124.55 131.583 126.633 129.367 129.3 127.8C131.967 126.2 135.033 125.4 138.5 125.4C141.4 125.4 143.933 125.933 146.1 127C148.267 128.033 150.017 129.383 151.35 131.05C152.717 132.683 153.583 134.383 153.95 136.15C154.083 136.783 154.1 137.2 154 137.4C153.9 137.567 153.667 137.683 153.3 137.75L145.7 138.9C145.333 138.9 145.1 138.833 145 138.7C144.9 138.533 144.817 138.3 144.75 138C144.583 137 144.233 136.083 143.7 135.25C143.167 134.383 142.45 133.683 141.55 133.15C140.65 132.617 139.567 132.35 138.3 132.35C136.867 132.35 135.633 132.75 134.6 133.55C133.567 134.317 132.767 135.567 132.2 137.3C131.667 139.033 131.4 141.367 131.4 144.3C131.4 147.4 131.7 149.833 132.3 151.6C132.9 153.367 133.733 154.633 134.8 155.4C135.9 156.133 137.183 156.5 138.65 156.5C139.517 156.5 140.283 156.383 140.95 156.15C141.65 155.917 142.25 155.6 142.75 155.2C143.283 154.767 143.717 154.283 144.05 153.75C144.417 153.183 144.7 152.583 144.9 151.95L145 151C145.2 150.467 145.05 150.2 144.55 150.2H139.2C138.9 150.2 138.667 150.133 138.5 150C138.367 149.867 138.3 149.6 138.3 149.2V144.9C138.3 144.4 138.617 144.15 139.25 144.15L152.95 144.25C153.483 144.25 153.883 144.383 154.15 144.65C154.45 144.883 154.6 145.2 154.6 145.6V162.2C154.6 162.433 154.533 162.633 154.4 162.8C154.267 162.933 154.067 163 153.8 163H152.05C151.75 163 151.483 162.933 151.25 162.8C151.017 162.667 150.8 162.433 150.6 162.1L148.85 158.9C148.783 158.767 148.7 158.7 148.6 158.7C148.533 158.7 148.45 158.783 148.35 158.95C147.717 159.617 146.967 160.3 146.1 161C145.267 161.7 144.183 162.3 142.85 162.8C141.55 163.267 139.917 163.5 137.95 163.5ZM201.192 161.5C201.358 161.9 201.342 162.25 201.142 162.55C200.975 162.85 200.708 163 200.342 163H191.792C191.158 163 190.742 162.683 190.542 162.05L185.542 148.6C185.342 148.1 184.842 147.85 184.042 147.85H180.592C180.358 147.85 180.192 147.917 180.092 148.05C180.025 148.183 179.992 148.3 179.992 148.4V161.65C179.992 162.55 179.492 163 178.492 163H171.042C170.608 163 170.308 162.917 170.142 162.75C169.975 162.55 169.892 162.25 169.892 161.85V126.95C169.892 126.25 170.175 125.9 170.742 125.9H186.942C191.608 125.9 195.225 126.8 197.792 128.6C200.358 130.4 201.642 132.967 201.642 136.3C201.642 137.933 201.342 139.417 200.742 140.75C200.142 142.083 199.342 143.217 198.342 144.15C197.342 145.05 196.208 145.733 194.942 146.2C194.642 146.333 194.575 146.633 194.742 147.1L201.192 161.5ZM186.292 141.15C187.892 141.15 189.108 140.783 189.942 140.05C190.775 139.283 191.192 138.25 191.192 136.95C191.192 135.517 190.708 134.433 189.742 133.7C188.808 132.933 187.658 132.55 186.292 132.55H181.042C180.342 132.55 179.992 132.85 179.992 133.45V140.15C179.992 140.817 180.242 141.15 180.742 141.15H186.292ZM338.552 163C337.785 163 337.402 162.567 337.402 161.7V126.95C337.402 126.25 337.718 125.9 338.352 125.9H350.602C351.002 125.9 351.285 125.95 351.452 126.05C351.618 126.15 351.768 126.383 351.902 126.75L358.202 145.05C358.302 145.317 358.418 145.45 358.552 145.45C358.685 145.417 358.802 145.283 358.902 145.05L364.752 127.2C365.018 126.333 365.435 125.9 366.002 125.9H378.652C379.218 125.9 379.502 126.217 379.502 126.85V161.7C379.502 162.567 379.018 163 378.052 163H370.602C370.135 163 369.818 162.917 369.652 162.75C369.485 162.55 369.402 162.25 369.402 161.85V138.25C369.402 138.017 369.335 137.9 369.202 137.9C369.068 137.9 368.952 138.033 368.852 138.3L360.952 162.15C360.718 162.717 360.335 163 359.802 163H355.102C354.502 163 354.102 162.717 353.902 162.15L346.002 138.65C345.902 138.317 345.785 138.167 345.652 138.2C345.552 138.233 345.502 138.4 345.502 138.7V162C345.502 162.4 345.435 162.667 345.302 162.8C345.168 162.933 344.885 163 344.452 163H338.552Z" fill="white"/>
<path d="M324.72 77.1C321.505 69.6123 313.771 69.3378 303.32 70.8341C303.399 53.3803 306.34 36.7114 311.927 18.4959C314.525 11.9729 295.165 0.127598 268.003 0C240.84 0.127598 221.478 11.971 224.076 18.4939C229.63 36.5993 232.552 53.3842 232.656 70.8283C222.218 69.3378 214.495 69.6162 211.28 77.098C204.277 91.012 226.41 115.996 268.001 115.996C309.594 115.996 331.724 91.012 324.72 77.1ZM230.266 88.6263C230.266 88.6263 232.89 79.4528 232.47 74.6021C255.291 95.1415 280.714 95.1415 303.533 74.6021C303.62 79.5514 305.735 88.6263 305.735 88.6263C283.27 110.003 252.733 110.003 230.266 88.6263Z" fill="white"/>
<path d="M325.364 192.105C312.628 192.105 306.26 173 287.155 173C268.05 173 268.05 185.736 268.05 185.736C268.05 185.736 268.05 173 248.946 173C229.841 173 223.473 192.105 210.736 192.105C204.368 192.105 198 185.736 198 185.736C198 185.736 204.368 217.577 229.841 217.577C261.682 217.577 268.05 198.473 268.05 198.473C268.05 198.473 274.419 217.577 306.26 217.577C331.732 217.577 338.101 185.736 338.101 185.736C338.101 185.736 331.732 192.105 325.364 192.105Z" fill="white"/>
<path d="M238.008 124.02C236.28 124.132 234.837 124.261 234.055 124.364C226.337 125.421 220.889 128.274 218.088 132.743C217.254 134.066 216.489 135.982 216.016 137.933L215.784 138.879L214.598 138.922C213.43 138.965 213.413 138.965 213.206 139.205C213.009 139.437 213 139.48 213 140.984V142.531L213.249 142.806C213.498 143.081 213.516 143.09 214.358 143.115L215.209 143.15L215.269 144.619C215.458 149.629 216.962 153.857 219.755 157.226C220.545 158.18 222.384 159.942 223.312 160.638C225.341 162.159 227.231 163.122 229.457 163.766C238.248 166.327 247.401 162.211 256.141 151.769C261.615 145.229 264.021 139.136 263.041 134.264C262.998 134.04 263.024 134.006 263.454 133.817C264.511 133.353 265.714 133.138 267.227 133.138C268.92 133.147 270.604 133.55 271.609 134.195C272.237 134.599 272.22 134.565 272.116 135.613C271.867 138.062 272.623 141.216 274.205 144.379C276.895 149.732 282.652 156.315 287.938 160.062C292.973 163.629 298.284 165.09 303.406 164.316C307.488 163.706 311.063 161.85 314.191 158.73C315.867 157.063 316.959 155.55 317.93 153.574C319.27 150.832 319.941 148.065 320.052 144.748L320.104 143.141L321.298 143.115L322.502 143.09L322.751 142.806L323 142.531V140.975V139.42L322.751 139.171L322.502 138.922H321.032H319.571L319.485 138.595C319.442 138.423 319.339 138.028 319.27 137.718C319.055 136.747 318.463 135.054 318.016 134.135C316.228 130.379 313.152 127.784 308.382 126.005C305.933 125.086 303.105 124.51 299.152 124.132C297.691 123.986 292.458 123.986 290.988 124.123C288.178 124.398 286.167 124.682 284.44 125.051L283.469 125.257H267.673C252.153 125.257 251.861 125.257 251.062 125.086C249.266 124.699 246.842 124.355 244.453 124.14C243.439 124.046 238.859 123.96 238.008 124.02ZM277.281 127.475C275.202 128.901 273.809 130.431 273.027 132.132C272.89 132.442 272.77 132.708 272.752 132.725C272.744 132.743 272.434 132.605 272.065 132.416C270.862 131.797 269.727 131.497 268.129 131.368C266.273 131.222 264.193 131.531 262.741 132.167L262.431 132.304L262.079 131.668C261.297 130.242 259.999 128.824 258.641 127.913C258.263 127.655 257.954 127.423 257.945 127.38C257.945 127.346 262.345 127.32 267.725 127.329C276.946 127.329 277.488 127.337 277.281 127.475Z" fill="white"/>
</svg>
