<?xml version="1.0" encoding="utf-8"?>
<!-- Generator: Adobe Illustrator 25.4.1, SVG Export Plug-In . SVG Version: 6.00 Build 0)  -->
<svg version="1.1" id="Livello_1" xmlns="http://www.w3.org/2000/svg" xmlns:xlink="http://www.w3.org/1999/xlink" x="0px" y="0px"
	 viewBox="0 0 330.5026 693.512" style="enable-background:new 0 0 330.5026 693.512;" xml:space="preserve">
<style type="text/css">
	.st0{clip-path:url(#SVGID_00000177468080649118833200000007306285429288818058_);}
	.st1{fill:none;filter:url(#Adobe_OpacityMaskFilter);}
	.st2{mask:url(#mask0_2_136_00000129168451316158071230000000117441975560281486_);}
	.st3{fill:#1E1E1E;}
	.st4{fill:#FFFFFF;fill-opacity:0.9;}
	.st5{fill:none;stroke:#FFFFFF;stroke-width:1.0159;}
	.st6{fill:none;}
	.st7{clip-path:url(#SVGID_00000131344999583421390770000014473001321330163358_);}
	.st8{fill:none;filter:url(#Adobe_OpacityMaskFilter_00000135670059930398570120000013097958752700112030_);}
	.st9{mask:url(#mask1_2_136_00000134247968631861356070000005779439279637895093_);}
	.st10{fill:#FFFFFF;}
</style>
<g>
	<defs>
		<rect id="SVGID_1_" x="0.3386" y="0" width="330.502" height="346.756"/>
	</defs>
	<clipPath id="SVGID_00000136373676335446389110000016543511240934394752_">
		<use xlink:href="#SVGID_1_"  style="overflow:visible;"/>
	</clipPath>
	<g style="clip-path:url(#SVGID_00000136373676335446389110000016543511240934394752_);">
		<defs>
			<filter id="Adobe_OpacityMaskFilter" filterUnits="userSpaceOnUse" x="14.5398" y="7.1112" width="299.775" height="339.645">
				<feColorMatrix  type="matrix" values="1 0 0 0 0  0 1 0 0 0  0 0 1 0 0  0 0 0 1 0"/>
			</filter>
		</defs>
		
			<mask maskUnits="userSpaceOnUse" x="14.5398" y="7.1112" width="299.775" height="339.645" id="mask0_2_136_00000129168451316158071230000000117441975560281486_">
			<rect x="0.3386" y="0" class="st1" width="330.502" height="346.756"/>
		</mask>
		<g class="st2">
			<rect x="14.5398" y="7.1112" class="st3" width="299.775" height="339.645"/>
		</g>
		<g>
			<path class="st4" d="M142.9016,241.494c0.022,0.036,0.022,0.074,0,0.115c-0.018,0.04-0.057,0.061-0.115,0.061h-1.03
				c-0.054,0-0.097-0.014-0.128-0.041c-0.032-0.027-0.057-0.065-0.075-0.115l-0.589-1.28c-0.018-0.041-0.036-0.063-0.054-0.068
				c-0.018-0.009-0.046,0.005-0.082,0.041l-0.399,0.379c-0.018,0.018-0.032,0.041-0.041,0.068c-0.009,0.027-0.013,0.065-0.013,0.115
				v0.718c0,0.068-0.016,0.115-0.048,0.142c-0.031,0.027-0.083,0.041-0.156,0.041h-0.833c-0.067,0-0.112-0.011-0.135-0.034
				c-0.023-0.027-0.034-0.068-0.034-0.122v-4.727c0-0.095,0.038-0.142,0.115-0.142h0.975c0.077,0,0.116,0.042,0.116,0.128v2.655
				c0,0.023,0.004,0.041,0.013,0.054c0.014,0.009,0.034-0.002,0.061-0.034l1.145-1.259c0.072-0.073,0.137-0.109,0.196-0.109h0.833
				c0.068,0,0.108,0.021,0.122,0.061c0.014,0.036,0,0.077-0.041,0.122l-0.914,0.914c-0.027,0.032-0.043,0.061-0.047,0.089
				c-0.005,0.027,0.009,0.07,0.04,0.128L142.9016,241.494z M144.1356,240.207c0,0.153,0.034,0.284,0.102,0.393
				c0.072,0.108,0.167,0.192,0.284,0.25c0.122,0.054,0.257,0.082,0.406,0.082c0.136,0,0.267-0.03,0.393-0.088
				c0.127-0.064,0.262-0.172,0.407-0.326c0.018-0.018,0.033-0.027,0.047-0.027c0.014-0.004,0.041,0,0.081,0.014l0.556,0.23
				c0.072,0.032,0.081,0.081,0.027,0.149c-0.158,0.221-0.319,0.395-0.481,0.522c-0.158,0.122-0.334,0.207-0.528,0.257
				c-0.195,0.05-0.416,0.075-0.664,0.075c-0.352,0-0.671-0.077-0.955-0.231c-0.285-0.153-0.508-0.365-0.671-0.636
				c-0.162-0.271-0.243-0.585-0.243-0.942c0-0.384,0.083-0.72,0.25-1.009c0.172-0.289,0.398-0.512,0.677-0.67
				c0.285-0.158,0.592-0.237,0.922-0.237c0.352,0,0.661,0.076,0.927,0.23c0.271,0.149,0.483,0.366,0.637,0.65
				c0.158,0.284,0.237,0.63,0.237,1.036c0,0.054-0.007,0.095-0.02,0.122c-0.009,0.027-0.041,0.043-0.095,0.048h-2.201
				c-0.027,0-0.05,0.009-0.068,0.027C144.1446,240.144,144.1356,240.171,144.1356,240.207z M145.2596,239.462
				c0.045,0,0.075-0.005,0.088-0.014c0.018-0.013,0.027-0.04,0.027-0.081c0-0.086-0.02-0.176-0.061-0.271
				c-0.04-0.099-0.103-0.185-0.189-0.257c-0.086-0.072-0.194-0.109-0.325-0.109c-0.122,0-0.233,0.03-0.332,0.089
				c-0.099,0.054-0.176,0.135-0.23,0.243c-0.055,0.109-0.082,0.24-0.082,0.393L145.2596,239.462z M150.2276,238.08
				c0.05,0,0.084,0.018,0.102,0.055c0.018,0.036,0.018,0.076,0,0.121l-1.328,3.258c-0.04,0.104-0.117,0.156-0.23,0.156h-0.562
				c-0.117,0-0.196-0.052-0.237-0.156l-1.327-3.258c-0.014-0.045-0.009-0.085,0.013-0.121c0.023-0.037,0.059-0.055,0.108-0.055
				h1.003c0.04,0,0.074,0.014,0.101,0.041c0.032,0.023,0.055,0.05,0.068,0.081l0.684,1.775c0.027,0.085,0.061,0.083,0.102-0.007
				l0.663-1.768c0.019-0.031,0.041-0.058,0.068-0.081c0.027-0.027,0.059-0.041,0.095-0.041H150.2276z M151.9956,241.487
				c0,0.068-0.016,0.115-0.047,0.142c-0.032,0.027-0.084,0.041-0.156,0.041h-0.84c-0.063,0-0.106-0.011-0.129-0.034
				c-0.022-0.027-0.034-0.068-0.034-0.122v-3.291c0-0.095,0.041-0.143,0.122-0.143h0.969c0.077,0,0.115,0.043,0.115,0.129V241.487z
				 M152.0026,237.532c0,0.122-0.07,0.183-0.21,0.183h-0.847c-0.063,0-0.106-0.014-0.128-0.041
				c-0.023-0.027-0.034-0.068-0.034-0.122v-0.758c0-0.1,0.04-0.149,0.122-0.149h0.975c0.081,0,0.122,0.045,0.122,0.135V237.532z
				 M152.8106,241.67c-0.108,0-0.162-0.052-0.162-0.156v-3.291c0-0.095,0.038-0.143,0.115-0.143h0.962
				c0.077,0,0.115,0.041,0.115,0.122v0.325c0,0.027,0.007,0.045,0.02,0.054c0.014,0.005,0.034-0.004,0.061-0.027
				c0.104-0.108,0.215-0.203,0.332-0.284c0.117-0.081,0.239-0.145,0.366-0.19c0.131-0.045,0.268-0.067,0.413-0.067
				c0.32,0,0.578,0.099,0.772,0.298c0.199,0.194,0.298,0.456,0.298,0.785v2.391c0,0.122-0.063,0.183-0.19,0.183h-0.873
				c-0.055,0-0.093-0.011-0.115-0.034c-0.019-0.023-0.028-0.063-0.028-0.122v-2.248c0-0.127-0.038-0.224-0.115-0.292
				c-0.072-0.067-0.176-0.101-0.311-0.101c-0.082,0-0.158,0.013-0.231,0.04c-0.067,0.027-0.133,0.07-0.196,0.129
				c-0.063,0.054-0.126,0.124-0.19,0.21v2.242c0,0.117-0.067,0.176-0.203,0.176H152.8106z M156.8786,241.67
				c-0.068,0-0.113-0.011-0.135-0.034c-0.023-0.027-0.034-0.068-0.034-0.122v-4.727c0-0.095,0.04-0.142,0.122-0.142h0.968
				c0.077,0,0.115,0.045,0.115,0.135v1.544c0,0.054,0.012,0.084,0.034,0.088c0.027,0.005,0.057-0.007,0.088-0.034
				c0.086-0.081,0.174-0.146,0.264-0.196c0.095-0.054,0.195-0.095,0.298-0.122c0.109-0.032,0.222-0.047,0.339-0.047
				c0.303,0,0.558,0.076,0.765,0.23c0.208,0.149,0.366,0.361,0.474,0.636c0.113,0.276,0.17,0.599,0.17,0.969
				c0,0.573-0.133,1.032-0.4,1.375c-0.266,0.343-0.646,0.515-1.138,0.515c-0.153,0-0.298-0.025-0.433-0.075
				c-0.131-0.05-0.251-0.117-0.359-0.203c-0.104-0.086-0.196-0.179-0.278-0.278c-0.018-0.022-0.034-0.031-0.047-0.027
				c-0.014,0.005-0.025,0.02-0.034,0.047l-0.095,0.319c-0.027,0.099-0.083,0.149-0.169,0.149H156.8786z M157.9146,240.424
				c0,0.122,0.025,0.228,0.075,0.318c0.05,0.09,0.117,0.16,0.203,0.21c0.09,0.045,0.187,0.068,0.291,0.068
				c0.136,0,0.251-0.036,0.346-0.109c0.094-0.076,0.167-0.198,0.216-0.365c0.055-0.172,0.082-0.396,0.082-0.671
				c0-0.406-0.055-0.693-0.163-0.86c-0.104-0.172-0.255-0.257-0.454-0.257c-0.122,0-0.232,0.029-0.332,0.088
				c-0.099,0.058-0.187,0.135-0.264,0.23V240.424z M162.7456,241.358c-0.131,0.109-0.28,0.199-0.447,0.271
				c-0.167,0.072-0.359,0.109-0.576,0.109c-0.343,0-0.611-0.093-0.806-0.278c-0.189-0.19-0.284-0.427-0.284-0.711
				c0-0.262,0.081-0.49,0.244-0.684c0.162-0.194,0.395-0.346,0.697-0.454c0.303-0.108,0.662-0.165,1.077-0.169l0.143-0.007
				c0.018,0,0.038-0.005,0.06-0.014c0.028-0.013,0.041-0.04,0.041-0.081v-0.129c0-0.149-0.041-0.264-0.122-0.345
				c-0.081-0.081-0.201-0.122-0.359-0.122c-0.117,0-0.232,0.027-0.345,0.081c-0.109,0.05-0.199,0.143-0.271,0.278
				c-0.018,0.032-0.036,0.054-0.054,0.068c-0.018,0.009-0.054,0.009-0.109,0l-0.792-0.163c-0.027-0.009-0.047-0.025-0.061-0.047
				c-0.014-0.023-0.007-0.072,0.02-0.149c0.113-0.28,0.312-0.483,0.596-0.61c0.285-0.126,0.641-0.189,1.07-0.189
				c0.398,0,0.709,0.047,0.935,0.142c0.23,0.095,0.393,0.226,0.488,0.393c0.099,0.167,0.149,0.363,0.149,0.589v2.363
				c0,0.064-0.009,0.109-0.027,0.136c-0.018,0.023-0.057,0.034-0.116,0.034h-0.812c-0.054,0-0.093-0.021-0.115-0.061
				c-0.023-0.045-0.039-0.095-0.048-0.149l-0.007-0.102C162.9016,241.272,162.8446,241.272,162.7456,241.358z M162.8946,240.112
				c0-0.081-0.034-0.12-0.101-0.115l-0.109,0.007c-0.081,0-0.174,0.013-0.278,0.04c-0.099,0.023-0.196,0.059-0.291,0.109
				c-0.09,0.045-0.165,0.104-0.223,0.176c-0.059,0.072-0.088,0.158-0.088,0.257c0,0.118,0.04,0.21,0.122,0.278
				c0.081,0.068,0.192,0.101,0.331,0.101c0.104,0,0.192-0.015,0.265-0.047c0.076-0.032,0.137-0.068,0.182-0.108
				c0.055-0.045,0.1-0.091,0.136-0.136c0.036-0.049,0.054-0.104,0.054-0.162V240.112z M166.4056,238.013
				c0.307,0,0.569,0.056,0.785,0.169c0.217,0.108,0.391,0.246,0.522,0.413c0.131,0.167,0.219,0.336,0.264,0.508
				c0.032,0.104-0.005,0.158-0.108,0.163l-0.82,0.054c-0.059,0.009-0.095-0.018-0.108-0.082c-0.027-0.072-0.059-0.142-0.095-0.21
				c-0.032-0.072-0.081-0.13-0.149-0.176c-0.063-0.045-0.149-0.067-0.257-0.067c-0.131,0-0.246,0.038-0.346,0.115
				c-0.099,0.077-0.176,0.196-0.23,0.359c-0.054,0.158-0.081,0.363-0.081,0.616c0,0.257,0.029,0.47,0.088,0.637
				c0.058,0.162,0.142,0.282,0.25,0.359c0.109,0.072,0.235,0.108,0.38,0.108c0.189,0,0.334-0.052,0.433-0.156
				c0.104-0.104,0.203-0.237,0.298-0.399c0.009-0.018,0.023-0.03,0.041-0.034c0.018-0.009,0.047-0.009,0.088,0l0.569,0.122
				c0.058,0.013,0.076,0.061,0.054,0.142c-0.027,0.09-0.077,0.199-0.149,0.325c-0.073,0.122-0.172,0.242-0.298,0.359
				c-0.122,0.113-0.278,0.208-0.468,0.284c-0.185,0.077-0.406,0.116-0.663,0.116c-0.357,0-0.675-0.077-0.955-0.231
				c-0.276-0.158-0.492-0.375-0.65-0.65c-0.158-0.28-0.237-0.603-0.237-0.968c0-0.375,0.079-0.702,0.237-0.982
				c0.162-0.28,0.381-0.499,0.657-0.657C165.7366,238.092,166.0536,238.013,166.4056,238.013z M168.6186,241.67
				c-0.104,0-0.156-0.052-0.156-0.156v-4.727c0-0.095,0.038-0.142,0.115-0.142h0.955c0.077,0,0.115,0.042,0.115,0.128v1.714
				c0,0.027,0.007,0.043,0.02,0.047c0.014,0.005,0.034-0.002,0.061-0.02c0.136-0.127,0.264-0.226,0.386-0.298
				c0.122-0.072,0.242-0.124,0.359-0.156c0.122-0.032,0.246-0.047,0.373-0.047c0.338,0,0.6,0.097,0.785,0.291
				c0.185,0.189,0.278,0.46,0.278,0.813v2.37c0,0.122-0.063,0.183-0.19,0.183h-0.873c-0.054,0-0.093-0.011-0.115-0.034
				c-0.018-0.023-0.027-0.063-0.027-0.122v-2.248c0-0.127-0.039-0.224-0.116-0.292c-0.072-0.067-0.173-0.101-0.304-0.101
				c-0.082,0-0.158,0.013-0.231,0.04c-0.072,0.027-0.14,0.07-0.203,0.129c-0.059,0.054-0.119,0.124-0.183,0.21v2.242
				c0,0.117-0.067,0.176-0.203,0.176H168.6186z M173.6136,240.207c0,0.153,0.034,0.284,0.101,0.393
				c0.073,0.108,0.168,0.192,0.285,0.25c0.122,0.054,0.257,0.082,0.406,0.082c0.136,0,0.267-0.03,0.393-0.088
				c0.127-0.064,0.262-0.172,0.406-0.326c0.019-0.018,0.034-0.027,0.048-0.027c0.013-0.004,0.041,0,0.081,0.014l0.555,0.23
				c0.073,0.032,0.082,0.081,0.028,0.149c-0.158,0.221-0.319,0.395-0.481,0.522c-0.158,0.122-0.334,0.207-0.529,0.257
				c-0.194,0.05-0.415,0.075-0.663,0.075c-0.352,0-0.671-0.077-0.955-0.231c-0.285-0.153-0.508-0.365-0.671-0.636
				c-0.162-0.271-0.243-0.585-0.243-0.942c0-0.384,0.083-0.72,0.25-1.009c0.172-0.289,0.397-0.512,0.677-0.67
				c0.285-0.158,0.592-0.237,0.921-0.237c0.353,0,0.662,0.076,0.928,0.23c0.271,0.149,0.483,0.366,0.637,0.65
				c0.158,0.284,0.237,0.63,0.237,1.036c0,0.054-0.007,0.095-0.02,0.122c-0.009,0.027-0.041,0.043-0.095,0.048h-2.201
				c-0.027,0-0.05,0.009-0.068,0.027C173.6226,240.144,173.6136,240.171,173.6136,240.207z M174.7376,239.462
				c0.045,0,0.075-0.005,0.088-0.014c0.018-0.013,0.027-0.04,0.027-0.081c0-0.086-0.02-0.176-0.061-0.271
				c-0.04-0.099-0.104-0.185-0.189-0.257c-0.086-0.072-0.194-0.109-0.325-0.109c-0.122,0-0.233,0.03-0.332,0.089
				c-0.1,0.054-0.176,0.135-0.231,0.243c-0.054,0.109-0.081,0.24-0.081,0.393L174.7376,239.462z M177.7166,241.487
				c0,0.068-0.018,0.115-0.054,0.142c-0.031,0.027-0.081,0.041-0.149,0.041h-0.846c-0.113,0-0.17-0.052-0.17-0.156l0.027-4.727
				c0-0.095,0.041-0.142,0.122-0.142h0.955c0.077,0,0.115,0.042,0.115,0.128V241.487z M180.0696,241.738
				c-0.366,0-0.688-0.079-0.968-0.238c-0.276-0.158-0.493-0.374-0.651-0.65c-0.153-0.28-0.23-0.598-0.23-0.955
				c0-0.379,0.081-0.708,0.244-0.988c0.163-0.285,0.384-0.504,0.664-0.657c0.28-0.158,0.596-0.237,0.948-0.237
				c0.37,0,0.693,0.081,0.968,0.243c0.28,0.163,0.497,0.386,0.651,0.671c0.158,0.28,0.237,0.603,0.237,0.968
				c0,0.357-0.079,0.675-0.237,0.955c-0.159,0.276-0.378,0.492-0.657,0.65C180.7626,241.659,180.4396,241.738,180.0696,241.738z
				 M180.0766,240.952c0.144,0,0.264-0.038,0.359-0.115c0.095-0.077,0.165-0.197,0.21-0.359c0.045-0.163,0.067-0.366,0.067-0.61
				c0-0.248-0.024-0.453-0.074-0.616c-0.045-0.163-0.115-0.282-0.21-0.359c-0.09-0.081-0.208-0.122-0.352-0.122
				c-0.14,0-0.26,0.041-0.359,0.122c-0.095,0.077-0.165,0.196-0.21,0.359c-0.045,0.163-0.068,0.368-0.068,0.616
				c0,0.249,0.023,0.454,0.068,0.617c0.045,0.158,0.115,0.275,0.21,0.352C179.8166,240.914,179.9366,240.952,180.0766,240.952z
				 M182.5936,241.67c-0.064,0-0.106-0.011-0.129-0.034c-0.023-0.027-0.034-0.068-0.034-0.122v-3.291
				c0-0.095,0.038-0.143,0.115-0.143h0.935c0.072,0,0.108,0.041,0.108,0.122v0.393c0,0.032,0.011,0.052,0.034,0.061
				c0.027,0.005,0.052-0.009,0.075-0.041c0.081-0.117,0.178-0.221,0.291-0.311c0.113-0.09,0.232-0.16,0.359-0.21
				c0.126-0.054,0.241-0.081,0.345-0.081c0.167,0,0.251,0.042,0.251,0.128v0.908c0,0.086-0.041,0.119-0.122,0.101
				c-0.091-0.022-0.188-0.038-0.291-0.047c-0.1-0.014-0.179-0.02-0.237-0.02c-0.082,0-0.161,0.015-0.238,0.047
				c-0.076,0.027-0.149,0.066-0.216,0.115c-0.063,0.05-0.113,0.106-0.149,0.17c-0.036,0.063-0.054,0.126-0.054,0.189v1.89
				c0,0.117-0.068,0.176-0.204,0.176H182.5936z M186.0166,241.487c0,0.122-0.067,0.183-0.203,0.183h-0.907
				c-0.113,0-0.17-0.052-0.17-0.156v-0.955c0-0.09,0.039-0.135,0.116-0.135h1.056c0.072,0,0.108,0.04,0.108,0.122V241.487z
				 M187.6666,238.08c0.104,0,0.156,0.05,0.156,0.149v0.17c0,0.031,0.011,0.047,0.034,0.047c0.023,0,0.045-0.009,0.068-0.027
				c0.081-0.077,0.167-0.145,0.257-0.203c0.09-0.063,0.192-0.113,0.305-0.149c0.117-0.036,0.253-0.054,0.406-0.054
				c0.258,0,0.488,0.067,0.691,0.203c0.203,0.131,0.366,0.332,0.488,0.603c0.122,0.27,0.183,0.616,0.183,1.036
				c0,0.447-0.064,0.81-0.19,1.09c-0.127,0.276-0.296,0.476-0.508,0.603c-0.212,0.126-0.449,0.19-0.711,0.19
				c-0.167,0-0.323-0.025-0.468-0.075c-0.139-0.054-0.279-0.144-0.419-0.271c-0.055-0.045-0.091-0.065-0.109-0.061
				c-0.018,0-0.027,0.032-0.027,0.095v1.233c0,0.085-0.038,0.128-0.115,0.128h-0.975c-0.077,0-0.115-0.045-0.115-0.135v-4.409
				c0-0.054,0.011-0.095,0.033-0.122c0.023-0.027,0.068-0.041,0.136-0.041H187.6666z M187.8226,240.688
				c0.072,0.095,0.151,0.169,0.237,0.223c0.09,0.054,0.197,0.082,0.318,0.082c0.136,0,0.251-0.037,0.346-0.109
				c0.099-0.072,0.176-0.192,0.23-0.359c0.054-0.171,0.081-0.406,0.081-0.704c0-0.276-0.027-0.49-0.081-0.644
				c-0.049-0.153-0.124-0.261-0.223-0.325c-0.095-0.063-0.21-0.094-0.346-0.094c-0.104,0-0.198,0.022-0.284,0.067
				c-0.086,0.041-0.154,0.095-0.203,0.163c-0.05,0.068-0.075,0.142-0.075,0.223V240.688z M192.6536,241.358
				c-0.131,0.109-0.28,0.199-0.447,0.271c-0.167,0.072-0.359,0.109-0.576,0.109c-0.343,0-0.612-0.093-0.806-0.278
				c-0.189-0.19-0.284-0.427-0.284-0.711c0-0.262,0.081-0.49,0.244-0.684c0.162-0.194,0.395-0.346,0.697-0.454
				c0.303-0.108,0.662-0.165,1.077-0.169l0.142-0.007c0.018,0,0.039-0.005,0.061-0.014c0.027-0.013,0.041-0.04,0.041-0.081v-0.129
				c0-0.149-0.041-0.264-0.122-0.345c-0.081-0.081-0.201-0.122-0.359-0.122c-0.117,0-0.232,0.027-0.345,0.081
				c-0.109,0.05-0.199,0.143-0.271,0.278c-0.018,0.032-0.036,0.054-0.054,0.068c-0.019,0.009-0.055,0.009-0.109,0l-0.792-0.163
				c-0.027-0.009-0.048-0.025-0.061-0.047c-0.014-0.023-0.007-0.072,0.02-0.149c0.113-0.28,0.312-0.483,0.596-0.61
				c0.285-0.126,0.641-0.189,1.07-0.189c0.398,0,0.709,0.047,0.935,0.142c0.23,0.095,0.393,0.226,0.487,0.393
				c0.1,0.167,0.149,0.363,0.149,0.589v2.363c0,0.064-0.009,0.109-0.027,0.136c-0.018,0.023-0.056,0.034-0.115,0.034h-0.812
				c-0.055,0-0.093-0.021-0.116-0.061c-0.022-0.045-0.038-0.095-0.047-0.149l-0.007-0.102
				C192.8096,241.272,192.7526,241.272,192.6536,241.358z M192.8026,240.112c0-0.081-0.034-0.12-0.102-0.115l-0.108,0.007
				c-0.081,0-0.174,0.013-0.278,0.04c-0.099,0.023-0.196,0.059-0.291,0.109c-0.09,0.045-0.165,0.104-0.223,0.176
				c-0.059,0.072-0.088,0.158-0.088,0.257c0,0.118,0.04,0.21,0.121,0.278c0.082,0.068,0.192,0.101,0.332,0.101
				c0.104,0,0.192-0.015,0.264-0.047c0.077-0.032,0.138-0.068,0.183-0.108c0.054-0.045,0.1-0.091,0.136-0.136
				c0.036-0.049,0.054-0.104,0.054-0.162V240.112z M194.7826,241.67c-0.063,0-0.106-0.011-0.129-0.034
				c-0.022-0.027-0.034-0.068-0.034-0.122v-3.291c0-0.095,0.039-0.143,0.116-0.143h0.934c0.072,0,0.108,0.041,0.108,0.122v0.393
				c0,0.032,0.012,0.052,0.034,0.061c0.027,0.005,0.052-0.009,0.075-0.041c0.081-0.117,0.178-0.221,0.291-0.311
				c0.113-0.09,0.233-0.16,0.359-0.21c0.126-0.054,0.242-0.081,0.345-0.081c0.167,0,0.251,0.042,0.251,0.128v0.908
				c0,0.086-0.041,0.119-0.122,0.101c-0.09-0.022-0.187-0.038-0.291-0.047c-0.099-0.014-0.178-0.02-0.237-0.02
				c-0.081,0-0.16,0.015-0.237,0.047c-0.077,0.027-0.149,0.066-0.217,0.115c-0.063,0.05-0.113,0.106-0.149,0.17
				c-0.036,0.063-0.054,0.126-0.054,0.189v1.89c0,0.117-0.068,0.176-0.203,0.176H194.7826z M199.3096,238.9
				c-0.054,0-0.082,0.027-0.082,0.081v1.463c0,0.135,0.037,0.235,0.109,0.298c0.077,0.063,0.196,0.095,0.359,0.095h0.325
				c0.031,0,0.056,0.013,0.074,0.04c0.023,0.023,0.034,0.05,0.034,0.082l-0.007,0.487c0,0.095-0.058,0.154-0.176,0.176
				c-0.085,0.014-0.178,0.025-0.277,0.034c-0.1,0.005-0.199,0.009-0.298,0.014c-0.095,0-0.19,0-0.285,0
				c-0.316,0-0.573-0.075-0.772-0.224c-0.194-0.153-0.291-0.374-0.291-0.663v-1.768c0-0.077-0.032-0.115-0.095-0.115h-0.366
				c-0.099,0-0.149-0.045-0.149-0.136v-0.569c0-0.076,0.046-0.115,0.136-0.115h0.433c0.045,0,0.07-0.025,0.075-0.074l0.101-1.016
				c0.009-0.086,0.048-0.129,0.116-0.129h0.866c0.082,0,0.122,0.045,0.122,0.136v1.009c0,0.045,0.023,0.068,0.068,0.068h0.671
				c0.09,0,0.135,0.038,0.135,0.115v0.575c0,0.091-0.052,0.136-0.156,0.136H199.3096z M201.0176,242.787
				c-0.14,0-0.239-0.009-0.298-0.027c-0.059-0.013-0.088-0.049-0.088-0.108v-0.61c0-0.031,0.014-0.061,0.041-0.088
				c0.027-0.022,0.076-0.034,0.149-0.034h0.467c0.081,0,0.156-0.015,0.223-0.047c0.068-0.032,0.122-0.07,0.163-0.115
				s0.068-0.095,0.081-0.149c0.018-0.054,0.018-0.106,0-0.156l-1.314-3.19c-0.013-0.049-0.009-0.092,0.014-0.128
				c0.023-0.037,0.059-0.055,0.108-0.055h1.003c0.04,0,0.074,0.014,0.101,0.041c0.032,0.023,0.054,0.05,0.068,0.081l0.657,1.815
				c0.013,0.041,0.032,0.063,0.054,0.068c0.023,0,0.043-0.023,0.061-0.068l0.657-1.815c0.018-0.031,0.041-0.058,0.068-0.081
				c0.027-0.027,0.058-0.041,0.095-0.041h0.677c0.049,0,0.083,0.018,0.101,0.055c0.023,0.036,0.025,0.076,0.007,0.121l-1.354,3.305
				c-0.109,0.262-0.217,0.472-0.325,0.63c-0.109,0.163-0.228,0.287-0.359,0.373c-0.131,0.086-0.283,0.144-0.454,0.176
				C201.4486,242.771,201.2476,242.787,201.0176,242.787z"/>
			<path class="st4" d="M133.2986,239.885c0.026-0.213,0.045-0.425,0.045-0.644c0-0.218-0.019-0.431-0.045-0.643h1.087
				c0.052,0.206,0.084,0.421,0.084,0.643s-0.032,0.438-0.084,0.644 M132.7296,241.673c0.193-0.357,0.341-0.743,0.443-1.145h0.949
				C133.8136,241.059,133.3206,241.471,132.7296,241.673z M132.6486,239.885h-1.505c-0.033-0.213-0.052-0.425-0.052-0.644
				c0-0.218,0.019-0.434,0.052-0.643h1.505c0.029,0.209,0.052,0.425,0.052,0.643C132.7006,239.46,132.6776,239.672,132.6486,239.885
				z M131.8956,241.802c-0.267-0.386-0.482-0.814-0.614-1.274h1.229C132.3786,240.988,132.1626,241.416,131.8956,241.802z
				 M130.6096,237.954h-0.94c0.306-0.534,0.801-0.945,1.39-1.145C130.8666,237.166,130.7216,237.552,130.6096,237.954z
				 M129.6696,240.528h0.94c0.112,0.402,0.257,0.788,0.45,1.145C130.4706,241.471,129.9756,241.059,129.6696,240.528z
				 M129.4056,239.885c-0.051-0.206-0.083-0.422-0.083-0.644s0.032-0.437,0.083-0.643h1.088c-0.026,0.212-0.045,0.425-0.045,0.643
				c0,0.219,0.019,0.431,0.045,0.644 M131.8956,236.677c0.267,0.386,0.483,0.817,0.615,1.277h-1.229
				C131.4136,237.494,131.6286,237.063,131.8956,236.677z M134.1216,237.954h-0.949c-0.102-0.402-0.25-0.788-0.443-1.145
				C133.3206,237.012,133.8136,237.42,134.1216,237.954z M131.8956,236.024c-1.779,0-3.217,1.448-3.217,3.217
				c0,0.853,0.339,1.672,0.943,2.275c0.603,0.603,1.421,0.942,2.274,0.942c0.854,0,1.672-0.339,2.275-0.942
				c0.603-0.603,0.942-1.422,0.942-2.275c0-0.422-0.083-0.841-0.245-1.231c-0.161-0.39-0.398-0.745-0.697-1.043
				c-0.299-0.299-0.653-0.536-1.044-0.698C132.7366,236.108,132.3186,236.024,131.8956,236.024z"/>
			<path class="st4" d="M135.8016,222.638c0.101,0,0.152,0.044,0.152,0.133v0.777c0,0.032-0.013,0.064-0.038,0.095
				c-0.026,0.032-0.067,0.048-0.124,0.048h-3.603c-0.101,0-0.151-0.045-0.151-0.133v-0.787c0-0.089,0.047-0.133,0.142-0.133h1.062
				c0.057,0,0.085-0.019,0.085-0.057v-4.409c0-0.082-0.038-0.113-0.114-0.094l-1.005,0.331c-0.12,0.032-0.18-0.019-0.18-0.151v-0.55
				c0-0.057,0.01-0.095,0.029-0.114c0.019-0.025,0.05-0.051,0.094-0.076l1.527-0.768c0.076-0.038,0.136-0.063,0.18-0.076
				c0.051-0.012,0.111-0.019,0.18-0.019h0.569c0.082,0,0.123,0.051,0.123,0.152v5.746c0,0.057,0.029,0.085,0.086,0.085H135.8016z
				 M141.5776,216.655c0.094,0,0.151,0.013,0.17,0.038c0.019,0.026,0.025,0.076,0.019,0.152l-0.038,0.796
				c-0.006,0.057-0.022,0.098-0.047,0.124c-0.019,0.019-0.067,0.028-0.142,0.028h-3.072c-0.095,0-0.143,0.041-0.143,0.123
				l-0.132,1.498c-0.007,0.051,0.003,0.089,0.028,0.114c0.032,0.019,0.063,0.019,0.095,0c0.246-0.095,0.474-0.174,0.683-0.237
				c0.208-0.069,0.458-0.104,0.749-0.104c0.455,0,0.869,0.082,1.242,0.246c0.373,0.158,0.67,0.402,0.891,0.731
				c0.227,0.322,0.341,0.733,0.341,1.232c0,0.5-0.12,0.929-0.36,1.29c-0.24,0.354-0.572,0.625-0.996,0.815
				c-0.417,0.19-0.9,0.285-1.45,0.285c-0.569,0-1.088-0.095-1.555-0.285c-0.468-0.196-0.838-0.465-1.11-0.806
				c-0.038-0.05-0.06-0.098-0.066-0.142c-0.006-0.044,0.019-0.089,0.076-0.133l0.654-0.474c0.076-0.057,0.149-0.044,0.218,0.038
				c0.158,0.152,0.313,0.291,0.465,0.417c0.151,0.12,0.319,0.215,0.502,0.285c0.184,0.069,0.402,0.104,0.655,0.104
				c0.335,0,0.619-0.057,0.853-0.171c0.24-0.12,0.42-0.281,0.54-0.483c0.127-0.209,0.19-0.443,0.19-0.702
				c0-0.259-0.06-0.48-0.18-0.664c-0.114-0.189-0.275-0.332-0.484-0.426c-0.208-0.101-0.449-0.152-0.72-0.152
				c-0.26,0-0.497,0.044-0.711,0.133c-0.215,0.088-0.433,0.189-0.655,0.303c-0.05,0.025-0.085,0.038-0.104,0.038
				c-0.019-0.006-0.057-0.022-0.114-0.047l-0.72-0.399c-0.064-0.038-0.098-0.072-0.105-0.104c0-0.031,0.003-0.088,0.01-0.171
				l0.265-3.1c0.007-0.076,0.026-0.126,0.057-0.152c0.038-0.025,0.117-0.038,0.237-0.038H141.5776z M145.7486,221.463
				c0,0.12-0.073,0.18-0.218,0.18h-2.2c-0.063,0-0.107-0.013-0.133-0.038c-0.025-0.026-0.038-0.067-0.038-0.124v-0.597
				c0-0.101,0.042-0.152,0.124-0.152h2.342c0.082,0,0.123,0.042,0.123,0.124V221.463z M150.4316,222.638
				c0.101,0,0.151,0.044,0.151,0.133v0.777c0,0.032-0.012,0.064-0.038,0.095c-0.025,0.032-0.066,0.048-0.123,0.048h-3.603
				c-0.101,0-0.151-0.045-0.151-0.133v-0.787c0-0.089,0.047-0.133,0.142-0.133h1.062c0.057,0,0.085-0.019,0.085-0.057v-4.409
				c0-0.082-0.038-0.113-0.114-0.094l-1.005,0.331c-0.12,0.032-0.18-0.019-0.18-0.151v-0.55c0-0.057,0.01-0.095,0.028-0.114
				c0.019-0.025,0.051-0.051,0.095-0.076l1.527-0.768c0.076-0.038,0.136-0.063,0.18-0.076c0.051-0.012,0.111-0.019,0.18-0.019h0.569
				c0.082,0,0.123,0.051,0.123,0.152v5.746c0,0.057,0.029,0.085,0.086,0.085H150.4316z M156.1686,216.655
				c0.076,0,0.133,0.019,0.171,0.057c0.038,0.032,0.054,0.07,0.047,0.114l-0.018,0.465c0,0.05-0.023,0.123-0.067,0.218
				c-0.044,0.088-0.088,0.17-0.133,0.246c-0.24,0.354-0.467,0.737-0.682,1.147c-0.215,0.411-0.414,0.832-0.598,1.262
				c-0.177,0.423-0.335,0.84-0.474,1.251c-0.139,0.405-0.256,0.781-0.35,1.128c-0.089,0.348-0.146,0.651-0.171,0.911
				c-0.013,0.158-0.073,0.237-0.18,0.237h-1.252c-0.133,0-0.18-0.07-0.142-0.209c0.095-0.354,0.212-0.73,0.351-1.128
				c0.139-0.398,0.306-0.828,0.502-1.29c0.203-0.461,0.443-0.951,0.721-1.469c0.284-0.519,0.613-1.072,0.986-1.66
				c0.025-0.044,0.035-0.079,0.028-0.104c-0.006-0.025-0.041-0.038-0.104-0.038h-3.366c-0.114,0-0.167-0.057-0.161-0.171
				l0.085-0.843c0.013-0.083,0.079-0.124,0.199-0.124H156.1686z M158.5426,223.492c0,0.132-0.079,0.199-0.237,0.199h-0.958
				c-0.126,0-0.19-0.057-0.19-0.171v-1.071c0-0.108,0.045-0.162,0.133-0.162h1.119c0.088,0,0.133,0.048,0.133,0.143V223.492z
				 M162.3286,216.551c0.404,0,0.777,0.085,1.119,0.256c0.341,0.164,0.638,0.405,0.891,0.721c0.259,0.316,0.458,0.698,0.597,1.147
				c0.139,0.449,0.209,0.954,0.209,1.517c0,0.746-0.123,1.387-0.37,1.925c-0.24,0.531-0.572,0.942-0.996,1.232
				c-0.423,0.285-0.91,0.427-1.46,0.427c-0.543,0-1.03-0.142-1.46-0.427c-0.43-0.29-0.768-0.701-1.014-1.232
				c-0.241-0.531-0.361-1.17-0.361-1.916c0-0.568,0.07-1.074,0.209-1.517c0.145-0.448,0.344-0.831,0.597-1.147
				c0.259-0.322,0.56-0.566,0.901-0.73C161.5386,216.636,161.9176,216.551,162.3286,216.551z M162.3186,222.771
				c0.304,0,0.56-0.085,0.768-0.256c0.209-0.177,0.367-0.452,0.474-0.825c0.108-0.379,0.162-0.875,0.162-1.489
				c0-0.632-0.057-1.14-0.171-1.526c-0.108-0.392-0.266-0.676-0.474-0.853c-0.209-0.184-0.462-0.275-0.759-0.275
				s-0.55,0.091-0.758,0.275c-0.209,0.177-0.37,0.461-0.484,0.853c-0.114,0.392-0.17,0.901-0.17,1.526c0,0.607,0.056,1.1,0.17,1.48
				c0.114,0.379,0.275,0.657,0.484,0.834C161.7686,222.686,162.0216,222.771,162.3186,222.771z M170.8726,216.655
				c0.076,0,0.133,0.019,0.171,0.057c0.038,0.032,0.054,0.07,0.047,0.114l-0.019,0.465c0,0.05-0.022,0.123-0.066,0.218
				c-0.044,0.088-0.088,0.17-0.133,0.246c-0.24,0.354-0.467,0.737-0.682,1.147c-0.215,0.411-0.414,0.832-0.598,1.262
				c-0.177,0.423-0.335,0.84-0.474,1.251c-0.139,0.405-0.256,0.781-0.351,1.128c-0.088,0.348-0.145,0.651-0.17,0.911
				c-0.013,0.158-0.073,0.237-0.18,0.237h-1.252c-0.133,0-0.18-0.07-0.142-0.209c0.095-0.354,0.212-0.73,0.351-1.128
				c0.139-0.398,0.306-0.828,0.502-1.29c0.202-0.461,0.443-0.951,0.721-1.469c0.284-0.519,0.613-1.072,0.986-1.66
				c0.025-0.044,0.035-0.079,0.028-0.104c-0.006-0.025-0.041-0.038-0.104-0.038h-3.366c-0.114,0-0.168-0.057-0.161-0.171
				l0.085-0.843c0.013-0.083,0.079-0.124,0.199-0.124H170.8726z M173.2466,223.492c0,0.132-0.079,0.199-0.237,0.199h-0.958
				c-0.126,0-0.19-0.057-0.19-0.171v-1.071c0-0.108,0.045-0.162,0.133-0.162h1.119c0.088,0,0.133,0.048,0.133,0.143V223.492z
				 M176.3116,220.676c0.291-0.26,0.528-0.484,0.711-0.674c0.19-0.189,0.338-0.36,0.446-0.512c0.114-0.151,0.193-0.294,0.237-0.426
				c0.044-0.139,0.066-0.285,0.066-0.436c0-0.222-0.057-0.408-0.17-0.56c-0.108-0.152-0.25-0.269-0.427-0.351
				c-0.171-0.082-0.364-0.123-0.578-0.123c-0.171,0-0.342,0.032-0.512,0.095c-0.171,0.063-0.339,0.167-0.503,0.313
				c-0.158,0.139-0.307,0.328-0.446,0.569c-0.019,0.038-0.05,0.06-0.094,0.066c-0.038,0.006-0.086-0.006-0.143-0.038l-0.701-0.37
				c-0.057-0.031-0.089-0.072-0.095-0.123c-0.006-0.051,0.009-0.101,0.047-0.152c0.31-0.48,0.68-0.831,1.11-1.052
				c0.436-0.228,0.913-0.341,1.431-0.341c0.468,0,0.885,0.082,1.252,0.246c0.367,0.158,0.657,0.392,0.872,0.702
				c0.215,0.309,0.323,0.686,0.323,1.128c0,0.265-0.048,0.515-0.143,0.749c-0.088,0.234-0.237,0.471-0.445,0.711
				c-0.209,0.24-0.487,0.506-0.835,0.797l-1.811,1.526c-0.038,0.025-0.057,0.051-0.057,0.076c0.007,0.025,0.045,0.038,0.114,0.038
				h3.082c0.107,0,0.161,0.044,0.161,0.133v0.872c0,0.044-0.013,0.082-0.038,0.114c-0.025,0.025-0.07,0.038-0.133,0.038h-4.75
				c-0.076,0-0.13-0.013-0.161-0.038c-0.025-0.026-0.038-0.073-0.038-0.142v-0.617c0-0.038,0.006-0.072,0.019-0.104
				c0.019-0.038,0.054-0.085,0.104-0.142c0.057-0.063,0.142-0.143,0.256-0.237L176.3116,220.676z M182.9856,216.551
				c0.405,0,0.778,0.085,1.119,0.256c0.342,0.164,0.639,0.405,0.892,0.721c0.259,0.316,0.458,0.698,0.597,1.147
				c0.139,0.449,0.208,0.954,0.208,1.517c0,0.746-0.123,1.387-0.369,1.925c-0.241,0.531-0.572,0.942-0.996,1.232
				c-0.423,0.285-0.91,0.427-1.46,0.427c-0.544,0-1.03-0.142-1.46-0.427c-0.43-0.29-0.768-0.701-1.015-1.232
				c-0.24-0.531-0.36-1.17-0.36-1.916c0-0.568,0.069-1.074,0.209-1.517c0.145-0.448,0.344-0.831,0.597-1.147
				c0.259-0.322,0.559-0.566,0.901-0.73C182.1956,216.636,182.5756,216.551,182.9856,216.551z M182.9766,222.771
				c0.303,0,0.559-0.085,0.768-0.256c0.209-0.177,0.367-0.452,0.474-0.825c0.108-0.379,0.161-0.875,0.161-1.489
				c0-0.632-0.057-1.14-0.17-1.526c-0.108-0.392-0.266-0.676-0.475-0.853c-0.208-0.184-0.461-0.275-0.758-0.275
				s-0.55,0.091-0.759,0.275c-0.208,0.177-0.369,0.461-0.483,0.853s-0.171,0.901-0.171,1.526c0,0.607,0.057,1.1,0.171,1.48
				c0.114,0.379,0.275,0.657,0.483,0.834C182.4266,222.686,182.6796,222.771,182.9766,222.771z M188.9136,220.676
				c0.291-0.26,0.528-0.484,0.711-0.674c0.19-0.189,0.338-0.36,0.446-0.512c0.114-0.151,0.193-0.294,0.237-0.426
				c0.044-0.139,0.066-0.285,0.066-0.436c0-0.222-0.057-0.408-0.17-0.56c-0.108-0.152-0.25-0.269-0.427-0.351
				c-0.171-0.082-0.364-0.123-0.578-0.123c-0.171,0-0.342,0.032-0.512,0.095c-0.171,0.063-0.339,0.167-0.503,0.313
				c-0.158,0.139-0.307,0.328-0.446,0.569c-0.019,0.038-0.05,0.06-0.094,0.066c-0.038,0.006-0.086-0.006-0.143-0.038l-0.701-0.37
				c-0.057-0.031-0.089-0.072-0.095-0.123c-0.006-0.051,0.009-0.101,0.047-0.152c0.31-0.48,0.68-0.831,1.11-1.052
				c0.436-0.228,0.913-0.341,1.431-0.341c0.468,0,0.885,0.082,1.252,0.246c0.367,0.158,0.657,0.392,0.872,0.702
				c0.215,0.309,0.323,0.686,0.323,1.128c0,0.265-0.048,0.515-0.143,0.749c-0.088,0.234-0.237,0.471-0.445,0.711
				c-0.209,0.24-0.487,0.506-0.835,0.797l-1.811,1.526c-0.038,0.025-0.057,0.051-0.057,0.076c0.007,0.025,0.045,0.038,0.114,0.038
				h3.082c0.107,0,0.161,0.044,0.161,0.133v0.872c0,0.044-0.013,0.082-0.038,0.114c-0.025,0.025-0.069,0.038-0.133,0.038h-4.75
				c-0.076,0-0.13-0.013-0.161-0.038c-0.025-0.026-0.038-0.073-0.038-0.142v-0.617c0-0.038,0.006-0.072,0.019-0.104
				c0.019-0.038,0.054-0.085,0.104-0.142c0.057-0.063,0.142-0.143,0.256-0.237L188.9136,220.676z M194.8676,220.676
				c0.291-0.26,0.528-0.484,0.711-0.674c0.19-0.189,0.338-0.36,0.446-0.512c0.113-0.151,0.192-0.294,0.237-0.426
				c0.044-0.139,0.066-0.285,0.066-0.436c0-0.222-0.057-0.408-0.171-0.56c-0.107-0.152-0.249-0.269-0.426-0.351
				c-0.171-0.082-0.364-0.123-0.579-0.123c-0.17,0-0.341,0.032-0.512,0.095c-0.17,0.063-0.338,0.167-0.502,0.313
				c-0.158,0.139-0.307,0.328-0.446,0.569c-0.019,0.038-0.05,0.06-0.095,0.066c-0.038,0.006-0.085-0.006-0.142-0.038l-0.702-0.37
				c-0.056-0.031-0.088-0.072-0.094-0.123c-0.007-0.051,0.009-0.101,0.047-0.152c0.31-0.48,0.68-0.831,1.109-1.052
				c0.437-0.228,0.914-0.341,1.432-0.341c0.468,0,0.885,0.082,1.252,0.246c0.366,0.158,0.657,0.392,0.872,0.702
				c0.215,0.309,0.322,0.686,0.322,1.128c0,0.265-0.047,0.515-0.142,0.749c-0.088,0.234-0.237,0.471-0.445,0.711
				c-0.209,0.24-0.487,0.506-0.835,0.797l-1.811,1.526c-0.038,0.025-0.057,0.051-0.057,0.076c0.007,0.025,0.045,0.038,0.114,0.038
				h3.082c0.107,0,0.161,0.044,0.161,0.133v0.872c0,0.044-0.013,0.082-0.038,0.114c-0.025,0.025-0.07,0.038-0.133,0.038h-4.75
				c-0.076,0-0.13-0.013-0.161-0.038c-0.026-0.026-0.038-0.073-0.038-0.142v-0.617c0-0.038,0.006-0.072,0.019-0.104
				c0.019-0.038,0.053-0.085,0.104-0.142c0.057-0.063,0.142-0.143,0.256-0.237L194.8676,220.676z"/>
			<path class="st4" d="M139.4246,189.021c0.088,0.161,0.11,0.308,0.066,0.44c-0.03,0.117-0.14,0.176-0.33,0.176h-3.83
				c-0.353,0-0.587-0.132-0.705-0.396l-3.103-6.493c-0.118-0.176-0.272-0.147-0.462,0.088l-1.739,2.179
				c-0.088,0.103-0.132,0.257-0.132,0.462v3.588c0,0.381-0.221,0.572-0.661,0.572h-3.257c-0.206,0-0.345-0.037-0.419-0.11
				c-0.073-0.088-0.11-0.22-0.11-0.396v-15.364c0-0.308,0.125-0.462,0.375-0.462h3.697c0.25,0,0.375,0.139,0.375,0.418v6.053
				c0,0.162,0.029,0.242,0.088,0.242c0.058,0,0.132-0.051,0.22-0.154l4.644-6.141c0.103-0.146,0.205-0.249,0.308-0.308
				c0.118-0.073,0.301-0.11,0.55-0.11h2.994c0.22,0,0.374,0.059,0.462,0.176c0.088,0.118,0.066,0.25-0.066,0.396l-3.896,4.667
				c-0.132,0.19-0.147,0.403-0.044,0.638L139.4246,189.021z M141.4446,173.767c0-0.308,0.125-0.462,0.374-0.462h11.512
				c0.235,0,0.352,0.139,0.352,0.418v2.289c0,0.353-0.176,0.529-0.528,0.529h-6.802c-0.308,0-0.462,0.132-0.462,0.396v2.487
				c0,0.279,0.118,0.418,0.352,0.418h4.293c0.278,0,0.418,0.132,0.418,0.397v2.443c0,0.088-0.03,0.168-0.088,0.242
				c-0.044,0.059-0.132,0.088-0.264,0.088h-4.381c-0.22,0-0.33,0.103-0.33,0.308v2.795c0,0.191,0.081,0.287,0.242,0.287h7.33
				c0.293,0,0.44,0.124,0.44,0.374v2.421c0,0.117-0.037,0.22-0.11,0.308s-0.191,0.132-0.352,0.132h-11.468
				c-0.352,0-0.528-0.169-0.528-0.506V173.767z M170.0166,173.305c0.161,0,0.279,0.059,0.352,0.176
				c0.074,0.118,0.088,0.25,0.044,0.396l-5.194,15.254c-0.103,0.337-0.353,0.506-0.749,0.506h-3.191
				c-0.411,0-0.661-0.169-0.749-0.506l-5.172-15.254c-0.059-0.146-0.052-0.278,0.022-0.396c0.073-0.117,0.191-0.176,0.352-0.176
				h3.742c0.264,0,0.433,0.139,0.506,0.418l3.258,10.367c0.088,0.235,0.168,0.228,0.242-0.022l3.125-10.345
				c0.059-0.279,0.228-0.418,0.507-0.418H170.0166z M176.4696,173.305c0.249,0,0.374,0.139,0.374,0.418v15.32
				c0,0.22-0.059,0.374-0.176,0.462c-0.103,0.088-0.264,0.132-0.484,0.132h-3.258c-0.205,0-0.345-0.037-0.418-0.11
				c-0.074-0.088-0.11-0.22-0.11-0.396v-15.364c0-0.308,0.125-0.462,0.374-0.462H176.4696z M193.2466,173.305
				c0.221,0,0.331,0.117,0.331,0.352v15.606c0,0.117-0.044,0.213-0.132,0.286c-0.089,0.059-0.199,0.088-0.331,0.088h-2.663
				c-0.103,0-0.198-0.015-0.286-0.044c-0.073-0.029-0.169-0.117-0.286-0.264l-6.515-8.98c-0.059-0.088-0.111-0.125-0.155-0.11
				c-0.044,0.014-0.066,0.058-0.066,0.132v8.826c0.015,0.293-0.146,0.44-0.484,0.44h-2.663c-0.323,0-0.484-0.139-0.484-0.418
				v-15.452c0-0.308,0.146-0.462,0.44-0.462h3.147c0.177,0,0.309,0.022,0.397,0.066c0.088,0.044,0.183,0.14,0.286,0.286l5.855,8.254
				c0.102,0.132,0.183,0.191,0.242,0.176c0.073-0.014,0.11-0.102,0.11-0.264v-8.1c0-0.279,0.147-0.418,0.44-0.418H193.2466z
				 M196.1916,180.172c-0.118,0-0.206-0.044-0.264-0.132c-0.044-0.102-0.052-0.205-0.022-0.308l0.946-2.201
				c0.073-0.191,0.095-0.33,0.066-0.418c-0.015-0.088-0.095-0.147-0.242-0.176l-0.374-0.044c-0.162-0.029-0.279-0.074-0.352-0.132
				c-0.074-0.059-0.11-0.169-0.11-0.33v-2.708c0-0.279,0.117-0.418,0.352-0.418h3.015c0.22,0,0.33,0.117,0.33,0.352v2.598
				c0,0.117-0.022,0.212-0.066,0.286l-2.113,3.235c-0.088,0.132-0.212,0.235-0.374,0.308c-0.147,0.059-0.293,0.088-0.44,0.088
				H196.1916z M207.6406,181.163c-0.235-0.279-0.543-0.528-0.925-0.748c-0.381-0.235-0.866-0.353-1.453-0.353
				c-0.454,0-0.843,0.088-1.166,0.265c-0.323,0.161-0.484,0.403-0.484,0.726c0,0.132,0.058,0.271,0.176,0.418
				c0.117,0.132,0.403,0.25,0.858,0.352l2.421,0.551c1.306,0.278,2.223,0.748,2.752,1.408c0.528,0.661,0.792,1.402,0.792,2.223
				c0,0.807-0.227,1.504-0.682,2.091c-0.455,0.573-1.093,1.013-1.915,1.321c-0.807,0.294-1.746,0.44-2.818,0.44
				c-1.364,0-2.509-0.235-3.433-0.704c-0.925-0.47-1.57-1.035-1.937-1.695c-0.059-0.117-0.088-0.227-0.088-0.33
				c0-0.117,0.044-0.206,0.132-0.264l1.717-0.881c0.176-0.073,0.308-0.102,0.396-0.088c0.088,0.015,0.161,0.059,0.22,0.132
				c0.191,0.235,0.404,0.463,0.638,0.683c0.235,0.205,0.543,0.381,0.925,0.528c0.381,0.132,0.866,0.191,1.452,0.176
				c0.353-0.015,0.675-0.059,0.969-0.132c0.293-0.073,0.521-0.183,0.682-0.33c0.176-0.147,0.264-0.33,0.264-0.55
				c0-0.191-0.08-0.36-0.242-0.507c-0.161-0.146-0.491-0.271-0.99-0.374l-2.245-0.44c-1.116-0.22-1.974-0.609-2.576-1.167
				c-0.587-0.557-0.887-1.306-0.902-2.245c0-0.748,0.198-1.416,0.594-2.003c0.396-0.601,0.976-1.071,1.739-1.408
				c0.778-0.338,1.71-0.507,2.796-0.507c1.159,0,2.149,0.213,2.971,0.639c0.836,0.41,1.423,0.895,1.761,1.452
				c0.073,0.103,0.125,0.213,0.154,0.33c0.044,0.118-0.007,0.206-0.154,0.265l-1.805,0.88c-0.132,0.059-0.242,0.073-0.33,0.044
				C207.8166,181.332,207.7286,181.266,207.6406,181.163z M124.9626,203.637c-0.072,0-0.131-0.024-0.178-0.071
				c-0.04-0.047-0.059-0.103-0.059-0.166v-8.273c0-0.086,0.023-0.154,0.071-0.201c0.047-0.055,0.11-0.083,0.189-0.083h3.39
				c1.185,0,2.09,0.198,2.714,0.593c0.632,0.387,0.948,0.96,0.948,1.718c0,0.427-0.114,0.79-0.343,1.09
				c-0.222,0.293-0.625,0.569-1.209,0.83c-0.016,0.008-0.024,0.024-0.024,0.048c0,0.015,0.008,0.027,0.024,0.035
				c0.64,0.221,1.094,0.498,1.363,0.83c0.268,0.324,0.403,0.746,0.403,1.268c0,0.806-0.309,1.406-0.925,1.801
				c-0.616,0.388-1.545,0.581-2.785,0.581H124.9626z M128.4826,202.037c0.426,0,0.746-0.099,0.96-0.296
				c0.213-0.206,0.32-0.451,0.32-0.735c0-0.205-0.052-0.383-0.154-0.533c-0.103-0.15-0.245-0.265-0.427-0.344
				c-0.182-0.079-0.391-0.119-0.628-0.119h-1.185c-0.166,0-0.249,0.079-0.249,0.237v1.553c0,0.158,0.059,0.237,0.177,0.237H128.4826
				z M128.5536,198.375c0.158,0,0.304-0.02,0.438-0.059c0.135-0.048,0.253-0.111,0.356-0.19c0.103-0.079,0.182-0.174,0.237-0.284
				c0.055-0.119,0.083-0.257,0.083-0.415c0-0.308-0.115-0.549-0.344-0.723c-0.229-0.174-0.517-0.261-0.865-0.261h-1.09
				c-0.166,0-0.249,0.071-0.249,0.213v1.47c0,0.166,0.059,0.249,0.177,0.249H128.5536z M136.5346,203.092
				c-0.229,0.19-0.489,0.348-0.782,0.474c-0.292,0.126-0.628,0.19-1.007,0.19c-0.601,0-1.071-0.162-1.411-0.486
				c-0.331-0.332-0.497-0.747-0.497-1.245c0-0.458,0.142-0.857,0.426-1.197c0.285-0.34,0.692-0.604,1.221-0.794
				c0.529-0.189,1.158-0.288,1.885-0.296l0.248-0.012c0.032,0,0.068-0.008,0.107-0.024c0.047-0.023,0.071-0.071,0.071-0.142v-0.225
				c0-0.261-0.071-0.462-0.213-0.605c-0.142-0.142-0.352-0.213-0.628-0.213c-0.206,0-0.407,0.048-0.605,0.142
				c-0.189,0.087-0.347,0.249-0.474,0.486c-0.031,0.056-0.063,0.095-0.095,0.119c-0.031,0.016-0.094,0.016-0.189,0l-1.387-0.285
				c-0.047-0.015-0.083-0.043-0.107-0.083c-0.023-0.039-0.011-0.126,0.036-0.26c0.197-0.49,0.545-0.846,1.043-1.067
				s1.122-0.332,1.873-0.332c0.695,0,1.24,0.083,1.635,0.249c0.403,0.166,0.688,0.395,0.853,0.687
				c0.174,0.293,0.261,0.636,0.261,1.032v4.136c0,0.11-0.016,0.189-0.047,0.237c-0.032,0.039-0.099,0.059-0.202,0.059h-1.422
				c-0.095,0-0.162-0.035-0.201-0.107c-0.04-0.079-0.068-0.165-0.083-0.26l-0.012-0.178
				C136.8076,202.942,136.7086,202.942,136.5346,203.092z M136.7956,200.911c0-0.142-0.059-0.209-0.178-0.201l-0.189,0.012
				c-0.142,0-0.304,0.023-0.486,0.071c-0.174,0.039-0.344,0.102-0.51,0.189c-0.158,0.079-0.288,0.182-0.391,0.308
				c-0.103,0.127-0.154,0.277-0.154,0.451c0,0.205,0.071,0.367,0.213,0.486c0.143,0.118,0.336,0.178,0.581,0.178
				c0.182,0,0.336-0.028,0.462-0.083c0.135-0.056,0.241-0.119,0.32-0.19c0.095-0.079,0.174-0.158,0.237-0.237
				c0.064-0.087,0.095-0.182,0.095-0.285V200.911z M142.9396,197.237c0.537,0,0.995,0.099,1.375,0.296
				c0.379,0.19,0.683,0.431,0.912,0.723c0.229,0.293,0.383,0.589,0.462,0.889c0.056,0.182-0.007,0.277-0.189,0.285l-1.434,0.095
				c-0.103,0.015-0.166-0.032-0.19-0.143c-0.047-0.126-0.103-0.249-0.166-0.367c-0.055-0.127-0.142-0.229-0.261-0.308
				c-0.11-0.079-0.26-0.119-0.45-0.119c-0.229,0-0.431,0.067-0.604,0.202c-0.174,0.134-0.309,0.343-0.403,0.628
				c-0.095,0.276-0.143,0.636-0.143,1.078c0,0.451,0.052,0.822,0.154,1.114c0.103,0.285,0.249,0.494,0.439,0.629
				c0.19,0.126,0.411,0.189,0.664,0.189c0.332,0,0.584-0.091,0.758-0.272c0.182-0.182,0.356-0.415,0.522-0.7
				c0.016-0.031,0.039-0.051,0.071-0.059c0.031-0.016,0.083-0.016,0.154,0l0.995,0.213c0.103,0.024,0.135,0.107,0.095,0.249
				c-0.047,0.158-0.134,0.348-0.26,0.569c-0.127,0.214-0.301,0.423-0.522,0.628c-0.213,0.198-0.486,0.364-0.818,0.498
				c-0.324,0.135-0.711,0.202-1.161,0.202c-0.624,0-1.181-0.135-1.671-0.403c-0.482-0.277-0.862-0.656-1.138-1.138
				c-0.277-0.49-0.415-1.055-0.415-1.695c0-0.656,0.138-1.229,0.415-1.718c0.284-0.49,0.668-0.874,1.15-1.15
				C141.7696,197.375,142.3226,197.237,142.9396,197.237z M146.8116,203.637c-0.181,0-0.272-0.091-0.272-0.272v-8.273
				c0-0.166,0.067-0.249,0.201-0.249h1.671c0.135,0,0.202,0.075,0.202,0.225v2.999c0,0.047,0.012,0.075,0.035,0.083
				c0.024,0.008,0.06-0.004,0.107-0.036c0.237-0.221,0.462-0.395,0.676-0.521c0.213-0.127,0.422-0.218,0.628-0.273
				c0.213-0.055,0.43-0.083,0.652-0.083c0.592,0,1.05,0.17,1.374,0.51c0.324,0.332,0.486,0.806,0.486,1.422v4.148
				c0,0.213-0.11,0.32-0.332,0.32h-1.528c-0.095,0-0.162-0.02-0.202-0.059c-0.032-0.04-0.047-0.111-0.047-0.213v-3.935
				c0-0.222-0.067-0.391-0.202-0.51c-0.126-0.118-0.304-0.178-0.533-0.178c-0.142,0-0.277,0.024-0.403,0.071
				c-0.127,0.048-0.245,0.123-0.356,0.226c-0.102,0.094-0.209,0.217-0.32,0.367v3.923c0,0.205-0.118,0.308-0.355,0.308H146.8116z
				 M155.5536,201.077c0,0.269,0.059,0.498,0.178,0.688c0.126,0.189,0.292,0.335,0.498,0.438c0.213,0.095,0.45,0.142,0.711,0.142
				c0.237,0,0.466-0.051,0.687-0.154c0.221-0.11,0.459-0.3,0.711-0.569c0.032-0.031,0.06-0.047,0.083-0.047
				c0.024-0.008,0.071,0,0.143,0.024l0.971,0.403c0.127,0.055,0.143,0.142,0.048,0.26c-0.277,0.387-0.557,0.692-0.842,0.913
				c-0.276,0.213-0.584,0.363-0.924,0.45s-0.727,0.131-1.162,0.131c-0.616,0-1.173-0.135-1.671-0.403
				c-0.498-0.269-0.889-0.64-1.173-1.114c-0.285-0.474-0.427-1.024-0.427-1.648c0-0.671,0.146-1.26,0.439-1.766
				c0.3-0.505,0.695-0.897,1.185-1.173c0.498-0.277,1.035-0.415,1.612-0.415c0.616,0,1.157,0.134,1.624,0.403
				c0.474,0.261,0.845,0.64,1.114,1.138c0.276,0.498,0.414,1.102,0.414,1.813c0,0.095-0.011,0.166-0.035,0.214
				c-0.016,0.047-0.071,0.075-0.166,0.082h-3.852c-0.047,0-0.087,0.016-0.118,0.048
				C155.5696,200.967,155.5536,201.014,155.5536,201.077z M157.5216,199.773c0.079,0,0.13-0.007,0.154-0.023
				c0.031-0.024,0.047-0.071,0.047-0.143c0-0.15-0.036-0.308-0.107-0.474c-0.071-0.173-0.181-0.324-0.331-0.45
				c-0.151-0.126-0.34-0.19-0.569-0.19c-0.214,0-0.407,0.052-0.581,0.154c-0.174,0.095-0.308,0.238-0.403,0.427
				c-0.095,0.19-0.142,0.419-0.142,0.688L157.5216,199.773z M162.7346,203.317c0,0.119-0.031,0.202-0.095,0.249
				c-0.055,0.047-0.142,0.071-0.26,0.071h-1.482c-0.197,0-0.296-0.091-0.296-0.272l0.047-8.273c0-0.166,0.071-0.249,0.214-0.249
				h1.671c0.134,0,0.201,0.075,0.201,0.225V203.317z M166.8516,203.756c-0.64,0-1.205-0.139-1.694-0.415
				c-0.482-0.277-0.862-0.656-1.138-1.138c-0.269-0.49-0.403-1.047-0.403-1.671c0-0.664,0.142-1.241,0.426-1.73
				c0.285-0.498,0.672-0.881,1.162-1.15c0.49-0.277,1.043-0.415,1.659-0.415c0.648,0,1.213,0.142,1.695,0.427
				c0.49,0.284,0.869,0.675,1.138,1.173c0.276,0.49,0.415,1.055,0.415,1.695c0,0.624-0.139,1.181-0.415,1.671
				c-0.277,0.482-0.66,0.861-1.15,1.138C168.0646,203.617,167.4996,203.756,166.8516,203.756z M166.8636,202.381
				c0.253,0,0.463-0.067,0.628-0.202c0.166-0.134,0.289-0.343,0.368-0.628c0.079-0.284,0.118-0.64,0.118-1.066
				c0-0.435-0.043-0.795-0.13-1.079c-0.079-0.284-0.201-0.494-0.367-0.628c-0.158-0.142-0.364-0.213-0.617-0.213
				c-0.245,0-0.454,0.071-0.628,0.213c-0.166,0.134-0.288,0.344-0.367,0.628c-0.079,0.284-0.119,0.644-0.119,1.079
				c0,0.434,0.04,0.794,0.119,1.078c0.079,0.277,0.201,0.482,0.367,0.616C166.4096,202.314,166.6186,202.381,166.8636,202.381z
				 M171.2686,203.637c-0.111,0-0.186-0.02-0.226-0.059c-0.039-0.048-0.059-0.119-0.059-0.213v-5.761
				c0-0.165,0.067-0.248,0.202-0.248h1.635c0.127,0,0.19,0.071,0.19,0.213v0.687c0,0.056,0.02,0.091,0.059,0.107
				c0.048,0.008,0.091-0.016,0.13-0.071c0.143-0.206,0.313-0.387,0.51-0.545c0.198-0.158,0.407-0.281,0.628-0.368
				c0.222-0.095,0.423-0.142,0.605-0.142c0.292,0,0.438,0.075,0.438,0.225v1.588c0,0.151-0.071,0.21-0.213,0.178
				c-0.158-0.039-0.328-0.067-0.51-0.083c-0.174-0.023-0.312-0.035-0.415-0.035c-0.142,0-0.28,0.027-0.414,0.083
				c-0.135,0.047-0.261,0.114-0.38,0.201c-0.11,0.087-0.197,0.186-0.26,0.296c-0.064,0.111-0.095,0.222-0.095,0.332v3.307
				c0,0.205-0.119,0.308-0.356,0.308H171.2686z M186.2316,197.64c0,0.577-0.138,1.071-0.415,1.482
				c-0.268,0.41-0.644,0.726-1.126,0.948c-0.482,0.213-1.047,0.32-1.694,0.32h-1.695c-0.087,0-0.131,0.039-0.131,0.118v2.821
				c0,0.205-0.118,0.308-0.355,0.308h-1.766c-0.103,0-0.174-0.02-0.214-0.059c-0.039-0.048-0.059-0.119-0.059-0.213v-8.273
				c0-0.166,0.067-0.249,0.202-0.249h3.745c0.648,0,1.236,0.103,1.766,0.308c0.529,0.198,0.952,0.506,1.268,0.925
				C186.0736,196.486,186.2316,197.008,186.2316,197.64z M183.7906,197.604c0-0.229-0.056-0.422-0.166-0.58
				c-0.103-0.158-0.245-0.277-0.427-0.356c-0.182-0.087-0.387-0.13-0.616-0.13h-1.162c-0.166,0-0.249,0.079-0.249,0.237v1.671
				c0,0.158,0.06,0.237,0.178,0.237h1.304c0.347,0,0.624-0.099,0.829-0.296C183.6876,198.189,183.7906,197.928,183.7906,197.604z
				 M190.2506,203.092c-0.229,0.19-0.489,0.348-0.782,0.474c-0.292,0.126-0.628,0.19-1.007,0.19c-0.601,0-1.071-0.162-1.411-0.486
				c-0.331-0.332-0.497-0.747-0.497-1.245c0-0.458,0.142-0.857,0.426-1.197c0.285-0.34,0.692-0.604,1.221-0.794
				c0.529-0.189,1.158-0.288,1.885-0.296l0.248-0.012c0.032,0,0.068-0.008,0.107-0.024c0.047-0.023,0.071-0.071,0.071-0.142v-0.225
				c0-0.261-0.071-0.462-0.213-0.605c-0.142-0.142-0.352-0.213-0.628-0.213c-0.206,0-0.407,0.048-0.605,0.142
				c-0.189,0.087-0.347,0.249-0.474,0.486c-0.031,0.056-0.063,0.095-0.095,0.119c-0.031,0.016-0.094,0.016-0.189,0l-1.387-0.285
				c-0.047-0.015-0.083-0.043-0.107-0.083c-0.023-0.039-0.011-0.126,0.036-0.26c0.197-0.49,0.545-0.846,1.043-1.067
				s1.122-0.332,1.873-0.332c0.695,0,1.24,0.083,1.635,0.249c0.403,0.166,0.688,0.395,0.853,0.687
				c0.174,0.293,0.261,0.636,0.261,1.032v4.136c0,0.11-0.016,0.189-0.047,0.237c-0.032,0.039-0.099,0.059-0.202,0.059h-1.422
				c-0.095,0-0.162-0.035-0.201-0.107c-0.04-0.079-0.068-0.165-0.083-0.26l-0.012-0.178
				C190.5236,202.942,190.4246,202.942,190.2506,203.092z M190.5116,200.911c0-0.142-0.059-0.209-0.178-0.201l-0.189,0.012
				c-0.142,0-0.304,0.023-0.486,0.071c-0.174,0.039-0.344,0.102-0.51,0.189c-0.158,0.079-0.288,0.182-0.391,0.308
				c-0.103,0.127-0.154,0.277-0.154,0.451c0,0.205,0.071,0.367,0.213,0.486c0.143,0.118,0.336,0.178,0.581,0.178
				c0.182,0,0.336-0.028,0.462-0.083c0.135-0.056,0.241-0.119,0.32-0.19c0.095-0.079,0.174-0.158,0.237-0.237
				c0.064-0.087,0.095-0.182,0.095-0.285V200.911z M193.9766,203.637c-0.11,0-0.185-0.02-0.225-0.059
				c-0.039-0.048-0.059-0.119-0.059-0.213v-5.761c0-0.165,0.067-0.248,0.201-0.248h1.636c0.126,0,0.189,0.071,0.189,0.213v0.687
				c0,0.056,0.02,0.091,0.06,0.107c0.047,0.008,0.091-0.016,0.13-0.071c0.142-0.206,0.312-0.387,0.51-0.545
				c0.197-0.158,0.407-0.281,0.628-0.368c0.221-0.095,0.423-0.142,0.604-0.142c0.293,0,0.439,0.075,0.439,0.225v1.588
				c0,0.151-0.071,0.21-0.213,0.178c-0.158-0.039-0.328-0.067-0.51-0.083c-0.174-0.023-0.312-0.035-0.415-0.035
				c-0.142,0-0.28,0.027-0.415,0.083c-0.134,0.047-0.26,0.114-0.379,0.201c-0.111,0.087-0.198,0.186-0.261,0.296
				c-0.063,0.111-0.095,0.222-0.095,0.332v3.307c0,0.205-0.118,0.308-0.355,0.308H193.9766z M201.8986,198.79
				c-0.095,0-0.142,0.047-0.142,0.142v2.56c0,0.237,0.063,0.411,0.19,0.521c0.134,0.111,0.343,0.166,0.628,0.166h0.569
				c0.055,0,0.098,0.024,0.13,0.071c0.04,0.04,0.059,0.087,0.059,0.143l-0.012,0.853c0,0.166-0.102,0.269-0.308,0.308
				c-0.15,0.024-0.312,0.044-0.486,0.059c-0.173,0.008-0.347,0.016-0.521,0.024c-0.166,0-0.332,0-0.498,0
				c-0.553,0-1.003-0.13-1.351-0.391c-0.34-0.269-0.51-0.656-0.51-1.161v-3.094c0-0.134-0.055-0.201-0.166-0.201h-0.64
				c-0.173,0-0.26-0.079-0.26-0.237v-0.996c0-0.134,0.079-0.201,0.237-0.201h0.758c0.079,0,0.123-0.044,0.131-0.131l0.177-1.778
				c0.016-0.15,0.083-0.225,0.202-0.225h1.517c0.142,0,0.213,0.079,0.213,0.237v1.766c0,0.079,0.04,0.119,0.119,0.119h1.173
				c0.158,0,0.237,0.067,0.237,0.201v1.008c0,0.158-0.091,0.237-0.272,0.237H201.8986z M204.8886,205.593
				c-0.245,0-0.419-0.016-0.522-0.048c-0.102-0.023-0.154-0.087-0.154-0.189v-1.067c0-0.055,0.024-0.107,0.071-0.154
				c0.048-0.04,0.135-0.059,0.261-0.059h0.818c0.142,0,0.272-0.028,0.391-0.083c0.118-0.056,0.213-0.123,0.284-0.202
				c0.072-0.079,0.119-0.166,0.143-0.261c0.031-0.094,0.031-0.185,0-0.272l-2.3-5.582c-0.023-0.087-0.015-0.162,0.024-0.226
				c0.04-0.063,0.103-0.094,0.19-0.094h1.754c0.071,0,0.13,0.023,0.178,0.071c0.055,0.039,0.094,0.087,0.118,0.142l1.15,3.176
				c0.023,0.071,0.055,0.111,0.095,0.119c0.039,0,0.075-0.04,0.106-0.119l1.15-3.176c0.031-0.055,0.071-0.103,0.118-0.142
				c0.048-0.048,0.103-0.071,0.166-0.071h1.186c0.086,0,0.146,0.031,0.177,0.094c0.04,0.064,0.044,0.135,0.012,0.214l-2.37,5.784
				c-0.19,0.458-0.38,0.825-0.569,1.102c-0.19,0.284-0.399,0.502-0.628,0.652c-0.229,0.15-0.494,0.252-0.794,0.308
				C205.6426,205.565,205.2916,205.593,204.8886,205.593z"/>
			<line class="st5" x1="120.2136" y1="210.458" x2="211.3046" y2="210.458"/>
			<path class="st4" d="M117.5046,114.247c0-0.075,0.02-0.137,0.062-0.187c0.041-0.05,0.111-0.075,0.211-0.075h7.284
				c0.091,0,0.157,0.025,0.198,0.075c0.05,0.05,0.075,0.112,0.075,0.187v1.32c0,0.141-0.083,0.211-0.248,0.211h-2.259
				c-0.099,0-0.149,0.042-0.149,0.125v7.072c0,0.166-0.07,0.249-0.211,0.249h-2.085c-0.14,0-0.21-0.079-0.21-0.237v-7.034
				c0-0.117-0.042-0.175-0.125-0.175h-2.283c-0.174,0-0.26-0.07-0.26-0.211V114.247z"/>
			<path class="st4" d="M128.9626,114.247c0-0.175,0.07-0.262,0.211-0.262h6.489c0.133,0,0.199,0.079,0.199,0.237v1.295
				c0,0.199-0.099,0.299-0.298,0.299h-3.834c-0.174,0-0.261,0.074-0.261,0.224v1.407c0,0.157,0.066,0.236,0.199,0.236h2.42
				c0.157,0,0.235,0.075,0.235,0.224v1.382c0,0.05-0.016,0.096-0.049,0.137c-0.025,0.034-0.075,0.05-0.149,0.05h-2.47
				c-0.124,0-0.186,0.058-0.186,0.174v1.582c0,0.108,0.046,0.162,0.137,0.162h4.132c0.165,0,0.248,0.07,0.248,0.211v1.37
				c0,0.066-0.021,0.124-0.062,0.174c-0.041,0.05-0.108,0.075-0.199,0.075h-6.465c-0.198,0-0.297-0.096-0.297-0.286V114.247z"/>
			<path class="st4" d="M139.4736,123.224c-0.083,0-0.145-0.037-0.186-0.112c-0.033-0.083-0.029-0.183,0.012-0.299l3.053-8.566
				c0.033-0.092,0.074-0.158,0.124-0.199c0.05-0.042,0.124-0.063,0.223-0.063h2.16c0.206,0,0.347,0.104,0.422,0.312l3.015,8.541
				c0.025,0.075,0.025,0.158,0,0.249c-0.025,0.091-0.083,0.137-0.174,0.137h-2.134c-0.133,0-0.219-0.067-0.261-0.199l-0.546-1.619
				c-0.016-0.033-0.037-0.062-0.062-0.087c-0.016-0.033-0.058-0.05-0.124-0.05h-2.817c-0.091,0-0.149,0.046-0.173,0.137
				l-0.584,1.644c-0.016,0.049-0.045,0.091-0.087,0.124c-0.041,0.033-0.103,0.05-0.186,0.05H139.4736z M144.4376,119.377
				c0.116,0,0.153-0.079,0.111-0.237l-0.893-2.503c-0.017-0.041-0.041-0.062-0.075-0.062c-0.033,0-0.057,0.021-0.074,0.062
				l-0.906,2.503c-0.058,0.158-0.021,0.237,0.112,0.237H144.4376z"/>
			<path class="st4" d="M152.1826,123.224c-0.19,0-0.286-0.108-0.286-0.324v-8.653c0-0.175,0.079-0.262,0.236-0.262h3.04
				c0.1,0,0.17,0.013,0.211,0.038c0.042,0.025,0.079,0.083,0.112,0.174l1.564,4.557c0.024,0.066,0.053,0.1,0.086,0.1
				c0.034-0.009,0.063-0.042,0.087-0.1l1.452-4.445c0.066-0.216,0.17-0.324,0.31-0.324h3.14c0.141,0,0.211,0.079,0.211,0.237v8.678
				c0,0.216-0.12,0.324-0.36,0.324h-1.849c-0.116,0-0.194-0.021-0.236-0.062c-0.041-0.05-0.062-0.125-0.062-0.224v-5.877
				c0-0.058-0.016-0.087-0.049-0.087c-0.033,0-0.062,0.033-0.087,0.099l-1.961,5.939c-0.058,0.141-0.153,0.212-0.285,0.212h-1.167
				c-0.149,0-0.248-0.071-0.298-0.212l-1.96-5.852c-0.025-0.083-0.054-0.12-0.087-0.112c-0.025,0.009-0.037,0.05-0.037,0.125v5.802
				c0,0.099-0.017,0.166-0.05,0.199c-0.033,0.033-0.103,0.05-0.211,0.05H152.1826z"/>
			<path class="st4" d="M151.3556,136.546c-0.852,0-1.6-0.195-2.246-0.585c-0.637-0.398-1.129-0.95-1.476-1.656
				c-0.348-0.714-0.521-1.535-0.521-2.465c0-0.971,0.182-1.814,0.546-2.528c0.372-0.713,0.889-1.265,1.551-1.656
				c0.661-0.398,1.423-0.597,2.283-0.597c0.72,0,1.348,0.133,1.886,0.398c0.538,0.258,0.972,0.594,1.303,1.009
				c0.339,0.406,0.554,0.83,0.645,1.27c0.033,0.157,0.038,0.261,0.013,0.311c-0.025,0.041-0.083,0.071-0.174,0.087l-1.886,0.286
				c-0.091,0-0.149-0.016-0.174-0.049c-0.025-0.042-0.045-0.1-0.062-0.175c-0.041-0.249-0.128-0.477-0.261-0.684
				c-0.132-0.216-0.31-0.391-0.533-0.523c-0.224-0.133-0.492-0.2-0.807-0.2c-0.355,0-0.662,0.1-0.918,0.299
				c-0.256,0.191-0.455,0.502-0.596,0.934c-0.132,0.432-0.198,1.013-0.198,1.743c0,0.772,0.074,1.378,0.223,1.818
				c0.149,0.44,0.356,0.755,0.621,0.946c0.273,0.183,0.591,0.274,0.955,0.274c0.215,0,0.405-0.029,0.571-0.087
				c0.174-0.058,0.323-0.137,0.447-0.237c0.132-0.107,0.24-0.228,0.322-0.361c0.091-0.141,0.162-0.29,0.211-0.448l0.025-0.236
				c0.05-0.133,0.012-0.2-0.112-0.2h-1.327c-0.075,0-0.133-0.016-0.174-0.049c-0.033-0.034-0.05-0.1-0.05-0.2v-1.07
				c0-0.125,0.079-0.187,0.236-0.187l3.4,0.025c0.132,0,0.232,0.033,0.298,0.099c0.074,0.058,0.112,0.137,0.112,0.237v4.134
				c0,0.058-0.017,0.108-0.05,0.149c-0.033,0.033-0.083,0.05-0.149,0.05h-0.434c-0.075,0-0.141-0.017-0.199-0.05
				c-0.058-0.033-0.111-0.091-0.161-0.174l-0.434-0.797c-0.017-0.033-0.038-0.05-0.062-0.05c-0.017,0-0.038,0.021-0.063,0.062
				c-0.157,0.166-0.343,0.336-0.558,0.511c-0.207,0.174-0.476,0.324-0.807,0.448
				C152.2496,136.488,151.8436,136.546,151.3556,136.546z"/>
			<path class="st4" d="M167.0516,136.048c0.041,0.1,0.037,0.187-0.013,0.262c-0.041,0.074-0.107,0.112-0.198,0.112h-2.122
				c-0.157,0-0.261-0.079-0.31-0.237l-1.241-3.349c-0.05-0.125-0.174-0.187-0.373-0.187h-0.856c-0.058,0-0.099,0.017-0.124,0.05
				c-0.016,0.033-0.025,0.062-0.025,0.087v3.3c0,0.224-0.124,0.336-0.372,0.336h-1.849c-0.107,0-0.182-0.021-0.223-0.062
				c-0.042-0.05-0.062-0.125-0.062-0.225v-8.69c0-0.175,0.07-0.262,0.211-0.262h4.02c1.158,0,2.056,0.224,2.693,0.673
				c0.637,0.448,0.955,1.087,0.955,1.917c0,0.407-0.074,0.776-0.223,1.108s-0.347,0.614-0.596,0.847
				c-0.248,0.224-0.529,0.394-0.843,0.51c-0.075,0.034-0.091,0.108-0.05,0.224L167.0516,136.048z M163.3536,130.981
				c0.397,0,0.699-0.092,0.906-0.274c0.207-0.191,0.31-0.448,0.31-0.772c0-0.357-0.12-0.627-0.36-0.809
				c-0.232-0.191-0.517-0.287-0.856-0.287h-1.303c-0.174,0-0.261,0.075-0.261,0.224v1.669c0,0.166,0.062,0.249,0.186,0.249H163.3536
				z"/>
			<path class="st4" d="M201.1416,136.422c-0.19,0-0.286-0.108-0.286-0.324v-8.653c0-0.175,0.079-0.262,0.236-0.262h3.04
				c0.1,0,0.17,0.013,0.211,0.038c0.042,0.025,0.079,0.083,0.112,0.174l1.564,4.557c0.024,0.066,0.053,0.1,0.086,0.1
				c0.033-0.009,0.062-0.042,0.087-0.1l1.452-4.445c0.066-0.216,0.17-0.324,0.31-0.324h3.14c0.14,0,0.211,0.079,0.211,0.237v8.678
				c0,0.216-0.12,0.324-0.36,0.324h-1.849c-0.116,0-0.194-0.021-0.236-0.062c-0.041-0.05-0.062-0.125-0.062-0.225v-5.876
				c0-0.058-0.016-0.088-0.049-0.088c-0.034,0-0.063,0.034-0.087,0.1l-1.961,5.939c-0.058,0.141-0.153,0.212-0.285,0.212h-1.167
				c-0.149,0-0.248-0.071-0.298-0.212l-1.96-5.852c-0.025-0.083-0.054-0.12-0.087-0.112c-0.025,0.008-0.037,0.05-0.037,0.125v5.802
				c0,0.099-0.017,0.166-0.05,0.199c-0.033,0.033-0.103,0.05-0.211,0.05H201.1416z"/>
			<path class="st4" d="M197.7086,115.031c-0.798-1.864-2.717-1.933-5.311-1.56c0.02-4.346,0.749-8.497,2.136-13.033
				c0.645-1.6246-4.16-4.5743-10.901-4.606c-6.741,0.0317-11.547,2.9809-10.902,4.605c1.379,4.509,2.104,8.689,2.13,13.032
				c-2.591-0.371-4.508-0.301-5.306,1.562c-1.737,3.465,3.755,9.686,14.077,9.686
				C193.9546,124.717,199.4466,118.496,197.7086,115.031z M174.2676,117.901c0,0,0.651-2.284,0.547-3.492
				c5.663,5.115,11.973,5.115,17.636,0c0.021,1.233,0.546,3.492,0.546,3.492C187.4216,123.225,179.8426,123.225,174.2676,117.901z"
				/>
			<path class="st4" d="M197.8686,143.669c-3.161,0-4.741-4.757-9.483-4.757c-4.741,0-4.741,3.172-4.741,3.172s0-3.172-4.742-3.172
				c-4.741,0-6.321,4.757-9.482,4.757c-1.581,0-3.161-1.585-3.161-1.585s1.58,7.929,7.902,7.929c7.902,0,9.483-4.758,9.483-4.758
				s1.58,4.758,9.483,4.758c6.321,0,7.902-7.929,7.902-7.929S199.4486,143.669,197.8686,143.669z"/>
			<path class="st4" d="M176.1886,126.715c-0.429,0.028-0.787,0.06-0.981,0.086c-1.916,0.263-3.268,0.973-3.963,2.086
				c-0.207,0.33-0.397,0.807-0.514,1.293l-0.058,0.235l-0.294,0.011c-0.29,0.011-0.294,0.011-0.345,0.07
				c-0.05,0.058-0.052,0.069-0.052,0.443v0.386l0.062,0.068c0.062,0.069,0.066,0.071,0.275,0.077l0.211,0.009l0.015,0.366
				c0.047,1.247,0.421,2.3,1.114,3.139c0.196,0.238,0.652,0.676,0.883,0.85c0.503,0.378,0.972,0.618,1.525,0.779
				c2.182,0.637,4.453-0.388,6.622-2.988c1.359-1.628,1.956-3.146,1.713-4.359c-0.011-0.056-0.005-0.064,0.102-0.111
				c0.262-0.116,0.561-0.169,0.936-0.169c0.42,0.002,0.839,0.102,1.088,0.263c0.156,0.1,0.151,0.092,0.126,0.353
				c-0.062,0.61,0.126,1.395,0.518,2.183c0.668,1.333,2.097,2.972,3.408,3.905c1.25,0.888,2.568,1.252,3.839,1.06
				c1.013-0.152,1.901-0.615,2.677-1.391c0.416-0.416,0.687-0.792,0.928-1.284c0.333-0.683,0.499-1.372,0.527-2.198l0.012-0.4
				l0.596-0.013l0.061-0.071l0.062-0.068v-0.775l-0.123-0.124h-0.728l-0.021-0.081c-0.011-0.043-0.036-0.142-0.053-0.219
				c-0.054-0.242-0.201-0.663-0.312-0.892c-0.443-0.935-1.207-1.582-2.391-2.025c-0.608-0.229-1.309-0.372-2.29-0.466
				c-0.363-0.036-1.662-0.036-2.026-0.002c-0.698,0.068-1.197,0.139-1.626,0.231l-0.241,0.051h-3.92c-3.852,0-3.924,0-4.122-0.043
				c-0.446-0.096-1.048-0.181-1.641-0.235C177.5366,126.722,176.3996,126.7,176.1886,126.715z M185.9356,127.575
				c-0.516,0.356-0.862,0.737-1.056,1.16c-0.034,0.077-0.064,0.144-0.068,0.148c-0.002,0.004-0.079-0.03-0.171-0.077
				c-0.299-0.154-0.58-0.229-0.977-0.261c-0.46-0.037-0.977,0.04-1.337,0.199l-0.077,0.034l-0.087-0.158
				c-0.194-0.356-0.516-0.709-0.853-0.935c-0.094-0.065-0.171-0.122-0.173-0.133c0-0.009,1.092-0.015,2.427-0.013
				C185.8526,127.539,185.9866,127.541,185.9356,127.575z"/>
		</g>
		<g>
			<rect class="st6" width="330.502" height="346.756"/>
		</g>
	</g>
</g>
<g>
	<defs>
		<rect id="SVGID_00000037668586114221382450000010388285129170865068_" x="0.3386" y="346.756" width="330.502" height="346.756"/>
	</defs>
	<clipPath id="SVGID_00000075131880066467782610000015828998444284040593_">
		<use xlink:href="#SVGID_00000037668586114221382450000010388285129170865068_"  style="overflow:visible;"/>
	</clipPath>
	<g style="clip-path:url(#SVGID_00000075131880066467782610000015828998444284040593_);">
		<defs>
			
				<filter id="Adobe_OpacityMaskFilter_00000148637166744896906030000005797008793993961107_" filterUnits="userSpaceOnUse" x="14.5396" y="353.8672" width="299.775" height="339.645">
				<feColorMatrix  type="matrix" values="1 0 0 0 0  0 1 0 0 0  0 0 1 0 0  0 0 0 1 0"/>
			</filter>
		</defs>
		
			<mask maskUnits="userSpaceOnUse" x="14.5396" y="353.8672" width="299.775" height="339.645" id="mask1_2_136_00000134247968631861356070000005779439279637895093_">
			
				<rect x="0.3386" y="346.756" style="fill:none;filter:url(#Adobe_OpacityMaskFilter_00000148637166744896906030000005797008793993961107_);" width="330.502" height="346.756"/>
		</mask>
		<g class="st9">
			<rect x="14.5396" y="353.8672" class="st10" width="299.775" height="339.645"/>
		</g>
		<g>
			<path d="M134.9156,587.853c0.03,0.048,0.03,0.099,0,0.153c-0.024,0.054-0.075,0.081-0.152,0.081h-1.366
				c-0.072,0-0.129-0.018-0.171-0.054c-0.042-0.036-0.075-0.087-0.099-0.153l-0.782-1.698c-0.024-0.054-0.048-0.084-0.072-0.09
				c-0.024-0.012-0.06,0.006-0.108,0.054l-0.53,0.503c-0.024,0.024-0.042,0.054-0.054,0.09c-0.012,0.036-0.018,0.087-0.018,0.153
				v0.952c0,0.09-0.021,0.153-0.063,0.189s-0.11,0.054-0.206,0.054h-1.106c-0.089,0-0.149-0.015-0.179-0.045
				c-0.03-0.036-0.045-0.09-0.045-0.162v-6.272c0-0.126,0.051-0.189,0.152-0.189h1.295c0.101,0,0.152,0.057,0.152,0.171v3.522
				c0,0.03,0.006,0.054,0.018,0.072c0.018,0.012,0.045-0.003,0.081-0.045l1.519-1.671c0.096-0.096,0.183-0.144,0.26-0.144h1.106
				c0.09,0,0.144,0.027,0.162,0.081c0.018,0.048,0,0.102-0.054,0.162l-1.214,1.213c-0.035,0.042-0.056,0.081-0.062,0.117
				s0.012,0.093,0.054,0.17L134.9156,587.853z M136.5536,586.1461c0,0.204,0.045,0.377,0.135,0.521
				c0.096,0.144,0.221,0.255,0.377,0.333c0.162,0.071,0.342,0.107,0.539,0.107c0.18,0,0.354-0.039,0.522-0.116
				c0.167-0.084,0.347-0.228,0.539-0.432c0.024-0.024,0.045-0.036,0.063-0.036c0.018-0.006,0.054,0,0.108,0.018l0.736,0.306
				c0.096,0.042,0.108,0.108,0.036,0.198c-0.209,0.293-0.422,0.524-0.638,0.691c-0.209,0.162-0.443,0.276-0.701,0.342
				c-0.257,0.066-0.551,0.099-0.88,0.099c-0.468,0-0.89-0.1021-1.267-0.306c-0.378-0.203-0.674-0.485-0.89-0.844
				c-0.216-0.36-0.324-0.776-0.324-1.25c0-0.509,0.111-0.955,0.333-1.339c0.228-0.383,0.527-0.68,0.899-0.889
				c0.377-0.21,0.784-0.315,1.222-0.315c0.467,0,0.877,0.1021,1.231,0.306c0.359,0.197,0.641,0.485,0.845,0.862
				c0.209,0.378,0.314,0.836,0.314,1.375c0,0.072-0.009,0.126-0.027,0.162c-0.012,0.036-0.054,0.057-0.126,0.063h-2.92
				c-0.036,0-0.066,0.012-0.09,0.036C136.5656,586.062,136.5536,586.098,136.5536,586.1461z M138.0456,585.157
				c0.06,0,0.099-0.006,0.117-0.018c0.024-0.018,0.036-0.054,0.036-0.107c0-0.114-0.027-0.234-0.081-0.36
				c-0.054-0.132-0.138-0.246-0.252-0.341c-0.114-0.096-0.258-0.144-0.431-0.144c-0.162,0-0.309,0.039-0.441,0.117
				c-0.131,0.072-0.233,0.179-0.305,0.323c-0.072,0.144-0.108,0.318-0.108,0.521L138.0456,585.157z M144.6376,583.324
				c0.066,0,0.111,0.024,0.135,0.072c0.024,0.048,0.024,0.102,0,0.162l-1.762,4.322c-0.054,0.138-0.156,0.207-0.305,0.207h-0.746
				c-0.156,0-0.261-0.069-0.315-0.207l-1.761-4.322c-0.018-0.06-0.012-0.114,0.018-0.162c0.03-0.048,0.078-0.072,0.144-0.072h1.33
				c0.054,0,0.099,0.018,0.134,0.054c0.042,0.03,0.072,0.066,0.09,0.108l0.908,2.354c0.036,0.114,0.081,0.111,0.135-0.009
				l0.88-2.345c0.024-0.042,0.054-0.078,0.09-0.108c0.036-0.036,0.078-0.054,0.126-0.054H144.6376z M146.9826,587.8441
				c0,0.09-0.021,0.153-0.063,0.189c-0.042,0.036-0.11,0.054-0.206,0.054h-1.115c-0.083,0-0.14-0.015-0.17-0.045
				c-0.03-0.036-0.045-0.09-0.045-0.162v-4.3669c0-0.126,0.054-0.189,0.161-0.189h1.286c0.101,0,0.152,0.057,0.152,0.171V587.8441z
				 M146.9916,582.596c0,0.162-0.093,0.243-0.278,0.243h-1.124c-0.083,0-0.14-0.018-0.17-0.054s-0.045-0.09-0.045-0.162v-1.006
				c0-0.132,0.054-0.198,0.162-0.198h1.294c0.107,0,0.161,0.0601,0.161,0.1801V582.596z M148.0646,588.087
				c-0.143,0-0.215-0.069-0.215-0.207v-4.3669c0-0.126,0.051-0.189,0.153-0.189h1.276c0.101,0,0.152,0.054,0.152,0.162v0.431
				c0,0.036,0.009,0.06,0.027,0.072c0.018,0.006,0.045-0.006,0.081-0.0359c0.138-0.144,0.285-0.269,0.441-0.377
				c0.155-0.108,0.317-0.192,0.485-0.252c0.174-0.06,0.356-0.09,0.548-0.09c0.425,0,0.767,0.132,1.024,0.396
				c0.264,0.257,0.396,0.605,0.396,1.0421v3.172c0,0.162-0.084,0.243-0.252,0.243h-1.159c-0.072,0-0.123-0.015-0.153-0.045
				c-0.024-0.03-0.036-0.084-0.036-0.162v-2.983c0-0.168-0.051-0.297-0.152-0.387c-0.096-0.09-0.234-0.134-0.414-0.134
				c-0.108,0-0.21,0.018-0.305,0.053c-0.09,0.036-0.177,0.093-0.261,0.171c-0.084,0.072-0.168,0.165-0.252,0.279v2.974
				c0,0.156-0.089,0.234-0.269,0.234H148.0646z M153.4626,588.087c-0.09,0-0.15-0.015-0.18-0.045
				c-0.03-0.036-0.045-0.09-0.045-0.162v-6.272c0-0.126,0.054-0.189,0.162-0.189h1.285c0.102,0,0.153,0.0601,0.153,0.1801v2.049
				c0,0.072,0.015,0.11,0.045,0.116c0.036,0.006,0.075-0.009,0.117-0.044c0.113-0.108,0.23-0.195,0.35-0.261
				c0.126-0.072,0.258-0.126,0.395-0.162c0.144-0.0421,0.294-0.063,0.45-0.063c0.401,0,0.74,0.1021,1.015,0.306
				c0.276,0.197,0.485,0.479,0.629,0.845c0.15,0.3651,0.225,0.793,0.225,1.285c0,0.76-0.177,1.369-0.53,1.824
				c-0.354,0.455-0.857,0.683-1.51,0.683c-0.204,0-0.395-0.033-0.575-0.099c-0.174-0.066-0.333-0.156-0.476-0.27
				c-0.138-0.113-0.261-0.236-0.369-0.368c-0.024-0.03-0.045-0.0421-0.063-0.036c-0.018,0.006-0.033,0.027-0.045,0.063l-0.126,0.422
				c-0.035,0.132-0.11,0.198-0.224,0.198H153.4626z M154.8376,586.433c0,0.162,0.033,0.303,0.099,0.423
				c0.066,0.12,0.155,0.212,0.269,0.278c0.12,0.06,0.249,0.09,0.387,0.09c0.179,0,0.332-0.048,0.458-0.144
				c0.126-0.101,0.222-0.263,0.288-0.485c0.071-0.227,0.107-0.524,0.107-0.889c0-0.54-0.072-0.92-0.215-1.142
				c-0.138-0.227-0.339-0.341-0.602-0.341c-0.162,0-0.309,0.039-0.441,0.117c-0.132,0.077-0.248,0.179-0.35,0.305V586.433z
				 M161.2477,587.674c-0.174,0.143-0.372,0.263-0.593,0.359c-0.222,0.096-0.477,0.144-0.764,0.144c-0.456,0-0.812-0.123-1.07-0.369
				c-0.251-0.251-0.377-0.566-0.377-0.943c0-0.348,0.108-0.65,0.323-0.908c0.216-0.257,0.525-0.458,0.926-0.602
				s0.878-0.219,1.429-0.225l0.189-0.009c0.024,0,0.051-0.006,0.08-0.018c0.036-0.018,0.054-0.053,0.054-0.107v-0.171
				c0-0.198-0.054-0.351-0.161-0.458c-0.108-0.108-0.267-0.162-0.477-0.162c-0.155,0-0.308,0.036-0.458,0.108
				c-0.144,0.066-0.264,0.188-0.359,0.368c-0.024,0.042-0.048,0.072-0.072,0.09c-0.024,0.012-0.072,0.012-0.144,0l-1.052-0.216
				c-0.035-0.012-0.062-0.033-0.08-0.063c-0.018-0.03-0.009-0.095,0.027-0.197c0.149-0.372,0.413-0.641,0.79-0.809
				c0.378-0.168,0.851-0.252,1.42-0.252c0.527,0,0.941,0.063,1.24,0.189c0.306,0.126,0.522,0.3,0.647,0.521
				c0.132,0.222,0.198,0.482,0.198,0.782v3.136c0,0.084-0.012,0.144-0.036,0.18c-0.024,0.03-0.075,0.045-0.153,0.045h-1.078
				c-0.072,0-0.123-0.027-0.153-0.081c-0.03-0.06-0.051-0.126-0.063-0.198l-0.009-0.134
				C161.4536,587.5601,161.3786,587.5601,161.2477,587.674z M161.4446,586.02c0-0.108-0.045-0.159-0.134-0.153l-0.144,0.009
				c-0.108,0-0.231,0.018-0.369,0.054c-0.131,0.03-0.26,0.078-0.386,0.144c-0.12,0.06-0.219,0.138-0.297,0.234
				c-0.078,0.095-0.116,0.209-0.116,0.341c0,0.156,0.053,0.279,0.161,0.369c0.108,0.0891,0.255,0.134,0.441,0.134
				c0.137,0,0.254-0.021,0.35-0.063c0.102-0.041,0.183-0.089,0.243-0.143c0.072-0.06,0.132-0.12,0.179-0.18
				c0.048-0.066,0.072-0.138,0.072-0.216V586.02z M166.1036,583.234c0.407,0,0.754,0.075,1.042,0.225
				c0.288,0.144,0.518,0.326,0.692,0.548c0.174,0.222,0.291,0.446,0.35,0.674c0.042,0.138-0.005,0.21-0.143,0.216l-1.088,0.072
				c-0.078,0.012-0.125-0.024-0.143-0.108c-0.036-0.096-0.078-0.189-0.126-0.279c-0.042-0.096-0.108-0.174-0.198-0.233
				c-0.084-0.06-0.198-0.09-0.341-0.09c-0.174,0-0.327,0.051-0.459,0.152c-0.132,0.1021-0.233,0.261-0.305,0.4771
				c-0.072,0.209-0.108,0.482-0.108,0.818c0,0.341,0.039,0.623,0.117,0.844c0.078,0.216,0.188,0.375,0.332,0.477
				c0.144,0.095,0.312,0.143,0.503,0.143c0.252,0,0.444-0.069,0.576-0.206c0.137-0.138,0.269-0.315,0.395-0.531
				c0.012-0.024,0.03-0.038,0.054-0.044c0.024-0.012,0.063-0.012,0.117,0l0.755,0.161c0.077,0.018,0.101,0.081,0.071,0.189
				c-0.035,0.12-0.101,0.264-0.197,0.431c-0.096,0.162-0.228,0.321-0.396,0.477c-0.161,0.149-0.368,0.275-0.62,0.377
				c-0.245,0.102-0.539,0.153-0.88,0.153c-0.474,0-0.896-0.1021-1.267-0.306c-0.366-0.209-0.653-0.497-0.863-0.862
				c-0.21-0.372-0.315-0.8-0.315-1.285c0-0.498,0.105-0.932,0.315-1.304c0.215-0.371,0.506-0.662,0.872-0.871
				C165.2166,583.3391,165.6357,583.234,166.1036,583.234z M169.0396,588.087c-0.138,0-0.207-0.069-0.207-0.207v-6.272
				c0-0.126,0.051-0.189,0.153-0.189h1.267c0.102,0,0.153,0.057,0.153,0.171v2.273c0,0.036,0.009,0.057,0.027,0.063
				c0.018,0.006,0.045-0.003,0.081-0.027c0.179-0.167,0.35-0.299,0.512-0.395s0.32-0.165,0.476-0.207
				c0.162-0.0421,0.327-0.063,0.494-0.063c0.45,0,0.797,0.129,1.043,0.387c0.245,0.251,0.368,0.611,0.368,1.078v3.145
				c0,0.162-0.084,0.243-0.251,0.243h-1.16c-0.071,0-0.122-0.015-0.152-0.045c-0.024-0.03-0.036-0.084-0.036-0.162v-2.983
				c0-0.168-0.051-0.297-0.153-0.387c-0.096-0.09-0.231-0.134-0.404-0.134c-0.108,0-0.21,0.018-0.306,0.053
				c-0.096,0.036-0.186,0.093-0.27,0.171c-0.078,0.072-0.158,0.165-0.242,0.279v2.974c0,0.156-0.09,0.234-0.27,0.234H169.0396z
				 M175.6676,586.1461c0,0.204,0.045,0.377,0.135,0.521c0.096,0.144,0.222,0.255,0.377,0.333c0.162,0.071,0.342,0.107,0.54,0.107
				c0.179,0,0.353-0.039,0.521-0.116c0.168-0.084,0.347-0.228,0.539-0.432c0.024-0.024,0.045-0.036,0.063-0.036
				c0.018-0.006,0.054,0,0.108,0.018l0.737,0.306c0.095,0.042,0.107,0.108,0.036,0.198c-0.21,0.293-0.423,0.524-0.638,0.691
				c-0.21,0.162-0.444,0.276-0.701,0.342c-0.258,0.066-0.552,0.099-0.881,0.099c-0.467,0-0.89-0.1021-1.267-0.306
				c-0.378-0.203-0.674-0.485-0.89-0.844c-0.216-0.36-0.323-0.776-0.323-1.25c0-0.509,0.11-0.955,0.332-1.339
				c0.228-0.383,0.527-0.68,0.899-0.889c0.377-0.21,0.785-0.315,1.222-0.315c0.467,0,0.878,0.1021,1.231,0.306
				c0.36,0.197,0.641,0.485,0.845,0.862c0.21,0.378,0.314,0.836,0.314,1.375c0,0.072-0.009,0.126-0.027,0.162
				c-0.012,0.036-0.054,0.057-0.125,0.063h-2.921c-0.036,0-0.066,0.012-0.09,0.036
				C175.6796,586.062,175.6676,586.098,175.6676,586.1461z M177.1596,585.157c0.06,0,0.099-0.006,0.117-0.018
				c0.024-0.018,0.036-0.054,0.036-0.107c0-0.114-0.027-0.234-0.081-0.36c-0.054-0.132-0.138-0.246-0.252-0.341
				c-0.114-0.096-0.257-0.144-0.431-0.144c-0.162,0-0.309,0.039-0.441,0.117c-0.131,0.072-0.233,0.179-0.305,0.323
				c-0.072,0.144-0.108,0.318-0.108,0.521L177.1596,585.157z M181.1126,587.8441c0,0.09-0.024,0.153-0.072,0.189
				c-0.042,0.036-0.108,0.054-0.198,0.054h-1.123c-0.15,0-0.225-0.069-0.225-0.207l0.036-6.272c0-0.126,0.054-0.189,0.162-0.189
				h1.267c0.102,0,0.153,0.057,0.153,0.171V587.8441z M184.2346,588.1771c-0.485,0-0.914-0.105-1.285-0.315
				c-0.366-0.209-0.653-0.497-0.863-0.862c-0.204-0.372-0.305-0.794-0.305-1.267c0-0.504,0.107-0.941,0.323-1.313
				c0.216-0.377,0.509-0.668,0.881-0.871c0.371-0.21,0.791-0.315,1.258-0.315c0.491,0,0.919,0.108,1.285,0.324
				c0.371,0.215,0.659,0.512,0.863,0.889c0.209,0.372,0.314,0.8,0.314,1.286c0,0.473-0.105,0.895-0.314,1.267
				c-0.21,0.365-0.501,0.653-0.872,0.862C185.1536,588.072,184.7256,588.1771,184.2346,588.1771z M184.2437,587.134
				c0.192,0,0.35-0.051,0.476-0.152c0.126-0.1021,0.219-0.261,0.279-0.4771c0.06-0.215,0.09-0.485,0.09-0.808
				c0-0.33-0.033-0.603-0.099-0.818c-0.06-0.216-0.153-0.375-0.279-0.477c-0.12-0.107-0.275-0.161-0.467-0.161
				c-0.186,0-0.345,0.054-0.476,0.161c-0.126,0.102-0.219,0.261-0.279,0.477c-0.06,0.215-0.09,0.488-0.09,0.818
				c0,0.329,0.03,0.602,0.09,0.817c0.06,0.21,0.153,0.366,0.279,0.468C183.8987,587.083,184.0576,587.134,184.2437,587.134z
				 M187.5826,588.087c-0.084,0-0.14-0.015-0.17-0.045c-0.03-0.036-0.045-0.09-0.045-0.162v-4.3669c0-0.126,0.051-0.189,0.152-0.189
				h1.241c0.095,0,0.143,0.054,0.143,0.162v0.521c0,0.042,0.015,0.069,0.045,0.081c0.036,0.006,0.069-0.012,0.099-0.054
				c0.108-0.156,0.237-0.294,0.387-0.413c0.149-0.12,0.308-0.213,0.476-0.279c0.168-0.072,0.32-0.108,0.458-0.108
				c0.222,0,0.333,0.057,0.333,0.171v1.204c0,0.114-0.054,0.159-0.162,0.135c-0.12-0.03-0.249-0.051-0.387-0.063
				c-0.131-0.018-0.236-0.027-0.314-0.027c-0.108,0-0.213,0.021-0.315,0.063c-0.101,0.036-0.197,0.087-0.287,0.153
				c-0.084,0.066-0.15,0.141-0.198,0.224c-0.048,0.084-0.072,0.168-0.072,0.252v2.507c0,0.156-0.09,0.234-0.269,0.234H187.5826z
				 M192.1256,587.8441c0,0.162-0.09,0.243-0.269,0.243h-1.204c-0.15,0-0.225-0.069-0.225-0.207v-1.267
				c0-0.12,0.051-0.18,0.153-0.18h1.402c0.095,0,0.143,0.054,0.143,0.162V587.8441z M194.3156,583.324
				c0.137,0,0.206,0.066,0.206,0.198v0.224c0,0.042,0.015,0.063,0.045,0.063s0.06-0.012,0.09-0.036
				c0.108-0.101,0.222-0.191,0.342-0.269c0.119-0.084,0.254-0.15,0.404-0.198c0.156-0.048,0.336-0.072,0.539-0.072
				c0.342,0,0.647,0.09,0.917,0.27c0.269,0.174,0.485,0.44,0.647,0.8c0.162,0.359,0.243,0.817,0.243,1.375
				c0,0.593-0.084,1.075-0.252,1.446c-0.168,0.366-0.393,0.632-0.674,0.8c-0.282,0.168-0.596,0.252-0.944,0.252
				c-0.221,0-0.428-0.033-0.62-0.099c-0.185-0.072-0.371-0.192-0.557-0.359c-0.072-0.06-0.12-0.087-0.144-0.081
				c-0.024,0-0.036,0.042-0.036,0.125v1.636c0,0.114-0.051,0.171-0.152,0.171h-1.294c-0.102,0-0.153-0.06-0.153-0.18v-5.85
				c0-0.072,0.015-0.126,0.045-0.162c0.03-0.036,0.09-0.054,0.179-0.054H194.3156z M194.5216,586.7841
				c0.096,0.126,0.201,0.225,0.315,0.296c0.12,0.072,0.26,0.108,0.422,0.108c0.18,0,0.333-0.048,0.459-0.143
				c0.131-0.096,0.233-0.255,0.305-0.477c0.072-0.227,0.108-0.539,0.108-0.934c0-0.366-0.036-0.65-0.108-0.854
				c-0.066-0.204-0.165-0.348-0.296-0.431c-0.126-0.084-0.279-0.126-0.459-0.126c-0.138,0-0.263,0.03-0.377,0.09
				c-0.114,0.054-0.204,0.125-0.27,0.215c-0.066,0.09-0.099,0.189-0.099,0.297V586.7841z M200.9316,587.674
				c-0.173,0.143-0.371,0.263-0.593,0.359c-0.222,0.096-0.476,0.144-0.764,0.144c-0.455,0-0.811-0.123-1.069-0.369
				c-0.252-0.251-0.378-0.566-0.378-0.943c0-0.348,0.108-0.65,0.324-0.908c0.216-0.257,0.524-0.458,0.926-0.602
				c0.401-0.144,0.877-0.219,1.428-0.225l0.189-0.009c0.024,0,0.051-0.006,0.081-0.018c0.036-0.018,0.054-0.053,0.054-0.107v-0.171
				c0-0.198-0.054-0.351-0.162-0.458c-0.108-0.108-0.266-0.162-0.476-0.162c-0.156,0-0.309,0.036-0.458,0.108
				c-0.144,0.066-0.264,0.188-0.36,0.368c-0.024,0.042-0.048,0.072-0.072,0.09c-0.024,0.012-0.072,0.012-0.144,0l-1.051-0.216
				c-0.036-0.012-0.063-0.033-0.081-0.063c-0.018-0.03-0.009-0.095,0.027-0.197c0.15-0.372,0.414-0.641,0.791-0.809
				c0.377-0.168,0.851-0.252,1.42-0.252c0.527,0,0.94,0.063,1.24,0.189c0.305,0.126,0.521,0.3,0.647,0.521
				c0.132,0.222,0.198,0.482,0.198,0.782v3.136c0,0.084-0.012,0.144-0.036,0.18c-0.024,0.03-0.075,0.045-0.153,0.045h-1.078
				c-0.072,0-0.123-0.027-0.153-0.081c-0.03-0.06-0.051-0.126-0.063-0.198l-0.009-0.134
				C201.1386,587.5601,201.0636,587.5601,200.9316,587.674z M201.1296,586.02c0-0.108-0.045-0.159-0.135-0.153l-0.144,0.009
				c-0.107,0-0.23,0.018-0.368,0.054c-0.132,0.03-0.261,0.078-0.386,0.144c-0.12,0.06-0.219,0.138-0.297,0.234
				c-0.078,0.095-0.117,0.209-0.117,0.341c0,0.156,0.054,0.279,0.162,0.369c0.108,0.0891,0.255,0.134,0.44,0.134
				c0.138,0,0.255-0.021,0.351-0.063c0.102-0.041,0.182-0.089,0.242-0.143c0.072-0.06,0.132-0.12,0.18-0.18
				c0.048-0.066,0.072-0.138,0.072-0.216V586.02z M203.7566,588.087c-0.084,0-0.141-0.015-0.17-0.045
				c-0.03-0.036-0.045-0.09-0.045-0.162v-4.3669c0-0.126,0.051-0.189,0.152-0.189h1.24c0.096,0,0.144,0.054,0.144,0.162v0.521
				c0,0.042,0.015,0.069,0.045,0.081c0.036,0.006,0.069-0.012,0.099-0.054c0.108-0.156,0.237-0.294,0.386-0.413
				c0.15-0.12,0.309-0.213,0.477-0.279c0.168-0.072,0.32-0.108,0.458-0.108c0.222,0,0.333,0.057,0.333,0.171v1.204
				c0,0.114-0.054,0.159-0.162,0.135c-0.12-0.03-0.249-0.051-0.387-0.063c-0.131-0.018-0.236-0.027-0.314-0.027
				c-0.108,0-0.213,0.021-0.315,0.063c-0.101,0.036-0.197,0.087-0.287,0.153c-0.084,0.066-0.15,0.141-0.198,0.224
				c-0.048,0.084-0.072,0.168-0.072,0.252v2.507c0,0.156-0.09,0.234-0.269,0.234H203.7566z M209.7636,584.411
				c-0.072,0-0.108,0.036-0.108,0.108v1.941c0,0.18,0.048,0.312,0.144,0.396c0.102,0.084,0.26,0.126,0.476,0.126h0.431
				c0.042,0,0.075,0.018,0.099,0.054c0.03,0.0291,0.045,0.065,0.045,0.107l-0.009,0.647c0,0.126-0.078,0.204-0.233,0.234
				c-0.114,0.018-0.237,0.033-0.369,0.045c-0.132,0.006-0.263,0.012-0.395,0.018c-0.126,0-0.252,0-0.378,0
				c-0.419,0-0.761-0.099-1.024-0.297c-0.258-0.203-0.387-0.497-0.387-0.88v-2.346c0-0.102-0.041-0.153-0.125-0.153h-0.486
				c-0.131,0-0.197-0.059-0.197-0.179v-0.755c0-0.102,0.06-0.153,0.179-0.153h0.576c0.059,0,0.092-0.033,0.098-0.099l0.135-1.348
				c0.012-0.114,0.063-0.17,0.153-0.17h1.15c0.108,0,0.162,0.059,0.162,0.179v1.339c0,0.06,0.03,0.09,0.09,0.09h0.89
				c0.119,0,0.179,0.051,0.179,0.153v0.764c0,0.12-0.069,0.179-0.206,0.179H209.7636z M212.0306,589.57
				c-0.186,0-0.318-0.012-0.396-0.0359c-0.078-0.018-0.117-0.066-0.117-0.144v-0.809c0-0.042,0.018-0.081,0.054-0.117
				c0.036-0.03,0.102-0.045,0.198-0.045h0.62c0.108,0,0.207-0.021,0.297-0.062c0.09-0.042,0.161-0.093,0.215-0.153
				c0.054-0.06,0.09-0.126,0.108-0.198c0.024-0.072,0.024-0.141,0-0.207l-1.743-4.232c-0.018-0.066-0.012-0.123,0.018-0.171
				c0.03-0.048,0.078-0.072,0.144-0.072h1.33c0.053,0,0.098,0.018,0.134,0.054c0.042,0.03,0.072,0.066,0.09,0.108l0.872,2.408
				c0.018,0.054,0.042,0.084,0.072,0.09c0.03,0,0.057-0.03,0.081-0.09l0.871-2.408c0.024-0.042,0.054-0.078,0.09-0.108
				c0.036-0.036,0.078-0.054,0.126-0.054h0.899c0.066,0,0.111,0.024,0.135,0.072c0.029,0.048,0.032,0.102,0.009,0.162l-1.798,4.385
				c-0.144,0.348-0.287,0.626-0.431,0.836c-0.144,0.216-0.303,0.38-0.476,0.494c-0.174,0.114-0.375,0.192-0.603,0.234
				C212.6026,589.549,212.3356,589.57,212.0306,589.57z"/>
			<path d="M124.6426,585.7631c0.036-0.297,0.063-0.593,0.063-0.899c0-0.306-0.027-0.602-0.063-0.899h1.519
				c0.072,0.288,0.117,0.589,0.117,0.899s-0.045,0.611-0.117,0.899 M123.8476,588.261c0.27-0.499,0.476-1.038,0.62-1.6h1.326
				C125.3616,587.403,124.6747,587.978,123.8476,588.261z M123.7356,585.7631h-2.103c-0.045-0.297-0.072-0.593-0.072-0.899
				c0-0.306,0.027-0.607,0.072-0.899h2.103c0.04,0.292,0.072,0.593,0.072,0.899
				C123.8076,585.17,123.7756,585.4661,123.7356,585.7631z M122.6836,588.441c-0.373-0.54-0.674-1.137-0.858-1.78h1.716
				C123.3576,587.304,123.0566,587.9011,122.6836,588.441z M120.8866,583.067h-1.312c0.427-0.746,1.119-1.321,1.941-1.6
				C121.2456,581.9661,121.0436,582.505,120.8866,583.067z M119.5746,586.661h1.312c0.157,0.562,0.359,1.101,0.629,1.6
				C120.6936,587.978,120.0016,587.403,119.5746,586.661z M119.2056,585.7631c-0.071-0.288-0.116-0.5891-0.116-0.899
				s0.045-0.611,0.116-0.899h1.519c-0.036,0.297-0.063,0.593-0.063,0.899c0,0.306,0.027,0.6021,0.063,0.899 M122.6836,581.283
				c0.373,0.539,0.674,1.141,0.858,1.784h-1.716C122.0096,582.424,122.3106,581.822,122.6836,581.283z M125.7936,583.067h-1.326
				c-0.144-0.562-0.35-1.101-0.62-1.6C124.6747,581.7501,125.3616,582.321,125.7936,583.067z M122.6836,580.371
				c-2.485,0-4.493,2.022-4.493,4.493c0,1.192,0.473,2.335,1.316,3.177c0.843,0.843,1.986,1.316,3.177,1.316
				c1.192,0,2.335-0.473,3.177-1.316c0.843-0.842,1.316-1.985,1.316-3.177c0-0.59-0.116-1.174-0.342-1.719
				c-0.225-0.546-0.556-1.041-0.974-1.458c-0.417-0.417-0.912-0.748-1.457-0.974
				C123.8586,580.4871,123.2737,580.371,122.6836,580.371z"/>
			<path d="M125.8776,527.4901c-1.102,0-2.071-0.251-2.905-0.754c-0.824-0.513-1.46-1.225-1.91-2.134
				c-0.449-0.92-0.674-1.979-0.674-3.177c0-1.252,0.236-2.338,0.706-3.258c0.482-0.92,1.151-1.632,2.006-2.134
				c0.856-0.514,1.841-0.771,2.953-0.771c0.931,0,1.744,0.172,2.439,0.514c0.696,0.332,1.257,0.765,1.685,1.3
				c0.439,0.524,0.717,1.07,0.835,1.637c0.043,0.203,0.048,0.337,0.016,0.401c-0.032,0.053-0.107,0.091-0.225,0.112l-2.439,0.369
				c-0.118,0-0.193-0.021-0.225-0.064c-0.032-0.053-0.059-0.128-0.08-0.225c-0.053-0.321-0.166-0.615-0.337-0.882
				c-0.171-0.278-0.401-0.503-0.69-0.674c-0.289-0.171-0.637-0.257-1.043-0.257c-0.46,0-0.856,0.128-1.188,0.385
				c-0.331,0.246-0.588,0.647-0.77,1.204c-0.171,0.556-0.257,1.305-0.257,2.246c0,0.995,0.097,1.776,0.289,2.343
				c0.193,0.567,0.46,0.974,0.803,1.22c0.353,0.235,0.765,0.353,1.235,0.353c0.278,0,0.524-0.038,0.738-0.112
				c0.225-0.075,0.418-0.177,0.578-0.305c0.171-0.139,0.31-0.295,0.417-0.466c0.118-0.182,0.209-0.374,0.273-0.577l0.032-0.305
				c0.064-0.1721,0.016-0.257-0.144-0.257h-1.717c-0.096,0-0.171-0.022-0.225-0.064c-0.043-0.043-0.064-0.129-0.064-0.257v-1.38
				c0-0.161,0.102-0.241,0.305-0.241l4.397,0.032c0.171,0,0.299,0.043,0.385,0.129c0.096,0.075,0.144,0.176,0.144,0.305v5.327
				c0,0.075-0.021,0.139-0.064,0.193c-0.043,0.043-0.107,0.064-0.192,0.064h-0.562c-0.096,0-0.182-0.021-0.257-0.064
				c-0.075-0.043-0.144-0.118-0.208-0.225l-0.562-1.027c-0.021-0.043-0.048-0.064-0.08-0.064c-0.022,0-0.048,0.027-0.081,0.08
				c-0.203,0.214-0.444,0.433-0.722,0.658c-0.267,0.225-0.615,0.417-1.043,0.578
				C127.0326,527.416,126.5086,527.4901,125.8776,527.4901z M146.1747,526.8491c0.053,0.128,0.048,0.24-0.016,0.337
				c-0.054,0.096-0.139,0.144-0.257,0.144h-2.744c-0.203,0-0.337-0.102-0.401-0.305l-1.605-4.317c-0.064-0.16-0.225-0.24-0.481-0.24
				h-1.108c-0.075,0-0.128,0.021-0.16,0.064c-0.022,0.043-0.032,0.08-0.032,0.112v4.253c0,0.289-0.161,0.433-0.482,0.433h-2.391
				c-0.139,0-0.235-0.027-0.289-0.08c-0.053-0.064-0.08-0.161-0.08-0.289V515.76c0-0.225,0.091-0.337,0.273-0.337h5.199
				c1.498,0,2.659,0.289,3.483,0.866c0.823,0.5779,1.235,1.402,1.235,2.472c0,0.524-0.096,1-0.289,1.428
				c-0.192,0.428-0.449,0.792-0.77,1.091c-0.321,0.289-0.685,0.508-1.091,0.658c-0.096,0.043-0.118,0.139-0.064,0.289
				L146.1747,526.8491z M141.3926,520.317c0.513,0,0.904-0.117,1.171-0.353c0.268-0.246,0.401-0.577,0.401-0.995
				c0-0.46-0.155-0.807-0.465-1.043c-0.3-0.246-0.669-0.369-1.107-0.369h-1.685c-0.225,0-0.337,0.096-0.337,0.289v2.15
				c0,0.214,0.08,0.321,0.24,0.321H141.3926z M190.2596,527.33c-0.246,0-0.369-0.139-0.369-0.417V515.76
				c0-0.225,0.102-0.337,0.305-0.337h3.931c0.129,0,0.22,0.016,0.273,0.048c0.054,0.032,0.102,0.1071,0.145,0.225l2.022,5.873
				c0.032,0.086,0.069,0.128,0.112,0.128c0.043-0.01,0.08-0.053,0.112-0.128l1.878-5.729c0.085-0.278,0.219-0.417,0.401-0.417h4.06
				c0.182,0,0.273,0.102,0.273,0.305v11.185c0,0.278-0.155,0.417-0.466,0.417h-2.391c-0.149,0-0.251-0.027-0.305-0.08
				c-0.053-0.064-0.08-0.161-0.08-0.289v-7.574c0-0.075-0.021-0.113-0.064-0.113s-0.08,0.043-0.112,0.129l-2.536,7.654
				c-0.075,0.182-0.198,0.273-0.369,0.273h-1.508c-0.193,0-0.321-0.091-0.385-0.273l-2.536-7.542
				c-0.032-0.107-0.069-0.155-0.112-0.144c-0.032,0.01-0.048,0.064-0.048,0.16v7.478c0,0.128-0.022,0.214-0.065,0.257
				c-0.042,0.043-0.133,0.064-0.272,0.064H190.2596z"/>
			<path d="M156.2836,561.867c-0.398-0.933-1.506-5.743-1.505-6.534c0-0.509,0.182-1.7419,0.386-2.616
				c0.25-1.076,0.858-3.328,0.925-3.427c0.057-0.085,0.342-0.041,1.251,0.19c3.694,0.939,7.081,2.349,8.422,3.505
				c0.38,0.328,0.547,0.407,1.028,0.485c0.857,0.139,1.823-0.029,2.276-0.396c1.004-0.814,2.404-1.543,4.416-2.301
				c1.964-0.741,5.217-1.662,5.364-1.519c0.102,0.098,0.914,3.31,1.129,4.467c0.244,1.313,0.212,2.146-0.147,3.754
				c-0.368,1.647-1.099,4.344-1.22,4.494c-0.094,0.119-0.179,0.114-0.768-0.041c-2.725-0.72-6.966-2.678-8.492-3.92
				c-0.392-0.319-0.518-0.368-1.16-0.45c-0.506-0.065-0.934-0.065-1.44,0c-0.642,0.082-0.767,0.131-1.16,0.45
				c-1.127,0.918-3.815,2.292-6.21,3.174c-1.051,0.387-1.579,0.553-2.825,0.887C156.4366,562.1,156.3576,562.041,156.2836,561.867z
				 M166.1436,555.881c0.001-0.876,0.028-1.74,0.06-1.92c0.062-0.343-0.092-0.472-0.183-0.153c-0.059,0.21-0.252,0.217-1.42,0.055
				c-0.458-0.063-0.853-0.085-0.877-0.048c-0.05,0.073,0.163,0.121,1.141,0.256c0.472,0.065,0.711,0.143,0.829,0.273
				c0.199,0.219,0.213,0.506,0.034,0.731c-0.117,0.147-0.318,0.173-1.823,0.229c-0.931,0.034-1.724,0.065-1.763,0.069
				c-0.039,0.003-0.071,0.046-0.071,0.094c0,0.055,0.637,0.087,1.721,0.087c1.468,0,1.746,0.021,1.894,0.144
				c0.209,0.175,0.22,0.366,0.035,0.61c-0.097,0.128-0.434,0.254-1.136,0.426c-0.549,0.134-0.999,0.276-0.999,0.315
				c0,0.079,0.33,0.035,1.15-0.151c0.295-0.067,0.667-0.1219,0.828-0.1219c0.269,0,0.298,0.029,0.354,0.349
				C166.0506,557.8961,166.1426,557.3911,166.1436,555.881z M169.0786,557.348c0-0.069,0.097-0.229,0.215-0.356l0.215-0.23
				l1.087,0.269c1.111,0.274,1.703,0.338,1.703,0.182c0-0.048-0.094-0.088-0.21-0.088c-0.116,0-0.756-0.143-1.422-0.3181
				c-1.086-0.285-1.218-0.3409-1.272-0.537c-0.117-0.432,0.032-0.496,1.234-0.522c0.606-0.014,1.102-0.057,1.102-0.097
				c0-0.04-0.452-0.093-1.006-0.119c-0.821-0.039-1.039-0.078-1.188-0.215c-0.147-0.136-0.164-0.212-0.087-0.398
				c0.111-0.269,0.172-0.2859,2.376-0.681c0.859-0.155,1.602-0.314,1.651-0.354c0.226-0.187-0.137-0.177-1.203,0.034
				c-1.707,0.338-2.811,0.514-2.903,0.462c-0.044-0.025-0.109-0.222-0.144-0.438c-0.056-0.346-0.189-0.561-0.289-0.469
				c-0.019,0.017,0.026,0.266,0.1,0.554c0.172,0.675,0.17,1.444-0.007,2.523c-0.167,1.027-0.162,0.925-0.046,0.925
				C169.0367,557.475,169.0786,557.418,169.0786,557.348z"/>
			<path d="M186.0276,537.397c-4.088,0-6.132-6.131-12.264-6.131c-6.131,0-6.131,4.088-6.131,4.088s0-4.088-6.132-4.088
				c-6.131,0-8.175,6.131-12.263,6.131c-2.044,0-4.088-2.043-4.088-2.043s2.044,10.219,10.22,10.219
				c10.219,0,12.263-6.132,12.263-6.132s2.044,6.132,12.263,6.132c8.175,0,10.219-10.219,10.219-10.219
				S188.0706,537.397,186.0276,537.397z"/>
			<path d="M157.9906,515.546c-0.555,0.036-1.018,0.077-1.269,0.11c-2.477,0.3391-4.225,1.255-5.125,2.689
				c-0.267,0.425-0.513,1.04-0.664,1.666l-0.075,0.304l-0.38,0.014c-0.375,0.013-0.381,0.013-0.447,0.091
				c-0.064,0.074-0.066,0.088-0.066,0.57v0.497l0.08,0.088c0.08,0.088,0.085,0.091,0.355,0.099l0.274,0.012l0.019,0.471
				c0.06,1.608,0.543,2.965,1.44,4.046c0.253,0.3069,0.844,0.8719,1.141,1.095c0.651,0.489,1.258,0.797,1.973,1.004
				c2.821,0.822,5.758-0.499,8.564-3.85c1.756-2.099,2.529-4.055,2.214-5.618c-0.013-0.072-0.005-0.083,0.133-0.144
				c0.339-0.149,0.725-0.218,1.211-0.218c0.543,0.003,1.083,0.133,1.406,0.34c0.202,0.129,0.196,0.118,0.163,0.455
				c-0.08,0.786,0.163,1.798,0.67,2.813c0.863,1.718,2.711,3.831,4.408,5.034c1.616,1.144,3.32,1.613,4.964,1.3651
				c1.31-0.196,2.458-0.7921,3.462-1.793c0.538-0.535,0.888-1.02,1.2-1.655c0.43-0.8799,0.645-1.7679,0.681-2.832l0.016-0.516
				l0.384-0.009l0.386-0.008l0.08-0.091l0.08-0.088v-0.499v-0.5l-0.08-0.079l-0.08-0.08h-0.472h-0.469l-0.027-0.105
				c-0.014-0.0551-0.047-0.182-0.069-0.282c-0.069-0.311-0.259-0.855-0.403-1.15c-0.574-1.205-1.561-2.038-3.092-2.609
				c-0.786-0.295-1.693-0.48-2.962-0.601c-0.469-0.047-2.149-0.047-2.62-0.003c-0.902,0.088-1.548,0.179-2.102,0.298l-0.312,0.066
				h-5.069c-4.981,0-5.075,0-5.332-0.055c-0.576-0.124-1.354-0.235-2.121-0.303C159.7336,515.554,158.2636,515.527,157.9906,515.546
				z M170.5956,516.655c-0.668,0.458-1.115,0.948-1.366,1.495c-0.044,0.099-0.082,0.184-0.088,0.19
				c-0.003,0.005-0.102-0.039-0.221-0.099c-0.386-0.199-0.75-0.296-1.263-0.337c-0.596-0.047-1.263,0.053-1.729,0.257l-0.1,0.044
				l-0.113-0.204c-0.251-0.458-0.667-0.913-1.103-1.206c-0.121-0.082-0.221-0.157-0.223-0.171c0-0.011,1.412-0.019,3.138-0.016
				C170.4876,516.608,170.6617,516.611,170.5956,516.655z"/>
			<path d="M185.8206,500.487c-1.032-2.403-3.514-2.491-6.868-2.011c0.025-5.602,0.969-10.952,2.762-16.798
				c0.834-2.093-5.38-5.895-14.097-5.936c-8.718,0.041-14.932,3.842-14.099,5.936c1.783,5.81,2.721,11.198,2.754,16.796
				c-3.35-0.478-5.829-0.389-6.861,2.012c-2.247,4.466,4.856,12.485,18.205,12.485S188.0686,504.952,185.8206,500.487z
				 M155.5056,504.186c0,0,0.842-2.944,0.708-4.501c7.324,6.592,15.483,6.592,22.807,0c0.028,1.589,0.707,4.501,0.707,4.501
				C172.5176,511.047,162.7166,511.047,155.5056,504.186z"/>
			<path d="M137.9406,454.443c0.181,0,0.272,0.102,0.272,0.305v11.169c0,0.16-0.042,0.273-0.128,0.337
				c-0.075,0.064-0.193,0.096-0.353,0.096h-2.375c-0.15,0-0.252-0.027-0.305-0.08c-0.054-0.064-0.08-0.161-0.08-0.289V454.78
				c0-0.225,0.091-0.337,0.273-0.337H137.9406z M140.9286,459.45c-0.085,0-0.15-0.032-0.192-0.097
				c-0.032-0.074-0.038-0.149-0.016-0.224l0.69-1.605c0.053-0.139,0.069-0.241,0.048-0.305c-0.011-0.064-0.07-0.107-0.177-0.128
				l-0.273-0.032c-0.117-0.022-0.203-0.054-0.256-0.097c-0.054-0.042-0.081-0.123-0.081-0.24v-1.974
				c0-0.203,0.086-0.305,0.257-0.305h2.199c0.16,0,0.24,0.086,0.24,0.257v1.893c0,0.086-0.016,0.155-0.048,0.209l-1.54,2.359
				c-0.064,0.096-0.155,0.171-0.273,0.225c-0.107,0.042-0.214,0.064-0.321,0.064H140.9286z M146.0976,466.35
				c-0.246,0-0.37-0.139-0.37-0.417V454.78c0-0.225,0.102-0.337,0.305-0.337h3.932c0.128,0,0.219,0.016,0.273,0.048
				c0.053,0.032,0.101,0.107,0.144,0.225l2.022,5.873c0.032,0.086,0.07,0.128,0.113,0.128c0.042-0.01,0.08-0.053,0.112-0.128
				l1.877-5.729c0.086-0.278,0.22-0.417,0.402-0.417h4.06c0.181,0,0.272,0.102,0.272,0.305v11.185c0,0.278-0.155,0.417-0.465,0.417
				h-2.391c-0.15,0-0.251-0.027-0.305-0.08c-0.053-0.064-0.08-0.161-0.08-0.289v-7.574c0-0.075-0.022-0.113-0.064-0.113
				c-0.043,0-0.081,0.043-0.113,0.129l-2.535,7.654c-0.075,0.182-0.198,0.273-0.369,0.273h-1.509c-0.192,0-0.321-0.091-0.385-0.273
				l-2.535-7.542c-0.032-0.107-0.07-0.155-0.113-0.144c-0.032,0.01-0.048,0.064-0.048,0.16v7.478c0,0.129-0.021,0.214-0.064,0.257
				s-0.134,0.064-0.273,0.064H146.0976z M165.5786,454.78c0-0.096,0.027-0.177,0.08-0.241c0.054-0.064,0.145-0.096,0.273-0.096h9.42
				c0.117,0,0.203,0.032,0.257,0.096c0.064,0.064,0.096,0.145,0.096,0.241v1.701c0,0.182-0.107,0.273-0.321,0.273h-2.921
				c-0.128,0-0.192,0.053-0.192,0.16v9.115c0,0.214-0.091,0.321-0.273,0.321h-2.696c-0.182,0-0.273-0.102-0.273-0.305v-9.067
				c0-0.149-0.053-0.224-0.16-0.224h-2.953c-0.225,0-0.337-0.091-0.337-0.273V454.78z M181.4556,461.44
				c-0.15,0-0.225,0.069-0.225,0.208v4.285c0,0.278-0.161,0.417-0.482,0.417h-2.375c-0.149,0-0.251-0.027-0.304-0.08
				c-0.054-0.064-0.081-0.161-0.081-0.289V454.78c0-0.225,0.091-0.337,0.273-0.337h2.696c0.182,0,0.273,0.102,0.273,0.305v3.915
				c0,0.204,0.085,0.305,0.257,0.305h3.193c0.171,0,0.257-0.101,0.257-0.305v-3.915c0-0.203,0.091-0.305,0.273-0.305h2.696
				c0.181,0,0.272,0.112,0.272,0.337v11.201c0,0.128-0.026,0.225-0.08,0.289c-0.053,0.053-0.155,0.08-0.305,0.08h-2.375
				c-0.321,0-0.481-0.139-0.481-0.417v-4.285c0-0.139-0.075-0.208-0.225-0.208H181.4556z M190.9366,454.78
				c0-0.225,0.091-0.337,0.273-0.337h8.392c0.172,0,0.257,0.102,0.257,0.305v1.669c0,0.257-0.128,0.385-0.385,0.385h-4.959
				c-0.224,0-0.337,0.096-0.337,0.289v1.813c0,0.203,0.086,0.305,0.257,0.305h3.129c0.204,0,0.305,0.096,0.305,0.289v1.781
				c0,0.064-0.021,0.123-0.064,0.177c-0.032,0.042-0.096,0.064-0.192,0.064h-3.194c-0.16,0-0.241,0.075-0.241,0.225v2.038
				c0,0.139,0.059,0.208,0.177,0.208h5.344c0.214,0,0.321,0.091,0.321,0.273v1.765c0,0.086-0.027,0.161-0.081,0.225
				c-0.053,0.064-0.139,0.096-0.256,0.096h-8.361c-0.257,0-0.385-0.123-0.385-0.369V454.78z"/>
		</g>
		<g>
			<rect x="0.0006" y="346.756" class="st6" width="330.502" height="346.756"/>
		</g>
	</g>
</g>
</svg>
