<svg width="144" height="79" viewBox="0 0 144 79" fill="none" xmlns="http://www.w3.org/2000/svg">
<path d="M0.559717 27.0106C0.559717 26.9023 0.589813 26.812 0.650004 26.7398C0.710195 26.6676 0.81252 26.6314 0.956979 26.6314H11.5566C11.6891 26.6314 11.7854 26.6676 11.8456 26.7398C11.9178 26.812 11.9539 26.9023 11.9539 27.0106V28.9247C11.9539 29.1294 11.8335 29.2317 11.5928 29.2317H8.30632C8.16186 29.2317 8.08964 29.2919 8.08964 29.4123V39.6689C8.08964 39.9096 7.98731 40.03 7.78266 40.03H4.74902C4.54437 40.03 4.44205 39.9156 4.44205 39.6869V29.4845C4.44205 29.316 4.38186 29.2317 4.26148 29.2317H0.938922C0.686119 29.2317 0.559717 29.1294 0.559717 28.9247V27.0106ZM17.2331 27.0106C17.2331 26.7578 17.3355 26.6314 17.5401 26.6314H26.9841C27.1767 26.6314 27.273 26.7458 27.273 26.9745V28.8525C27.273 29.1414 27.1286 29.2859 26.8397 29.2859H21.2599C21.0071 29.2859 20.8807 29.3942 20.8807 29.6109V31.6514C20.8807 31.8801 20.977 31.9945 21.1697 31.9945H24.6908C24.9196 31.9945 25.0339 32.1028 25.0339 32.3195V34.3239C25.0339 34.3961 25.0099 34.4623 24.9617 34.5225C24.9256 34.5707 24.8534 34.5947 24.745 34.5947H21.1516C20.971 34.5947 20.8807 34.679 20.8807 34.8475V37.1408C20.8807 37.2973 20.9469 37.3756 21.0794 37.3756H27.0925C27.3332 37.3756 27.4536 37.4779 27.4536 37.6825V39.6689C27.4536 39.7652 27.4235 39.8494 27.3633 39.9217C27.3031 39.9939 27.2068 40.03 27.0744 40.03H17.6665C17.3776 40.03 17.2331 39.8916 17.2331 39.6147V27.0106ZM32.5293 40.03C32.4089 40.03 32.3186 39.9758 32.2584 39.8675C32.2103 39.7471 32.2163 39.6026 32.2765 39.4341L36.7186 27.0106C36.7667 26.8782 36.8269 26.7819 36.8992 26.7217C36.9714 26.6615 37.0797 26.6314 37.2242 26.6314H40.3662C40.6671 26.6314 40.8718 26.7819 40.9801 27.0829L45.3681 39.4702C45.4042 39.5786 45.4042 39.6989 45.3681 39.8314C45.3319 39.9638 45.2477 40.03 45.1153 40.03H42.0094C41.8168 40.03 41.6904 39.9337 41.6302 39.7411L40.8357 37.3936C40.8116 37.3455 40.7815 37.3033 40.7454 37.2672C40.7213 37.2191 40.6611 37.195 40.5648 37.195H36.4658C36.3334 37.195 36.2491 37.2612 36.213 37.3936L35.3643 39.7772C35.3402 39.8494 35.2981 39.9096 35.2379 39.9578C35.1777 40.0059 35.0874 40.03 34.967 40.03H32.5293ZM39.7522 34.4503C39.9208 34.4503 39.9749 34.3359 39.9147 34.1072L38.6146 30.4777C38.5905 30.4175 38.5544 30.3874 38.5063 30.3874C38.4581 30.3874 38.422 30.4175 38.3979 30.4777L37.0797 34.1072C36.9955 34.3359 37.0496 34.4503 37.2423 34.4503H39.7522ZM51.0228 40.03C50.746 40.03 50.6075 39.8735 50.6075 39.5605V27.0106C50.6075 26.7578 50.7219 26.6314 50.9506 26.6314H55.3747C55.5191 26.6314 55.6214 26.6495 55.6816 26.6856C55.7418 26.7217 55.796 26.806 55.8442 26.9384L58.1194 33.5474C58.1555 33.6437 58.1976 33.6919 58.2458 33.6919C58.2939 33.6798 58.3361 33.6317 58.3722 33.5474L60.4849 27.1009C60.5812 26.7879 60.7317 26.6314 60.9363 26.6314H65.5048C65.7095 26.6314 65.8118 26.7458 65.8118 26.9745V39.5605C65.8118 39.8735 65.6373 40.03 65.2882 40.03H62.5976C62.4291 40.03 62.3147 39.9999 62.2545 39.9397C62.1943 39.8675 62.1642 39.7591 62.1642 39.6147V31.0916C62.1642 31.0073 62.1402 30.9652 62.092 30.9652C62.0438 30.9652 62.0017 31.0134 61.9656 31.1097L59.1125 39.723C59.0283 39.9277 58.8898 40.03 58.6972 40.03H56.9998C56.7831 40.03 56.6387 39.9277 56.5664 39.723L53.7134 31.2361C53.6773 31.1157 53.6351 31.0615 53.587 31.0735C53.5509 31.0856 53.5328 31.1458 53.5328 31.2541V39.6689C53.5328 39.8133 53.5087 39.9096 53.4606 39.9578C53.4124 40.0059 53.3101 40.03 53.1536 40.03H51.0228Z" fill="white"/>
<path d="M49.8202 59.3513C48.5802 59.3513 47.4908 59.0685 46.5518 58.5027C45.6249 57.9248 44.9086 57.1243 44.403 56.101C43.8974 55.0657 43.6446 53.874 43.6446 52.5257C43.6446 51.1172 43.9094 49.8953 44.4391 48.86C44.9808 47.8247 45.7332 47.0242 46.6963 46.4584C47.6593 45.8806 48.7668 45.5916 50.0188 45.5916C51.0661 45.5916 51.981 45.7843 52.7635 46.1695C53.546 46.5427 54.178 47.0302 54.6596 47.6321C55.1531 48.222 55.4661 48.8359 55.5985 49.474C55.6467 49.7027 55.6527 49.8532 55.6166 49.9254C55.5805 49.9856 55.4962 50.0277 55.3638 50.0518L52.6191 50.4671C52.4866 50.4671 52.4024 50.4431 52.3663 50.3949C52.3302 50.3347 52.3001 50.2504 52.276 50.1421C52.2158 49.7809 52.0894 49.4499 51.8968 49.1489C51.7042 48.8359 51.4453 48.5831 51.1203 48.3905C50.7953 48.1979 50.404 48.1016 49.9466 48.1016C49.4289 48.1016 48.9835 48.2461 48.6103 48.535C48.2372 48.8119 47.9482 49.2633 47.7436 49.8893C47.551 50.5153 47.4547 51.358 47.4547 52.4173C47.4547 53.5369 47.563 54.4157 47.7797 55.0537C47.9964 55.6917 48.2973 56.1492 48.6826 56.4261C49.0798 56.6909 49.5433 56.8233 50.073 56.8233C50.386 56.8233 50.6629 56.7812 50.9036 56.6969C51.1564 56.6127 51.3731 56.4983 51.5537 56.3538C51.7463 56.1973 51.9028 56.0228 52.0232 55.8302C52.1556 55.6255 52.2579 55.4088 52.3302 55.1801L52.3663 54.837C52.4385 54.6444 52.3843 54.5481 52.2038 54.5481H50.2716C50.1633 54.5481 50.079 54.524 50.0188 54.4759C49.9707 54.4277 49.9466 54.3314 49.9466 54.1869V52.634C49.9466 52.4534 50.0609 52.3632 50.2897 52.3632L55.2374 52.3993C55.43 52.3993 55.5745 52.4474 55.6708 52.5437C55.7791 52.628 55.8333 52.7424 55.8333 52.8868V58.8819C55.8333 58.9661 55.8092 59.0384 55.761 59.0985C55.7129 59.1467 55.6407 59.1708 55.5444 59.1708H54.9124C54.804 59.1708 54.7077 59.1467 54.6234 59.0985C54.5392 59.0504 54.4609 58.9661 54.3887 58.8457L53.7567 57.6901C53.7326 57.6419 53.7025 57.6178 53.6664 57.6178C53.6423 57.6178 53.6122 57.6479 53.5761 57.7081C53.3474 57.9489 53.0765 58.1957 52.7635 58.4485C52.4626 58.7013 52.0713 58.918 51.5898 59.0985C51.1203 59.2671 50.5304 59.3513 49.8202 59.3513ZM72.6598 58.6291C72.72 58.7735 72.7139 58.8999 72.6417 59.0083C72.5815 59.1166 72.4852 59.1708 72.3528 59.1708H69.265C69.0363 59.1708 68.8858 59.0564 68.8136 58.8277L67.0078 53.9703C66.9356 53.7897 66.755 53.6994 66.4661 53.6994H65.2201C65.1359 53.6994 65.0757 53.7235 65.0396 53.7716C65.0155 53.8198 65.0035 53.8619 65.0035 53.898V58.6832C65.0035 59.0083 64.8229 59.1708 64.4617 59.1708H61.7712C61.6147 59.1708 61.5063 59.1407 61.4462 59.0805C61.386 59.0083 61.3559 58.8999 61.3559 58.7555V46.1514C61.3559 45.8986 61.4582 45.7722 61.6628 45.7722H67.5134C69.1988 45.7722 70.5049 46.0972 71.4319 46.7473C72.3588 47.3974 72.8223 48.3243 72.8223 49.5281C72.8223 50.118 72.7139 50.6537 72.4973 51.1353C72.2806 51.6168 71.9917 52.0261 71.6305 52.3632C71.2694 52.6882 70.8601 52.935 70.4026 53.1035C70.2943 53.1517 70.2702 53.26 70.3304 53.4285L72.6598 58.6291ZM67.2787 51.2797C67.8565 51.2797 68.2959 51.1473 68.5969 50.8824C68.8978 50.6056 69.0483 50.2324 69.0483 49.7629C69.0483 49.2452 68.8737 48.854 68.5246 48.5892C68.1876 48.3123 67.7722 48.1738 67.2787 48.1738H65.3827C65.1299 48.1738 65.0035 48.2822 65.0035 48.4989V50.9186C65.0035 51.1593 65.0937 51.2797 65.2743 51.2797H67.2787ZM122.267 59.1708C121.99 59.1708 121.852 59.0143 121.852 58.7013V46.1514C121.852 45.8986 121.966 45.7722 122.195 45.7722H126.619C126.763 45.7722 126.865 45.7903 126.926 45.8264C126.986 45.8625 127.04 45.9468 127.088 46.0792L129.363 52.6882C129.4 52.7845 129.442 52.8326 129.49 52.8326C129.538 52.8206 129.58 52.7725 129.616 52.6882L131.729 46.2417C131.825 45.9287 131.976 45.7722 132.18 45.7722H136.749C136.954 45.7722 137.056 45.8866 137.056 46.1153V58.7013C137.056 59.0143 136.881 59.1708 136.532 59.1708H133.842C133.673 59.1708 133.559 59.1407 133.499 59.0805C133.438 59.0083 133.408 58.8999 133.408 58.7555V50.2324C133.408 50.1481 133.384 50.106 133.336 50.106C133.288 50.106 133.246 50.1541 133.21 50.2504L130.357 58.8638C130.272 59.0685 130.134 59.1708 129.941 59.1708H128.244C128.027 59.1708 127.883 59.0685 127.81 58.8638L124.957 50.3768C124.921 50.2565 124.879 50.2023 124.831 50.2143C124.795 50.2264 124.777 50.2866 124.777 50.3949V58.8096C124.777 58.9541 124.753 59.0504 124.705 59.0985C124.656 59.1467 124.554 59.1708 124.398 59.1708H122.267Z" fill="white"/>
<path d="M117.272 27.8444C116.11 25.1403 113.318 25.0411 109.543 25.5815C109.572 19.2781 110.634 13.2582 112.652 6.67973C113.59 4.32399 106.598 0.0460816 96.7883 0C86.9785 0.0460816 79.986 4.32329 80.9244 6.67903C82.9304 13.2177 83.9853 19.2795 84.023 25.5795C80.2534 25.0411 77.4641 25.1417 76.303 27.8437C73.7741 32.8687 81.7671 41.8916 96.7876 41.8916C111.809 41.8916 119.801 32.8687 117.272 27.8444ZM83.1601 32.0071C83.1601 32.0071 84.1075 28.6941 83.956 26.9423C92.1976 34.3601 101.379 34.3601 109.62 26.9423C109.651 28.7298 110.415 32.0071 110.415 32.0071C102.302 39.7272 91.2739 39.7272 83.1601 32.0071Z" fill="white"/>
<path d="M117.504 69.378C112.905 69.378 110.605 62.4785 103.705 62.4785C96.8056 62.4785 96.8056 67.0782 96.8056 67.0782C96.8056 67.0782 96.8056 62.4785 89.906 62.4785C83.0064 62.4785 80.7065 69.378 76.1068 69.378C73.8069 69.378 71.5071 67.0782 71.5071 67.0782C71.5071 67.0782 73.8069 78.5775 83.0064 78.5775C94.5057 78.5775 96.8056 71.6779 96.8056 71.6779C96.8056 71.6779 99.1054 78.5775 110.605 78.5775C119.804 78.5775 122.104 67.0782 122.104 67.0782C122.104 67.0782 119.804 69.378 117.504 69.378Z" fill="white"/>
<path d="M85.9558 44.7895C85.332 44.8298 84.8106 44.8764 84.5282 44.9136C81.7411 45.2953 79.7734 46.3257 78.7617 47.9396C78.4606 48.4176 78.1844 49.1097 78.0137 49.8142L77.9299 50.1556L77.5016 50.1711C77.0795 50.1866 77.0733 50.1866 76.9988 50.2735C76.9274 50.3573 76.9243 50.3729 76.9243 50.916V51.4746L77.0143 51.5739C77.1043 51.6733 77.1105 51.6764 77.4147 51.6857L77.7219 51.6981L77.7437 52.2288C77.8119 54.0382 78.3551 55.5652 79.3638 56.7818C79.6493 57.1263 80.3135 57.7625 80.6486 58.0139C81.3811 58.5633 82.0639 58.9109 82.8677 59.1436C86.0427 60.0685 89.3481 58.5819 92.5044 54.811C94.4814 52.4492 95.3504 50.2487 94.9966 48.489C94.9811 48.4083 94.9904 48.3959 95.1456 48.3276C95.5273 48.16 95.9618 48.0824 96.5081 48.0824C97.1195 48.0855 97.7278 48.2314 98.0909 48.4641C98.3175 48.61 98.3113 48.5976 98.274 48.9762C98.184 49.8608 98.4572 50.9998 99.0282 52.1419C99.9996 54.0755 102.079 56.4528 103.988 57.806C105.806 59.094 107.725 59.6216 109.574 59.3423C111.048 59.1219 112.34 58.4515 113.469 57.3249C114.075 56.7228 114.469 56.1766 114.819 55.4628C115.304 54.4727 115.546 53.4734 115.586 52.2754L115.605 51.695L116.036 51.6857L116.47 51.6764L116.56 51.5739L116.651 51.4746V50.9129V50.3511L116.56 50.2611L116.47 50.1711H115.94H115.412L115.381 50.0532C115.366 49.9911 115.328 49.8483 115.304 49.7366C115.226 49.3859 115.012 48.7745 114.85 48.4424C114.205 47.0861 113.094 46.1488 111.371 45.5064C110.487 45.1743 109.466 44.9664 108.038 44.8298C107.51 44.777 105.62 44.777 105.09 44.8267C104.075 44.926 103.348 45.0284 102.725 45.1619L102.374 45.2364H96.6695C91.0644 45.2364 90.9588 45.2364 90.6702 45.1743C90.0215 45.0346 89.1463 44.9105 88.2835 44.8329C87.9173 44.7988 86.2631 44.7677 85.9558 44.7895ZM100.139 46.0371C99.3882 46.5523 98.8854 47.1048 98.603 47.7193C98.5534 47.831 98.5099 47.9272 98.5037 47.9334C98.5006 47.9396 98.3889 47.89 98.2554 47.8217C97.8209 47.5982 97.4112 47.4896 96.834 47.443C96.1636 47.3903 95.4125 47.502 94.888 47.7317L94.7763 47.7813L94.649 47.5517C94.3666 47.0365 93.8979 46.5244 93.4076 46.1954C93.271 46.1023 93.1593 46.0185 93.1562 46.003C93.1562 45.9906 94.7452 45.9812 96.6881 45.9843C100.018 45.9843 100.214 45.9875 100.139 46.0371Z" fill="white"/>
</svg>
